<svg width="174" height="47" viewBox="0 0 174 47" fill="none" xmlns="http://www.w3.org/2000/svg">
<rect x="1" y="1" width="171.72" height="44.52" rx="9.54" fill="#EFF1F7" stroke="#D8DCE5" stroke-width="1.13722"/>
<path d="M51.0997 28.3086H49.0038L52.1974 19.0577H54.7179L57.9069 28.3086H55.811L53.4938 21.1717H53.4215L51.0997 28.3086ZM50.9687 24.6724H55.9194V26.1991H50.9687V24.6724ZM63.8129 24.0716V25.5848H60.1903V24.0716H63.8129ZM60.8227 21.3704V28.3086H58.9842V21.3704H60.8227ZM65.019 21.3704V28.3086H63.1941V21.3704H65.019ZM68.4903 28.4396C68.0477 28.4396 67.6532 28.3628 67.3069 28.2092C66.9606 28.0526 66.6865 27.8223 66.4848 27.5181C66.286 27.211 66.1866 26.8285 66.1866 26.3708C66.1866 25.9853 66.2574 25.6616 66.3989 25.3996C66.5405 25.1376 66.7332 24.9268 66.9771 24.7672C67.221 24.6076 67.4981 24.4872 67.8083 24.4059C68.1214 24.3246 68.4497 24.2673 68.793 24.2342C69.1965 24.1921 69.5217 24.1529 69.7687 24.1168C70.0156 24.0776 70.1948 24.0204 70.3062 23.9451C70.4176 23.8698 70.4733 23.7584 70.4733 23.6109V23.5838C70.4733 23.2977 70.383 23.0764 70.2023 22.9198C70.0246 22.7632 69.7717 22.6849 69.4434 22.6849C69.0971 22.6849 68.8216 22.7617 68.6168 22.9152C68.412 23.0658 68.2765 23.2555 68.2103 23.4844L66.4306 23.3398C66.5209 22.9183 66.6986 22.5539 66.9636 22.2467C67.2286 21.9366 67.5704 21.6987 67.9889 21.533C68.4105 21.3644 68.8984 21.2801 69.4525 21.2801C69.8379 21.2801 70.2068 21.3252 70.5591 21.4156C70.9145 21.5059 71.2292 21.646 71.5032 21.8357C71.7802 22.0254 71.9986 22.2693 72.1582 22.5674C72.3178 22.8625 72.3976 23.2164 72.3976 23.6289V28.3086H70.5727V27.3465H70.5185C70.4071 27.5633 70.258 27.7545 70.0713 27.9201C69.8846 28.0827 69.6603 28.2107 69.3983 28.3041C69.1363 28.3944 68.8336 28.4396 68.4903 28.4396ZM69.0414 27.1116C69.3245 27.1116 69.5744 27.0559 69.7912 26.9444C70.0081 26.83 70.1782 26.6764 70.3017 26.4837C70.4251 26.291 70.4869 26.0727 70.4869 25.8287V25.0925C70.4266 25.1316 70.3438 25.1677 70.2384 25.2009C70.136 25.231 70.0201 25.2596 69.8906 25.2867C69.7611 25.3108 69.6316 25.3334 69.5022 25.3544C69.3727 25.3725 69.2552 25.3891 69.1498 25.4041C68.924 25.4373 68.7267 25.49 68.5581 25.5622C68.3895 25.6345 68.2585 25.7324 68.1651 25.8558C68.0718 25.9763 68.0251 26.1269 68.0251 26.3075C68.0251 26.5695 68.1199 26.7698 68.3097 26.9083C68.5024 27.0438 68.7463 27.1116 69.0414 27.1116ZM73.4839 28.3086L73.4749 26.7818H73.7053C73.8679 26.7818 74.0079 26.7427 74.1253 26.6644C74.2458 26.5831 74.3452 26.4521 74.4235 26.2714C74.5018 26.0907 74.5635 25.8513 74.6087 25.5532C74.6538 25.2521 74.684 24.8817 74.699 24.442L74.8119 21.3704H80.0878V28.3086H78.2539V22.8836H76.542L76.4336 25.0021C76.4065 25.5833 76.3357 26.0832 76.2213 26.5018C76.1098 26.9204 75.9548 27.2637 75.756 27.5317C75.5573 27.7967 75.3178 27.9924 75.0378 28.1189C74.7577 28.2454 74.4325 28.3086 74.0621 28.3086H73.4839ZM83.418 25.77L85.916 21.3704H87.8131V28.3086H85.9792V23.8954L83.4903 28.3086H81.5796V21.3704H83.418V25.77ZM88.6589 22.8836V21.3704H94.9467V22.8836H92.7107V28.3086H90.8768V22.8836H88.6589ZM97.9516 25.77L100.45 21.3704H102.347V28.3086H100.513V23.8954L98.0239 28.3086H96.1132V21.3704H97.9516V25.77ZM103.889 28.3086V21.3704H105.814V24.0626H106.356L108.244 21.3704H110.502L108.049 24.8124L110.529 28.3086H108.244L106.532 25.8468H105.814V28.3086H103.889ZM113.321 28.4396C112.878 28.4396 112.484 28.3628 112.137 28.2092C111.791 28.0526 111.517 27.8223 111.315 27.5181C111.117 27.211 111.017 26.8285 111.017 26.3708C111.017 25.9853 111.088 25.6616 111.229 25.3996C111.371 25.1376 111.564 24.9268 111.808 24.7672C112.052 24.6076 112.329 24.4872 112.639 24.4059C112.952 24.3246 113.28 24.2673 113.623 24.2342C114.027 24.1921 114.352 24.1529 114.599 24.1168C114.846 24.0776 115.025 24.0204 115.137 23.9451C115.248 23.8698 115.304 23.7584 115.304 23.6109V23.5838C115.304 23.2977 115.213 23.0764 115.033 22.9198C114.855 22.7632 114.602 22.6849 114.274 22.6849C113.928 22.6849 113.652 22.7617 113.447 22.9152C113.243 23.0658 113.107 23.2555 113.041 23.4844L111.261 23.3398C111.351 22.9183 111.529 22.5539 111.794 22.2467C112.059 21.9366 112.401 21.6987 112.819 21.533C113.241 21.3644 113.729 21.2801 114.283 21.2801C114.668 21.2801 115.037 21.3252 115.39 21.4156C115.745 21.5059 116.06 21.646 116.334 21.8357C116.611 22.0254 116.829 22.2693 116.989 22.5674C117.148 22.8625 117.228 23.2164 117.228 23.6289V28.3086H115.403V27.3465H115.349C115.238 27.5633 115.089 27.7545 114.902 27.9201C114.715 28.0827 114.491 28.2107 114.229 28.3041C113.967 28.3944 113.664 28.4396 113.321 28.4396ZM113.872 27.1116C114.155 27.1116 114.405 27.0559 114.622 26.9444C114.839 26.83 115.009 26.6764 115.132 26.4837C115.256 26.291 115.317 26.0727 115.317 25.8287V25.0925C115.257 25.1316 115.174 25.1677 115.069 25.2009C114.967 25.231 114.851 25.2596 114.721 25.2867C114.592 25.3108 114.462 25.3334 114.333 25.3544C114.203 25.3725 114.086 25.3891 113.98 25.4041C113.754 25.4373 113.557 25.49 113.389 25.5622C113.22 25.6345 113.089 25.7324 112.996 25.8558C112.902 25.9763 112.856 26.1269 112.856 26.3075C112.856 26.5695 112.95 26.7698 113.14 26.9083C113.333 27.0438 113.577 27.1116 113.872 27.1116Z" fill="#202021"/>
<path d="M22.7594 21.8301V27.2839" stroke="#202021" stroke-width="1.1925" stroke-linecap="round" stroke-linejoin="round"/>
<path d="M26.4723 19.2188V27.2822" stroke="#202021" stroke-width="1.1925" stroke-linecap="round" stroke-linejoin="round"/>
<path d="M30.1188 24.7109V27.2828" stroke="#202021" stroke-width="1.1925" stroke-linecap="round" stroke-linejoin="round"/>
<path fill-rule="evenodd" clip-rule="evenodd" d="M30.1654 15.3086H22.7151C20.1181 15.3086 18.4902 17.1467 18.4902 19.7488V26.7684C18.4902 29.3705 20.1105 31.2086 22.7151 31.2086H30.1654C32.7699 31.2086 34.3902 29.3705 34.3902 26.7684V19.7488C34.3902 17.1467 32.7699 15.3086 30.1654 15.3086Z" stroke="#202021" stroke-width="1.1925" stroke-linecap="round" stroke-linejoin="round"/>
</svg>
