<svg width="123" height="125" viewBox="0 0 123 125" fill="none" xmlns="http://www.w3.org/2000/svg">
<g clip-path="url(#clip0_6261_28)">
<g filter="url(#filter0_i_6261_28)">
<path fill-rule="evenodd" clip-rule="evenodd" d="M66.6829 79.0621L61.3204 52.116C60.9164 50.0831 60.1158 48.1497 58.9645 46.4263C57.8132 44.7028 56.3336 43.223 54.6103 42.0715C52.887 40.9199 50.9537 40.1191 48.9208 39.7148C46.888 39.3105 44.7954 39.3106 42.7626 39.7152L15.8929 45.0625C11.788 45.8805 8.17611 48.2955 5.85149 51.7762C3.52688 55.2569 2.67992 59.5184 3.49687 63.6235L8.8594 90.5695C9.67635 94.6746 12.0903 98.2872 15.5704 100.613C19.0506 102.938 23.3118 103.786 27.4171 102.97L54.323 97.6158C58.4203 96.7905 62.0227 94.3734 64.3399 90.895C66.6571 87.4166 67.4998 83.161 66.6829 79.0621Z" fill="url(#paint0_linear_6261_28)"/>
<path fill-rule="evenodd" clip-rule="evenodd" d="M66.6829 79.0621L61.3204 52.116C60.9164 50.0831 60.1158 48.1497 58.9645 46.4263C57.8132 44.7028 56.3336 43.223 54.6103 42.0715C52.887 40.9199 50.9537 40.1191 48.9208 39.7148C46.888 39.3105 44.7954 39.3106 42.7626 39.7152L15.8929 45.0625C11.788 45.8805 8.17611 48.2955 5.85149 51.7762C3.52688 55.2569 2.67992 59.5184 3.49687 63.6235L8.8594 90.5695C9.67635 94.6746 12.0903 98.2872 15.5704 100.613C19.0506 102.938 23.3118 103.786 27.4171 102.97L54.323 97.6158C58.4203 96.7905 62.0227 94.3734 64.3399 90.895C66.6571 87.4166 67.4998 83.161 66.6829 79.0621Z" fill="url(#paint1_linear_6261_28)"/>
</g>
<path fill-rule="evenodd" clip-rule="evenodd" d="M25.3572 83.1549L21.743 83.8742L12.5881 65.9407L15.8731 65.287L22.8218 79.351L24.1818 63.6335L27.0571 63.0612L34.3029 77.0662L35.3376 61.4133L38.6386 60.7564L37.0432 80.8293L33.429 81.5485L26.6528 68.4771L25.3693 83.1525L25.3572 83.1549ZM52.9563 67.4173C53.8537 67.6639 54.6626 68.1603 55.2889 68.8486C55.9151 69.537 56.333 70.389 56.4939 71.3056C56.6575 72.03 56.6634 72.781 56.5113 73.5078C56.3592 74.2347 56.0526 74.9203 55.6122 75.5182C54.7227 76.7609 53.3812 77.605 51.876 77.8691L43.7319 79.4898L39.9518 60.4951L47.4975 58.9934C48.9524 58.6716 50.4756 58.9371 51.7359 59.7322C52.3543 60.0977 52.8866 60.5922 53.2965 61.1821C53.7064 61.772 53.9843 62.4434 54.1111 63.1504C54.2866 63.9017 54.2729 64.6847 54.0714 65.4294C53.8698 66.1741 53.4867 66.8571 52.9563 67.4173ZM48.0809 61.9249L43.6394 62.8088L44.6304 67.7884L49.0478 66.9093C49.7103 66.7775 50.2932 66.3879 50.6684 65.8262C51.0436 65.2646 51.1804 64.5769 51.0485 63.9144C50.9167 63.2519 50.5271 62.669 49.9654 62.2938C49.4038 61.9186 48.7161 61.7818 48.0536 61.9137L48.0809 61.9249ZM46.2784 75.9437L51.3022 74.944C51.9846 74.7804 52.5771 74.3589 52.9555 73.7679C53.3339 73.177 53.4688 72.4624 53.3318 71.7742C53.1949 71.086 52.7967 70.4775 52.2209 70.0765C51.6451 69.6754 50.9363 69.5129 50.2433 69.623L45.1954 70.6276L46.2784 75.9437Z" fill="black"/>
<g filter="url(#filter1_iii_6261_28)">
<path fill-rule="evenodd" clip-rule="evenodd" d="M25.3572 83.1549L21.743 83.8742L12.5881 65.9407L15.8731 65.287L22.8218 79.351L24.1818 63.6335L27.0571 63.0612L34.3029 77.0662L35.3376 61.4133L38.6386 60.7564L37.0432 80.8293L33.429 81.5485L26.6528 68.4771L25.3693 83.1525L25.3572 83.1549ZM52.9563 67.4173C53.8537 67.6639 54.6626 68.1603 55.2889 68.8486C55.9151 69.537 56.333 70.389 56.4939 71.3056C56.6575 72.03 56.6634 72.781 56.5113 73.5078C56.3592 74.2347 56.0526 74.9203 55.6122 75.5182C54.7227 76.7609 53.3812 77.605 51.876 77.8691L43.7319 79.4898L39.9518 60.4951L47.4975 58.9934C48.9524 58.6716 50.4756 58.9371 51.7359 59.7322C52.3543 60.0977 52.8866 60.5922 53.2965 61.1821C53.7064 61.772 53.9843 62.4434 54.1111 63.1504C54.2866 63.9017 54.2729 64.6847 54.0714 65.4294C53.8698 66.1741 53.4867 66.8571 52.9563 67.4173ZM48.0809 61.9249L43.6394 62.8088L44.6304 67.7884L49.0478 66.9093C49.7103 66.7775 50.2932 66.3879 50.6684 65.8262C51.0436 65.2646 51.1804 64.5769 51.0485 63.9144C50.9167 63.2519 50.5271 62.669 49.9654 62.2938C49.4038 61.9186 48.7161 61.7818 48.0536 61.9137L48.0809 61.9249ZM46.2784 75.9437L51.3022 74.944C51.9846 74.7804 52.5771 74.3589 52.9555 73.7679C53.3339 73.177 53.4688 72.4624 53.3318 71.7742C53.1949 71.086 52.7967 70.4775 52.2209 70.0765C51.6451 69.6754 50.9363 69.5129 50.2433 69.623L45.1954 70.6276L46.2784 75.9437Z" fill="#D0E2F3"/>
</g>
</g>
<g clip-path="url(#clip1_6261_28)">
<g filter="url(#filter2_i_6261_28)">
<path d="M60.8612 11.505C61.8623 5.91249 67.2074 2.19044 72.7999 3.19153L108.854 9.64534C114.446 10.6464 118.168 15.9916 117.167 21.584L110.688 57.7769C109.687 63.3692 104.342 67.0912 98.7497 66.0901L62.696 59.6363C57.1035 58.6352 53.3814 53.2902 54.3825 47.6978L60.8612 11.505Z" fill="url(#paint2_linear_6261_28)"/>
</g>
<g filter="url(#filter3_iii_6261_28)">
<path d="M84.2009 24.0405L74.5293 18.7858L56.8022 34.485L53.9755 50.2757L72.2415 34.0196L68.0876 46.5947L77.9011 51.8747L93.7802 34.5904C92.5215 38.1728 90.0394 46.35 98.0525 50.3222C102.795 52.6733 107.978 51.1067 112.981 47.6868L115.638 32.8449C110.382 38.2156 105.539 41.8736 103.529 40.9313C100.151 39.3471 105.326 28.8748 108.663 22.1213L108.715 22.0161L97.852 16.2007L80.2548 35.4542L84.2009 24.0405Z" fill="#D0E2F3"/>
</g>
</g>
<g clip-path="url(#clip2_6261_28)">
<mask id="mask0_6261_28" style="mask-type:luminance" maskUnits="userSpaceOnUse" x="56" y="58" width="66" height="65">
<path d="M77.1866 58.6654L110.706 64.416C117.495 65.5808 122.098 72.0416 120.926 78.8696L115.176 112.389C114.011 119.178 107.55 123.781 100.722 122.609L67.2028 116.859C60.4136 115.694 55.811 109.233 56.9824 102.405L62.7331 68.8858C63.8978 62.0966 70.3974 57.5006 77.1866 58.6654Z" fill="white"/>
</mask>
<g mask="url(#mask0_6261_28)">
<g filter="url(#filter4_i_6261_28)">
<path d="M118.115 65.6871L69.7776 57.3943C67.056 56.9274 64.4711 58.7552 64.0042 61.4768L55.7113 109.814C55.2444 112.536 57.0722 115.121 59.7939 115.588L108.131 123.88C110.853 124.347 113.438 122.52 113.905 119.798L122.197 71.4606C122.664 68.7389 120.837 66.1541 118.115 65.6871Z" fill="url(#paint3_linear_6261_28)"/>
</g>
<g filter="url(#filter5_i_6261_28)">
<path fill-rule="evenodd" clip-rule="evenodd" d="M88.5095 90.6833L88.2284 87.2004L94.5448 84.3702L101.215 85.9939L101.665 89.4257L126.778 127.881L76.0525 134.195L88.5095 90.6833Z" fill="#F91155"/>
<path fill-rule="evenodd" clip-rule="evenodd" d="M88.5095 90.6833L88.2284 87.2004L94.5448 84.3702L101.215 85.9939L101.665 89.4257L126.778 127.881L76.0525 134.195L88.5095 90.6833Z" fill="url(#paint4_linear_6261_28)"/>
</g>
<g filter="url(#filter6_iii_6261_28)">
<path fill-rule="evenodd" clip-rule="evenodd" d="M64.3868 96.5289C62.0612 97.0485 59.8634 95.1937 59.9335 92.6897C59.9803 91.0203 61.1521 89.544 62.7716 89.1829C65.0973 88.6633 67.2951 90.5181 67.2316 92.9833C67.1715 94.7302 65.9676 96.1611 64.3868 96.5289ZM63.6289 85.8155C59.2804 85.7883 56.0387 89.785 56.8784 94.2024C57.4776 97.4602 60.3006 99.8615 63.5296 99.8963C67.8781 99.9235 71.1197 95.9268 70.2801 91.5094C69.6354 88.2837 66.8191 85.8436 63.6289 85.8155Z" fill="#D0E2F3"/>
</g>
<g filter="url(#filter7_iii_6261_28)">
<path fill-rule="evenodd" clip-rule="evenodd" d="M73.4669 85.0266C72.4504 85.1318 71.7663 86.0927 72.0655 87.1425C72.2948 87.9007 73.0563 88.3509 73.8267 88.2834L78.2939 87.8516L72.1894 97.827C71.9743 98.1496 72.2635 98.5586 72.626 98.541L83.5412 97.5381C84.3116 97.4706 84.9746 96.8654 85.0689 96.0829C85.171 95.0221 84.3209 94.1574 83.3044 94.2625L77.8662 94.7673L83.9707 84.7919C84.1858 84.4693 83.9032 84.0215 83.5341 84.078L73.4669 85.0266Z" fill="#D0E2F3"/>
</g>
<g filter="url(#filter8_iii_6261_28)">
<path fill-rule="evenodd" clip-rule="evenodd" d="M117.135 80.9334C116.416 81.1694 115.966 81.9308 116.033 82.7012L116.538 88.1394L107.178 81.9408C106.855 81.7257 106.414 81.9695 106.464 82.3774L107.498 93.5775C107.565 94.3479 108.132 95.0042 108.914 95.0985C109.968 95.2394 110.84 94.3505 110.734 93.3341L110.236 87.8571L119.597 94.0557C119.919 94.2708 120.36 94.027 120.31 93.6191L119.283 82.3802C119.139 81.3571 118.146 80.6275 117.135 80.9334Z" fill="#D0E2F3"/>
</g>
<g filter="url(#filter9_iii_6261_28)">
<path fill-rule="evenodd" clip-rule="evenodd" d="M94.4159 82.7898C89.1008 83.2757 85.0976 86.8223 85.4352 90.6742C85.8116 94.5329 90.3737 97.2725 95.6889 96.7866C101.004 96.3006 105.007 92.754 104.67 88.9021C104.293 85.0435 99.7311 82.3038 94.4159 82.7898ZM94.6982 86.0332C98.3495 85.7011 101.292 87.4041 101.465 89.191C101.644 90.9391 99.0646 93.1723 95.4133 93.5043C91.762 93.8364 88.8192 92.1334 88.6465 90.3466C88.4672 88.5985 91.0402 86.404 94.6982 86.0332Z" fill="#D0E2F3"/>
</g>
</g>
</g>
<defs>
<filter id="filter0_i_6261_28" x="3.19336" y="39.4121" width="65.2557" height="65.3241" filterUnits="userSpaceOnUse" color-interpolation-filters="sRGB">
<feFlood flood-opacity="0" result="BackgroundImageFix"/>
<feBlend mode="normal" in="SourceGraphic" in2="BackgroundImageFix" result="shape"/>
<feColorMatrix in="SourceAlpha" type="matrix" values="0 0 0 0 0 0 0 0 0 0 0 0 0 0 0 0 0 0 127 0" result="hardAlpha"/>
<feOffset dx="1.46273" dy="1.46273"/>
<feGaussianBlur stdDeviation="0.731363"/>
<feComposite in2="hardAlpha" operator="arithmetic" k2="-1" k3="1"/>
<feColorMatrix type="matrix" values="0 0 0 0 0 0 0 0 0 0.37028 0 0 0 0 0.74056 0 0 0 0.5 0"/>
<feBlend mode="multiply" in2="shape" result="effect1_innerShadow_6261_28"/>
</filter>
<filter id="filter1_iii_6261_28" x="11.5067" y="56.6971" width="46.1955" height="28.2591" filterUnits="userSpaceOnUse" color-interpolation-filters="sRGB">
<feFlood flood-opacity="0" result="BackgroundImageFix"/>
<feBlend mode="normal" in="SourceGraphic" in2="BackgroundImageFix" result="shape"/>
<feColorMatrix in="SourceAlpha" type="matrix" values="0 0 0 0 0 0 0 0 0 0 0 0 0 0 0 0 0 0 127 0" result="hardAlpha"/>
<feOffset dx="1.08115" dy="1.08115"/>
<feGaussianBlur stdDeviation="1.08115"/>
<feComposite in2="hardAlpha" operator="arithmetic" k2="-1" k3="1"/>
<feColorMatrix type="matrix" values="0 0 0 0 0.534167 0 0 0 0 0.645967 0 0 0 0 0.749167 0 0 0 0.6 0"/>
<feBlend mode="normal" in2="shape" result="effect1_innerShadow_6261_28"/>
<feColorMatrix in="SourceAlpha" type="matrix" values="0 0 0 0 0 0 0 0 0 0 0 0 0 0 0 0 0 0 127 0" result="hardAlpha"/>
<feOffset dx="-1.08115" dy="-2.16229"/>
<feGaussianBlur stdDeviation="1.08115"/>
<feComposite in2="hardAlpha" operator="arithmetic" k2="-1" k3="1"/>
<feColorMatrix type="matrix" values="0 0 0 0 0.533333 0 0 0 0 0.647059 0 0 0 0 0.74902 0 0 0 0.3 0"/>
<feBlend mode="normal" in2="effect1_innerShadow_6261_28" result="effect2_innerShadow_6261_28"/>
<feColorMatrix in="SourceAlpha" type="matrix" values="0 0 0 0 0 0 0 0 0 0 0 0 0 0 0 0 0 0 127 0" result="hardAlpha"/>
<feOffset dx="-1.08115" dy="-2.16229"/>
<feGaussianBlur stdDeviation="1.62172"/>
<feComposite in2="hardAlpha" operator="arithmetic" k2="-1" k3="1"/>
<feColorMatrix type="matrix" values="0 0 0 0 1 0 0 0 0 1 0 0 0 0 1 0 0 0 0.4 0"/>
<feBlend mode="screen" in2="effect2_innerShadow_6261_28" result="effect3_innerShadow_6261_28"/>
</filter>
<filter id="filter2_i_6261_28" x="54.2207" y="3.0293" width="64.5721" height="64.6854" filterUnits="userSpaceOnUse" color-interpolation-filters="sRGB">
<feFlood flood-opacity="0" result="BackgroundImageFix"/>
<feBlend mode="normal" in="SourceGraphic" in2="BackgroundImageFix" result="shape"/>
<feColorMatrix in="SourceAlpha" type="matrix" values="0 0 0 0 0 0 0 0 0 0 0 0 0 0 0 0 0 0 127 0" result="hardAlpha"/>
<feOffset dx="1.46273" dy="1.46273"/>
<feGaussianBlur stdDeviation="0.731363"/>
<feComposite in2="hardAlpha" operator="arithmetic" k2="-1" k3="1"/>
<feColorMatrix type="matrix" values="0 0 0 0 0 0 0 0 0 0.37028 0 0 0 0 0.74056 0 0 0 0.5 0"/>
<feBlend mode="multiply" in2="shape" result="effect1_innerShadow_6261_28"/>
</filter>
<filter id="filter3_iii_6261_28" x="52.8935" y="14.0389" width="63.8264" height="38.9173" filterUnits="userSpaceOnUse" color-interpolation-filters="sRGB">
<feFlood flood-opacity="0" result="BackgroundImageFix"/>
<feBlend mode="normal" in="SourceGraphic" in2="BackgroundImageFix" result="shape"/>
<feColorMatrix in="SourceAlpha" type="matrix" values="0 0 0 0 0 0 0 0 0 0 0 0 0 0 0 0 0 0 127 0" result="hardAlpha"/>
<feOffset dx="1.08115" dy="1.08115"/>
<feGaussianBlur stdDeviation="1.08115"/>
<feComposite in2="hardAlpha" operator="arithmetic" k2="-1" k3="1"/>
<feColorMatrix type="matrix" values="0 0 0 0 0.534167 0 0 0 0 0.645967 0 0 0 0 0.749167 0 0 0 0.6 0"/>
<feBlend mode="normal" in2="shape" result="effect1_innerShadow_6261_28"/>
<feColorMatrix in="SourceAlpha" type="matrix" values="0 0 0 0 0 0 0 0 0 0 0 0 0 0 0 0 0 0 127 0" result="hardAlpha"/>
<feOffset dx="-1.08115" dy="-2.16229"/>
<feGaussianBlur stdDeviation="1.08115"/>
<feComposite in2="hardAlpha" operator="arithmetic" k2="-1" k3="1"/>
<feColorMatrix type="matrix" values="0 0 0 0 0.533333 0 0 0 0 0.647059 0 0 0 0 0.74902 0 0 0 0.3 0"/>
<feBlend mode="normal" in2="effect1_innerShadow_6261_28" result="effect2_innerShadow_6261_28"/>
<feColorMatrix in="SourceAlpha" type="matrix" values="0 0 0 0 0 0 0 0 0 0 0 0 0 0 0 0 0 0 127 0" result="hardAlpha"/>
<feOffset dx="-1.08115" dy="-2.16229"/>
<feGaussianBlur stdDeviation="1.62172"/>
<feComposite in2="hardAlpha" operator="arithmetic" k2="-1" k3="1"/>
<feColorMatrix type="matrix" values="0 0 0 0 1 0 0 0 0 1 0 0 0 0 1 0 0 0 0.4 0"/>
<feBlend mode="screen" in2="effect2_innerShadow_6261_28" result="effect3_innerShadow_6261_28"/>
</filter>
<filter id="filter4_i_6261_28" x="55.6387" y="57.3223" width="68.0936" height="68.0936" filterUnits="userSpaceOnUse" color-interpolation-filters="sRGB">
<feFlood flood-opacity="0" result="BackgroundImageFix"/>
<feBlend mode="normal" in="SourceGraphic" in2="BackgroundImageFix" result="shape"/>
<feColorMatrix in="SourceAlpha" type="matrix" values="0 0 0 0 0 0 0 0 0 0 0 0 0 0 0 0 0 0 127 0" result="hardAlpha"/>
<feOffset dx="1.46273" dy="1.46273"/>
<feGaussianBlur stdDeviation="0.731363"/>
<feComposite in2="hardAlpha" operator="arithmetic" k2="-1" k3="1"/>
<feColorMatrix type="matrix" values="0 0 0 0 0 0 0 0 0 0.37028 0 0 0 0 0.74056 0 0 0 0.5 0"/>
<feBlend mode="multiply" in2="shape" result="effect1_innerShadow_6261_28"/>
</filter>
<filter id="filter5_i_6261_28" x="76.0527" y="84.3711" width="52.1873" height="51.2869" filterUnits="userSpaceOnUse" color-interpolation-filters="sRGB">
<feFlood flood-opacity="0" result="BackgroundImageFix"/>
<feBlend mode="normal" in="SourceGraphic" in2="BackgroundImageFix" result="shape"/>
<feColorMatrix in="SourceAlpha" type="matrix" values="0 0 0 0 0 0 0 0 0 0 0 0 0 0 0 0 0 0 127 0" result="hardAlpha"/>
<feOffset dx="1.46273" dy="1.46273"/>
<feGaussianBlur stdDeviation="0.731363"/>
<feComposite in2="hardAlpha" operator="arithmetic" k2="-1" k3="1"/>
<feColorMatrix type="matrix" values="0 0 0 0 0 0 0 0 0 0.37028 0 0 0 0 0.74056 0 0 0 0.5 0"/>
<feBlend mode="multiply" in2="shape" result="effect1_innerShadow_6261_28"/>
</filter>
<filter id="filter6_iii_6261_28" x="55.6649" y="83.6522" width="15.8303" height="17.3255" filterUnits="userSpaceOnUse" color-interpolation-filters="sRGB">
<feFlood flood-opacity="0" result="BackgroundImageFix"/>
<feBlend mode="normal" in="SourceGraphic" in2="BackgroundImageFix" result="shape"/>
<feColorMatrix in="SourceAlpha" type="matrix" values="0 0 0 0 0 0 0 0 0 0 0 0 0 0 0 0 0 0 127 0" result="hardAlpha"/>
<feOffset dx="1.08115" dy="1.08115"/>
<feGaussianBlur stdDeviation="1.08115"/>
<feComposite in2="hardAlpha" operator="arithmetic" k2="-1" k3="1"/>
<feColorMatrix type="matrix" values="0 0 0 0 0.534167 0 0 0 0 0.645967 0 0 0 0 0.749167 0 0 0 0.6 0"/>
<feBlend mode="normal" in2="shape" result="effect1_innerShadow_6261_28"/>
<feColorMatrix in="SourceAlpha" type="matrix" values="0 0 0 0 0 0 0 0 0 0 0 0 0 0 0 0 0 0 127 0" result="hardAlpha"/>
<feOffset dx="-1.08115" dy="-2.16229"/>
<feGaussianBlur stdDeviation="1.08115"/>
<feComposite in2="hardAlpha" operator="arithmetic" k2="-1" k3="1"/>
<feColorMatrix type="matrix" values="0 0 0 0 0.533333 0 0 0 0 0.647059 0 0 0 0 0.74902 0 0 0 0.3 0"/>
<feBlend mode="normal" in2="effect1_innerShadow_6261_28" result="effect2_innerShadow_6261_28"/>
<feColorMatrix in="SourceAlpha" type="matrix" values="0 0 0 0 0 0 0 0 0 0 0 0 0 0 0 0 0 0 127 0" result="hardAlpha"/>
<feOffset dx="-1.08115" dy="-2.16229"/>
<feGaussianBlur stdDeviation="1.62172"/>
<feComposite in2="hardAlpha" operator="arithmetic" k2="-1" k3="1"/>
<feColorMatrix type="matrix" values="0 0 0 0 1 0 0 0 0 1 0 0 0 0 1 0 0 0 0.4 0"/>
<feBlend mode="screen" in2="effect2_innerShadow_6261_28" result="effect3_innerShadow_6261_28"/>
</filter>
<filter id="filter7_iii_6261_28" x="70.913" y="81.91" width="15.2463" height="17.7122" filterUnits="userSpaceOnUse" color-interpolation-filters="sRGB">
<feFlood flood-opacity="0" result="BackgroundImageFix"/>
<feBlend mode="normal" in="SourceGraphic" in2="BackgroundImageFix" result="shape"/>
<feColorMatrix in="SourceAlpha" type="matrix" values="0 0 0 0 0 0 0 0 0 0 0 0 0 0 0 0 0 0 127 0" result="hardAlpha"/>
<feOffset dx="1.08115" dy="1.08115"/>
<feGaussianBlur stdDeviation="1.08115"/>
<feComposite in2="hardAlpha" operator="arithmetic" k2="-1" k3="1"/>
<feColorMatrix type="matrix" values="0 0 0 0 0.534167 0 0 0 0 0.645967 0 0 0 0 0.749167 0 0 0 0.6 0"/>
<feBlend mode="normal" in2="shape" result="effect1_innerShadow_6261_28"/>
<feColorMatrix in="SourceAlpha" type="matrix" values="0 0 0 0 0 0 0 0 0 0 0 0 0 0 0 0 0 0 127 0" result="hardAlpha"/>
<feOffset dx="-1.08115" dy="-2.16229"/>
<feGaussianBlur stdDeviation="1.08115"/>
<feComposite in2="hardAlpha" operator="arithmetic" k2="-1" k3="1"/>
<feColorMatrix type="matrix" values="0 0 0 0 0.533333 0 0 0 0 0.647059 0 0 0 0 0.74902 0 0 0 0.3 0"/>
<feBlend mode="normal" in2="effect1_innerShadow_6261_28" result="effect2_innerShadow_6261_28"/>
<feColorMatrix in="SourceAlpha" type="matrix" values="0 0 0 0 0 0 0 0 0 0 0 0 0 0 0 0 0 0 127 0" result="hardAlpha"/>
<feOffset dx="-1.08115" dy="-2.16229"/>
<feGaussianBlur stdDeviation="1.62172"/>
<feComposite in2="hardAlpha" operator="arithmetic" k2="-1" k3="1"/>
<feColorMatrix type="matrix" values="0 0 0 0 1 0 0 0 0 1 0 0 0 0 1 0 0 0 0.4 0"/>
<feBlend mode="screen" in2="effect2_innerShadow_6261_28" result="effect3_innerShadow_6261_28"/>
</filter>
<filter id="filter8_iii_6261_28" x="105.38" y="78.701" width="16.0158" height="17.4934" filterUnits="userSpaceOnUse" color-interpolation-filters="sRGB">
<feFlood flood-opacity="0" result="BackgroundImageFix"/>
<feBlend mode="normal" in="SourceGraphic" in2="BackgroundImageFix" result="shape"/>
<feColorMatrix in="SourceAlpha" type="matrix" values="0 0 0 0 0 0 0 0 0 0 0 0 0 0 0 0 0 0 127 0" result="hardAlpha"/>
<feOffset dx="1.08115" dy="1.08115"/>
<feGaussianBlur stdDeviation="1.08115"/>
<feComposite in2="hardAlpha" operator="arithmetic" k2="-1" k3="1"/>
<feColorMatrix type="matrix" values="0 0 0 0 0.534167 0 0 0 0 0.645967 0 0 0 0 0.749167 0 0 0 0.6 0"/>
<feBlend mode="normal" in2="shape" result="effect1_innerShadow_6261_28"/>
<feColorMatrix in="SourceAlpha" type="matrix" values="0 0 0 0 0 0 0 0 0 0 0 0 0 0 0 0 0 0 127 0" result="hardAlpha"/>
<feOffset dx="-1.08115" dy="-2.16229"/>
<feGaussianBlur stdDeviation="1.08115"/>
<feComposite in2="hardAlpha" operator="arithmetic" k2="-1" k3="1"/>
<feColorMatrix type="matrix" values="0 0 0 0 0.533333 0 0 0 0 0.647059 0 0 0 0 0.74902 0 0 0 0.3 0"/>
<feBlend mode="normal" in2="effect1_innerShadow_6261_28" result="effect2_innerShadow_6261_28"/>
<feColorMatrix in="SourceAlpha" type="matrix" values="0 0 0 0 0 0 0 0 0 0 0 0 0 0 0 0 0 0 127 0" result="hardAlpha"/>
<feOffset dx="-1.08115" dy="-2.16229"/>
<feGaussianBlur stdDeviation="1.62172"/>
<feComposite in2="hardAlpha" operator="arithmetic" k2="-1" k3="1"/>
<feColorMatrix type="matrix" values="0 0 0 0 1 0 0 0 0 1 0 0 0 0 1 0 0 0 0.4 0"/>
<feBlend mode="screen" in2="effect2_innerShadow_6261_28" result="effect3_innerShadow_6261_28"/>
</filter>
<filter id="filter9_iii_6261_28" x="84.3349" y="80.5721" width="21.4357" height="17.3509" filterUnits="userSpaceOnUse" color-interpolation-filters="sRGB">
<feFlood flood-opacity="0" result="BackgroundImageFix"/>
<feBlend mode="normal" in="SourceGraphic" in2="BackgroundImageFix" result="shape"/>
<feColorMatrix in="SourceAlpha" type="matrix" values="0 0 0 0 0 0 0 0 0 0 0 0 0 0 0 0 0 0 127 0" result="hardAlpha"/>
<feOffset dx="1.08115" dy="1.08115"/>
<feGaussianBlur stdDeviation="1.08115"/>
<feComposite in2="hardAlpha" operator="arithmetic" k2="-1" k3="1"/>
<feColorMatrix type="matrix" values="0 0 0 0 0.534167 0 0 0 0 0.645967 0 0 0 0 0.749167 0 0 0 0.6 0"/>
<feBlend mode="normal" in2="shape" result="effect1_innerShadow_6261_28"/>
<feColorMatrix in="SourceAlpha" type="matrix" values="0 0 0 0 0 0 0 0 0 0 0 0 0 0 0 0 0 0 127 0" result="hardAlpha"/>
<feOffset dx="-1.08115" dy="-2.16229"/>
<feGaussianBlur stdDeviation="1.08115"/>
<feComposite in2="hardAlpha" operator="arithmetic" k2="-1" k3="1"/>
<feColorMatrix type="matrix" values="0 0 0 0 0.533333 0 0 0 0 0.647059 0 0 0 0 0.74902 0 0 0 0.3 0"/>
<feBlend mode="normal" in2="effect1_innerShadow_6261_28" result="effect2_innerShadow_6261_28"/>
<feColorMatrix in="SourceAlpha" type="matrix" values="0 0 0 0 0 0 0 0 0 0 0 0 0 0 0 0 0 0 127 0" result="hardAlpha"/>
<feOffset dx="-1.08115" dy="-2.16229"/>
<feGaussianBlur stdDeviation="1.62172"/>
<feComposite in2="hardAlpha" operator="arithmetic" k2="-1" k3="1"/>
<feColorMatrix type="matrix" values="0 0 0 0 1 0 0 0 0 1 0 0 0 0 1 0 0 0 0.4 0"/>
<feBlend mode="screen" in2="effect2_innerShadow_6261_28" result="effect3_innerShadow_6261_28"/>
</filter>
<linearGradient id="paint0_linear_6261_28" x1="16.5382" y1="98.5475" x2="53.3312" y2="44.5714" gradientUnits="userSpaceOnUse">
<stop stop-color="#A42C91"/>
<stop offset="1" stop-color="#522A88"/>
</linearGradient>
<linearGradient id="paint1_linear_6261_28" x1="3.14155" y1="47.6002" x2="74.1229" y2="61.2456" gradientUnits="userSpaceOnUse">
<stop stop-color="#0050EC"/>
<stop offset="1" stop-color="#39C7EC"/>
</linearGradient>
<linearGradient id="paint2_linear_6261_28" x1="65.3278" y1="1.85398" x2="124.635" y2="39.2967" gradientUnits="userSpaceOnUse">
<stop stop-color="#0050EC"/>
<stop offset="1" stop-color="#39C7EC"/>
</linearGradient>
<linearGradient id="paint3_linear_6261_28" x1="67.5926" y1="57.0194" x2="129.033" y2="95.2647" gradientUnits="userSpaceOnUse">
<stop stop-color="#0050EC"/>
<stop offset="1" stop-color="#39C7EC"/>
</linearGradient>
<linearGradient id="paint4_linear_6261_28" x1="87.1578" y1="83.1028" x2="139.222" y2="113.922" gradientUnits="userSpaceOnUse">
<stop stop-color="#0050EC"/>
<stop offset="1" stop-color="#39C7EC"/>
</linearGradient>
<clipPath id="clip0_6261_28">
<rect width="58.9738" height="59.0435" fill="white" transform="translate(0.390625 48.1426) rotate(-11.2554)"/>
</clipPath>
<clipPath id="clip1_6261_28">
<rect width="59.0435" height="59.0435" fill="white" transform="translate(61.9863 0.390625) rotate(10.1488)"/>
</clipPath>
<clipPath id="clip2_6261_28">
<rect width="59.0435" height="59.0435" fill="white" transform="translate(64.8086 56.5898) rotate(9.73501)"/>
</clipPath>
</defs>
</svg>
