<svg width="80" height="80" viewBox="0 0 80 80" fill="none" xmlns="http://www.w3.org/2000/svg">
<g opacity="0.5">
<circle cx="40" cy="40" r="40" fill="white"/>
<g clip-path="url(#clip0_6261_1056)">
<path d="M19 27V38.907H30.907V27H19ZM27.3025 35.397C27.0865 35.694 26.776 35.9235 26.4385 36.0585C26.0065 36.2205 25.5475 36.3015 25.0885 36.288H22.402V29.6055H24.913C25.6555 29.6055 26.2225 29.754 26.6275 30.051C27.0325 30.348 27.235 30.78 27.235 31.3335C27.2485 31.6305 27.1675 31.914 27.019 32.157C26.857 32.4 26.641 32.589 26.371 32.7105C26.7355 32.8185 27.046 33.0345 27.2755 33.3315C27.4915 33.6285 27.5995 33.993 27.586 34.371C27.613 34.7355 27.505 35.1 27.3025 35.397ZM25.6015 32.13C25.7905 31.968 25.8985 31.7385 25.885 31.482C25.885 30.9555 25.5205 30.6855 24.805 30.6855H23.779V32.346H24.805C25.1425 32.3595 25.4125 32.2785 25.6015 32.13ZM24.967 33.4125H23.7655V35.2215H24.9535C25.3585 35.2215 25.669 35.1405 25.885 34.992C26.101 34.8435 26.2225 34.6005 26.209 34.3305C26.209 33.7095 25.7905 33.399 24.967 33.4125ZM33.877 27V38.907H45.784V27H33.877ZM42.1795 35.397C41.9635 35.694 41.653 35.9235 41.3155 36.0585C40.8835 36.2205 40.4245 36.3015 39.952 36.288H37.279V29.6055H39.79C40.5325 29.6055 41.0995 29.754 41.518 30.051C41.923 30.348 42.1255 30.78 42.1255 31.3335C42.139 31.6305 42.058 31.914 41.9095 32.157C41.7475 32.4 41.5315 32.589 41.2615 32.7105C41.626 32.8185 41.9365 33.0345 42.166 33.3315C42.382 33.6285 42.49 33.993 42.4765 34.371C42.49 34.7355 42.382 35.1 42.1795 35.397ZM40.4785 32.13C40.6675 31.968 40.7755 31.7385 40.762 31.482C40.762 30.9555 40.3975 30.6855 39.682 30.6855H38.656V32.346H39.682C40.0195 32.3595 40.2895 32.2785 40.4785 32.13ZM39.844 33.4125H38.6425V35.2215H39.8305C40.2355 35.2215 40.546 35.1405 40.762 34.992C40.978 34.8435 41.0995 34.6005 41.086 34.3305C41.086 33.7095 40.681 33.399 39.844 33.4125ZM48.754 38.907H60.661V27H48.754V38.907ZM57.2995 35.8695C57.0025 36.0315 56.665 36.153 56.341 36.234C55.963 36.3285 55.5715 36.369 55.1935 36.369C54.7075 36.3825 54.208 36.3015 53.749 36.1395C53.344 35.991 52.966 35.7615 52.6555 35.4645C52.3585 35.154 52.1155 34.7895 51.9805 34.3845C51.8185 33.9255 51.7375 33.4395 51.7375 32.9535C51.724 32.4675 51.8185 31.995 51.9805 31.5495C52.1425 31.1445 52.372 30.78 52.6825 30.4695C53.0065 30.159 53.3845 29.9295 53.7895 29.781C54.2485 29.619 54.748 29.538 55.234 29.538C55.585 29.538 55.936 29.5785 56.287 29.646C56.611 29.7135 56.9215 29.835 57.205 29.9835V31.293C56.9485 31.1175 56.665 30.996 56.368 30.9015C56.0575 30.807 55.7335 30.7665 55.4095 30.7665C55.0045 30.753 54.5995 30.8475 54.235 31.023C53.911 31.185 53.6545 31.455 53.4925 31.7655C53.3035 32.13 53.2225 32.535 53.236 32.9535C53.2225 33.3585 53.3035 33.777 53.4925 34.1415C53.6545 34.4655 53.911 34.722 54.2215 34.884C54.586 35.0595 54.9775 35.154 55.3825 35.1405C56.0575 35.1405 56.719 34.9515 57.2995 34.6005V35.8695Z" fill="black"/>
<path d="M32.3387 51.9223H37.5362V53.7853H30.0977V43.3633H37.2662V45.2263H32.3387V47.4943H36.7127V49.3573H32.3387V51.9223Z" fill="#EB0000"/>
<path d="M50.224 43.3633H52.627C52.222 45.1183 51.79 46.8733 51.331 48.6283C50.872 50.3563 50.3995 52.0708 49.9 53.7853H47.524C46.8625 51.4498 46.2415 49.0873 45.634 46.7383C45.0535 49.1008 44.4325 51.4498 43.771 53.7853H41.395C40.8955 52.0708 40.423 50.3563 39.964 48.6283C39.505 46.8868 39.073 45.1318 38.668 43.3633H41.1115C41.3545 44.7133 41.611 46.0633 41.881 47.4133C42.151 48.7633 42.4345 50.0863 42.745 51.3958C43.393 48.8713 44.014 46.3468 44.5945 43.8088H46.7815C47.362 46.2928 47.9695 48.7633 48.6175 51.2338C48.9145 49.9378 49.198 48.6283 49.468 47.3323C49.738 46.0093 49.981 44.6863 50.224 43.3633Z" fill="#EB0000"/>
<path d="M61.173 50.72C61.173 51.4085 60.9975 52.0025 60.66 52.4885C60.3225 52.9745 59.823 53.3525 59.1885 53.609C58.5405 53.8655 57.771 54.0005 56.8665 54.0005C56.2995 54.0005 55.719 53.933 55.1655 53.8115C54.5985 53.69 54.0585 53.4875 53.559 53.2175V51.206C54.558 51.827 55.692 52.151 56.8665 52.151C57.528 52.151 58.0275 52.043 58.3785 51.8135C58.7025 51.6245 58.905 51.26 58.8915 50.882C58.8915 50.585 58.8105 50.342 58.635 50.18C58.446 49.991 58.2165 49.856 57.96 49.775C57.6495 49.667 57.339 49.5725 57.015 49.4915C56.502 49.37 55.989 49.2215 55.503 49.019C55.1115 48.8705 54.7335 48.6545 54.396 48.398C54.099 48.1685 53.8695 47.8715 53.7075 47.534C53.5455 47.156 53.4645 46.7375 53.478 46.3325C53.478 45.671 53.64 45.104 53.9775 44.6315C54.342 44.132 54.828 43.754 55.395 43.538C56.0025 43.2815 56.7315 43.1465 57.582 43.1465C58.1355 43.1465 58.6755 43.214 59.2155 43.3355C59.715 43.4435 60.201 43.619 60.66 43.8485V45.833C60.2145 45.563 59.715 45.3605 59.2155 45.2255C58.689 45.077 58.1355 45.0095 57.5955 45.0095C57.0015 45.0095 56.5425 45.1175 56.2185 45.32C55.908 45.4955 55.719 45.833 55.7325 46.1975C55.719 46.4405 55.8 46.67 55.962 46.8455C56.151 47.021 56.3805 47.156 56.6235 47.237C56.907 47.345 57.2445 47.4395 57.636 47.534C58.1355 47.6555 58.5945 47.804 59.013 47.9525C59.418 48.0875 59.796 48.29 60.147 48.533C60.471 48.7625 60.7275 49.073 60.903 49.424C61.0785 49.7615 61.173 50.1935 61.173 50.72Z" fill="#EB0000"/>
<path d="M28.0315 43.3623V53.7843H25.7635C25.0075 52.5693 24.238 51.3543 23.4685 50.1393C22.7125 48.9513 21.943 47.7633 21.1735 46.5888V53.7843H19V43.3623H21.268C22.051 44.5368 22.8205 45.7113 23.59 46.8993C24.3595 48.0873 25.1155 49.2888 25.8715 50.4903V43.3623H28.0315Z" fill="#EB0000"/>
</g>
</g>
<defs>
<clipPath id="clip0_6261_1056">
<rect width="42.174" height="27" fill="white" transform="translate(19 27)"/>
</clipPath>
</defs>
</svg>
