<svg width="120" height="120" viewBox="0 0 120 120" fill="none" xmlns="http://www.w3.org/2000/svg">
<g filter="url(#filter0_i_6261_270)">
<path d="M10.4355 44.3475C10.4355 35.703 17.4433 28.6953 26.0877 28.6953H93.9138C102.558 28.6953 109.566 35.703 109.566 44.3475V78.2605C109.566 86.905 102.558 93.9127 93.9138 93.9127H26.0877C17.4433 93.9127 10.4355 86.905 10.4355 78.2605V44.3475Z" fill="url(#paint0_linear_6261_270)"/>
</g>
<g filter="url(#filter1_i_6261_270)">
<path d="M86.3734 73.0428H80.9891V64.4967L72.2552 50.6602H78.6412L84.1195 60.1454H83.3056L88.8152 50.6602H95.1699L86.3734 64.528V73.0428Z" fill="#DEE7EF"/>
<path d="M70.1279 50.6602V64.2149C70.1279 67.1576 69.241 69.4532 67.4671 71.1019C65.714 72.7297 63.2827 73.5436 60.1731 73.5436C57.0844 73.5436 54.6531 72.7297 52.8792 71.1019C51.1053 69.4532 50.2184 67.1576 50.2184 64.2149V50.6602H55.6027V64.2149C55.6027 65.5506 56.0097 66.6567 56.8236 67.5332C57.6375 68.3889 58.754 68.8167 60.1731 68.8167C61.6131 68.8167 62.7401 68.3889 63.554 67.5332C64.3679 66.6567 64.7749 65.5506 64.7749 64.2149V50.6602H70.1279Z" fill="#DEE7EF"/>
<path d="M29.0664 73.0428V50.6602H38.9586C40.4612 50.6602 41.776 50.9002 42.9029 51.3802C44.0299 51.8602 44.9064 52.5384 45.5325 53.4149C46.1586 54.2706 46.4716 55.2828 46.4716 56.4515C46.4716 57.5575 46.1586 58.5384 45.5325 59.3941C44.9064 60.2497 44.0299 60.9176 42.9029 61.3976C41.776 61.8776 40.4612 62.1176 38.9586 62.1176H34.7638V60.4584H38.9586C40.649 60.4584 42.1203 60.7089 43.3725 61.2097C44.6455 61.6897 45.6368 62.3784 46.3464 63.2758C47.056 64.1732 47.4108 65.2375 47.4108 66.4689C47.4108 67.7836 47.056 68.9419 46.3464 69.9436C45.6368 70.9245 44.6455 71.6862 43.3725 72.2289C42.1203 72.7715 40.649 73.0428 38.9586 73.0428H29.0664ZM34.4508 68.6289H38.9899C39.9081 68.6289 40.6281 68.4097 41.1499 67.9715C41.6925 67.5123 41.9638 66.8862 41.9638 66.0932C41.9638 65.3628 41.6925 64.7889 41.1499 64.3715C40.6281 63.9541 39.9081 63.7454 38.9899 63.7454H34.1377V59.4567H38.5829C39.3551 59.4567 39.9499 59.2584 40.3673 58.8619C40.8055 58.4445 41.0247 57.881 41.0247 57.1715C41.0247 56.5036 40.8055 55.9923 40.3673 55.6375C39.9499 55.2619 39.3551 55.0741 38.5829 55.0741H34.4508V68.6289Z" fill="#DEE7EF"/>
</g>
<g filter="url(#filter2_iii_6261_270)">
<path d="M70.4983 74.6738C73.9255 93.0586 78.1787 104.948 80.3793 110.341C81.146 112.22 83.312 112.948 85.0547 111.908C87.3987 110.509 90.7893 108.317 94.4012 105.423L104.227 118.272C105.497 119.934 107.681 120.559 109.44 119.427C110.904 118.485 112.8 117.051 114.925 114.925C117.051 112.8 118.485 110.904 119.427 109.44C120.559 107.681 119.934 105.497 118.272 104.227L105.423 94.4013C108.317 90.7893 110.509 87.3987 111.908 85.0547C112.948 83.312 112.22 81.146 110.341 80.3793C104.948 78.1787 93.0586 73.9255 74.6738 70.4983C72.1951 70.0363 70.0363 72.1951 70.4983 74.6738Z" fill="#D0E2F3"/>
</g>
<defs>
<filter id="filter0_i_6261_270" x="10.4355" y="28.6953" width="100.484" height="66.5697" filterUnits="userSpaceOnUse" color-interpolation-filters="sRGB">
<feFlood flood-opacity="0" result="BackgroundImageFix"/>
<feBlend mode="normal" in="SourceGraphic" in2="BackgroundImageFix" result="shape"/>
<feColorMatrix in="SourceAlpha" type="matrix" values="0 0 0 0 0 0 0 0 0 0 0 0 0 0 0 0 0 0 127 0" result="hardAlpha"/>
<feOffset dx="1.35294" dy="1.35294"/>
<feGaussianBlur stdDeviation="0.676471"/>
<feComposite in2="hardAlpha" operator="arithmetic" k2="-1" k3="1"/>
<feColorMatrix type="matrix" values="0 0 0 0 0 0 0 0 0 0.37028 0 0 0 0 0.74056 0 0 0 0.5 0"/>
<feBlend mode="multiply" in2="shape" result="effect1_innerShadow_6261_270"/>
</filter>
<filter id="filter1_i_6261_270" x="29.0664" y="50.6602" width="66.6035" height="23.3828" filterUnits="userSpaceOnUse" color-interpolation-filters="sRGB">
<feFlood flood-opacity="0" result="BackgroundImageFix"/>
<feBlend mode="normal" in="SourceGraphic" in2="BackgroundImageFix" result="shape"/>
<feColorMatrix in="SourceAlpha" type="matrix" values="0 0 0 0 0 0 0 0 0 0 0 0 0 0 0 0 0 0 127 0" result="hardAlpha"/>
<feOffset dx="0.5" dy="0.5"/>
<feGaussianBlur stdDeviation="0.25"/>
<feComposite in2="hardAlpha" operator="arithmetic" k2="-1" k3="1"/>
<feColorMatrix type="matrix" values="0 0 0 0 0 0 0 0 0 0.37028 0 0 0 0 0.74056 0 0 0 0.5 0"/>
<feBlend mode="multiply" in2="shape" result="effect1_innerShadow_6261_270"/>
</filter>
<filter id="filter2_iii_6261_270" x="69.4355" y="68.4355" width="51.5645" height="52.5645" filterUnits="userSpaceOnUse" color-interpolation-filters="sRGB">
<feFlood flood-opacity="0" result="BackgroundImageFix"/>
<feBlend mode="normal" in="SourceGraphic" in2="BackgroundImageFix" result="shape"/>
<feColorMatrix in="SourceAlpha" type="matrix" values="0 0 0 0 0 0 0 0 0 0 0 0 0 0 0 0 0 0 127 0" result="hardAlpha"/>
<feOffset dx="1" dy="1"/>
<feGaussianBlur stdDeviation="1"/>
<feComposite in2="hardAlpha" operator="arithmetic" k2="-1" k3="1"/>
<feColorMatrix type="matrix" values="0 0 0 0 0.534167 0 0 0 0 0.645967 0 0 0 0 0.749167 0 0 0 0.6 0"/>
<feBlend mode="normal" in2="shape" result="effect1_innerShadow_6261_270"/>
<feColorMatrix in="SourceAlpha" type="matrix" values="0 0 0 0 0 0 0 0 0 0 0 0 0 0 0 0 0 0 127 0" result="hardAlpha"/>
<feOffset dx="-1" dy="-2"/>
<feGaussianBlur stdDeviation="1"/>
<feComposite in2="hardAlpha" operator="arithmetic" k2="-1" k3="1"/>
<feColorMatrix type="matrix" values="0 0 0 0 0.533333 0 0 0 0 0.647059 0 0 0 0 0.74902 0 0 0 0.3 0"/>
<feBlend mode="normal" in2="effect1_innerShadow_6261_270" result="effect2_innerShadow_6261_270"/>
<feColorMatrix in="SourceAlpha" type="matrix" values="0 0 0 0 0 0 0 0 0 0 0 0 0 0 0 0 0 0 127 0" result="hardAlpha"/>
<feOffset dx="-1" dy="-2"/>
<feGaussianBlur stdDeviation="1.5"/>
<feComposite in2="hardAlpha" operator="arithmetic" k2="-1" k3="1"/>
<feColorMatrix type="matrix" values="0 0 0 0 1 0 0 0 0 1 0 0 0 0 1 0 0 0 0.4 0"/>
<feBlend mode="screen" in2="effect2_innerShadow_6261_270" result="effect3_innerShadow_6261_270"/>
</filter>
<linearGradient id="paint0_linear_6261_270" x1="15.1081" y1="28.6953" x2="109.944" y2="87.4236" gradientUnits="userSpaceOnUse">
<stop stop-color="#0050EC"/>
<stop offset="1" stop-color="#39C7EC"/>
</linearGradient>
</defs>
</svg>
