<svg width="172" height="45" viewBox="0 0 172 45" fill="none" xmlns="http://www.w3.org/2000/svg">
<rect width="171.72" height="44.52" rx="9.54" fill="#2D323D"/>
<path d="M51.8704 27.437C51.1959 27.437 50.5951 27.3211 50.0681 27.0892C49.5441 26.8543 49.1301 26.5321 48.8259 26.1226C48.5248 25.71 48.3697 25.2342 48.3607 24.6952H50.3301C50.3421 24.921 50.4159 25.1198 50.5514 25.2914C50.6899 25.4601 50.8736 25.5911 51.1025 25.6844C51.3314 25.7778 51.5888 25.8244 51.8749 25.8244C52.173 25.8244 52.4365 25.7717 52.6654 25.6663C52.8943 25.5609 53.0734 25.4149 53.2029 25.2282C53.3324 25.0415 53.3972 24.8262 53.3972 24.5823C53.3972 24.3353 53.3279 24.117 53.1894 23.9273C53.0539 23.7346 52.8581 23.584 52.6022 23.4756C52.3492 23.3672 52.0481 23.313 51.6988 23.313H50.836V21.8765H51.6988C51.9939 21.8765 52.2544 21.8254 52.4802 21.723C52.7091 21.6206 52.8867 21.479 53.0132 21.2984C53.1397 21.1147 53.2029 20.9009 53.2029 20.6569C53.2029 20.4251 53.1472 20.2218 53.0358 20.0471C52.9274 19.8695 52.7738 19.7309 52.5751 19.6316C52.3793 19.5322 52.1505 19.4825 51.8885 19.4825C51.6235 19.4825 51.3811 19.5307 51.1612 19.6271C50.9414 19.7204 50.7652 19.8544 50.6327 20.0291C50.5002 20.2037 50.4295 20.4085 50.4204 20.6434H48.5459C48.5549 20.1104 48.707 19.6406 49.0021 19.2341C49.2972 18.8275 49.6947 18.5098 50.1946 18.281C50.6975 18.0491 51.2651 17.9332 51.8975 17.9332C52.5359 17.9332 53.0945 18.0491 53.5733 18.281C54.0521 18.5129 54.424 18.826 54.689 19.2205C54.957 19.612 55.0895 20.0517 55.0865 20.5395C55.0895 21.0575 54.9284 21.4896 54.6032 21.8359C54.281 22.1822 53.8609 22.402 53.343 22.4954V22.5677C54.0235 22.655 54.5415 22.8914 54.8968 23.2768C55.2552 23.6593 55.4328 24.1381 55.4298 24.7132C55.4328 25.2402 55.2808 25.7085 54.9736 26.118C54.6695 26.5276 54.2494 26.8498 53.7134 27.0847C53.1773 27.3196 52.563 27.437 51.8704 27.437ZM58.8323 27.4415C58.3896 27.4415 57.9951 27.3648 57.6488 27.2112C57.3025 27.0546 57.0285 26.8242 56.8267 26.5201C56.628 26.2129 56.5286 25.8305 56.5286 25.3727C56.5286 24.9873 56.5994 24.6636 56.7409 24.4016C56.8824 24.1396 57.0752 23.9288 57.3191 23.7692C57.563 23.6096 57.8401 23.4891 58.1502 23.4078C58.4634 23.3265 58.7916 23.2693 59.1349 23.2362C59.5385 23.194 59.8637 23.1549 60.1106 23.1187C60.3575 23.0796 60.5367 23.0224 60.6481 22.9471C60.7596 22.8718 60.8153 22.7604 60.8153 22.6128V22.5857C60.8153 22.2996 60.7249 22.0783 60.5443 21.9217C60.3666 21.7651 60.1136 21.6868 59.7854 21.6868C59.4391 21.6868 59.1635 21.7636 58.9588 21.9172C58.754 22.0678 58.6185 22.2575 58.5522 22.4863L56.7725 22.3418C56.8629 21.9202 57.0405 21.5558 57.3055 21.2487C57.5705 20.9385 57.9123 20.7006 58.3309 20.535C58.7525 20.3663 59.2403 20.282 59.7944 20.282C60.1799 20.282 60.5488 20.3272 60.9011 20.4175C61.2564 20.5079 61.5711 20.6479 61.8452 20.8376C62.1222 21.0273 62.3405 21.2713 62.5001 21.5694C62.6597 21.8645 62.7395 22.2183 62.7395 22.6309V27.3105H60.9147V26.3484H60.8604C60.749 26.5652 60.6 26.7565 60.4133 26.9221C60.2266 27.0847 60.0022 27.2127 59.7402 27.306C59.4782 27.3964 59.1756 27.4415 58.8323 27.4415ZM59.3834 26.1135C59.6664 26.1135 59.9164 26.0578 60.1332 25.9464C60.35 25.832 60.5202 25.6784 60.6436 25.4857C60.7671 25.2929 60.8288 25.0746 60.8288 24.8307V24.0944C60.7686 24.1336 60.6858 24.1697 60.5804 24.2028C60.478 24.2329 60.3621 24.2615 60.2326 24.2886C60.1031 24.3127 59.9736 24.3353 59.8441 24.3564C59.7146 24.3745 59.5972 24.391 59.4918 24.4061C59.2659 24.4392 59.0687 24.4919 58.9001 24.5642C58.7314 24.6365 58.6004 24.7343 58.5071 24.8578C58.4137 24.9782 58.367 25.1288 58.367 25.3095C58.367 25.5715 58.4619 25.7717 58.6516 25.9103C58.8443 26.0458 59.0883 26.1135 59.3834 26.1135ZM64.2324 27.3105V20.3724H66.1567V23.0645H66.6987L68.5868 20.3724H70.8454L68.3926 23.8144L70.8725 27.3105H68.5868L66.8749 24.8488H66.1567V27.3105H64.2324ZM73.664 27.4415C73.2213 27.4415 72.8268 27.3648 72.4805 27.2112C72.1342 27.0546 71.8602 26.8242 71.6584 26.5201C71.4597 26.2129 71.3603 25.8305 71.3603 25.3727C71.3603 24.9873 71.4311 24.6636 71.5726 24.4016C71.7141 24.1396 71.9069 23.9288 72.1508 23.7692C72.3947 23.6096 72.6718 23.4891 72.9819 23.4078C73.2951 23.3265 73.6234 23.2693 73.9666 23.2362C74.3702 23.194 74.6954 23.1549 74.9423 23.1187C75.1893 23.0796 75.3684 23.0224 75.4799 22.9471C75.5913 22.8718 75.647 22.7604 75.647 22.6128V22.5857C75.647 22.2996 75.5566 22.0783 75.376 21.9217C75.1983 21.7651 74.9453 21.6868 74.6171 21.6868C74.2708 21.6868 73.9953 21.7636 73.7905 21.9172C73.5857 22.0678 73.4502 22.2575 73.3839 22.4863L71.6042 22.3418C71.6946 21.9202 71.8722 21.5558 72.1372 21.2487C72.4022 20.9385 72.744 20.7006 73.1626 20.535C73.5842 20.3663 74.072 20.282 74.6261 20.282C75.0116 20.282 75.3805 20.3272 75.7328 20.4175C76.0882 20.5079 76.4028 20.6479 76.6769 20.8376C76.9539 21.0273 77.1722 21.2713 77.3318 21.5694C77.4914 21.8645 77.5712 22.2183 77.5712 22.6309V27.3105H75.7464V26.3484H75.6922C75.5807 26.5652 75.4317 26.7565 75.245 26.9221C75.0583 27.0847 74.8339 27.2127 74.5719 27.306C74.3099 27.3964 74.0073 27.4415 73.664 27.4415ZM74.2151 26.1135C74.4982 26.1135 74.7481 26.0578 74.9649 25.9464C75.1817 25.832 75.3519 25.6784 75.4753 25.4857C75.5988 25.2929 75.6605 25.0746 75.6605 24.8307V24.0944C75.6003 24.1336 75.5175 24.1697 75.4121 24.2028C75.3097 24.2329 75.1938 24.2615 75.0643 24.2886C74.9348 24.3127 74.8053 24.3353 74.6758 24.3564C74.5463 24.3745 74.4289 24.391 74.3235 24.4061C74.0976 24.4392 73.9004 24.4919 73.7318 24.5642C73.5631 24.6365 73.4321 24.7343 73.3388 24.8578C73.2454 24.9782 73.1987 25.1288 73.1987 25.3095C73.1987 25.5715 73.2936 25.7717 73.4833 25.9103C73.6761 26.0458 73.92 26.1135 74.2151 26.1135ZM78.7073 25.3456H80.5728C80.5819 25.5745 80.6842 25.7552 80.88 25.8877C81.0757 26.0202 81.3287 26.0864 81.6388 26.0864C81.952 26.0864 82.2155 26.0142 82.4293 25.8696C82.6431 25.7221 82.75 25.5113 82.75 25.2372C82.75 25.0686 82.7079 24.9225 82.6236 24.7991C82.5392 24.6726 82.4218 24.5732 82.2712 24.5009C82.1207 24.4287 81.946 24.3925 81.7473 24.3925H80.749V23.1323H81.7473C82.0454 23.1323 82.2742 23.063 82.4338 22.9245C82.5965 22.786 82.6778 22.6128 82.6778 22.405C82.6778 22.1702 82.5934 21.9819 82.4248 21.8404C82.2592 21.6959 82.0348 21.6236 81.7518 21.6236C81.4657 21.6236 81.2278 21.6883 81.0381 21.8178C80.8514 21.9443 80.755 22.1099 80.749 22.3147H78.8925C78.8985 21.8991 79.0235 21.5393 79.2674 21.2351C79.5143 20.931 79.8456 20.6961 80.2611 20.5305C80.6797 20.3648 81.148 20.282 81.6659 20.282C82.2321 20.282 82.7199 20.3618 83.1295 20.5214C83.542 20.678 83.8582 20.9024 84.078 21.1945C84.3009 21.4866 84.4123 21.8344 84.4123 22.2379C84.4123 22.6053 84.2919 22.9125 84.0509 23.1594C83.81 23.4063 83.4728 23.5825 83.0391 23.6879V23.7602C83.3252 23.7782 83.5842 23.855 83.8161 23.9905C84.0479 24.126 84.2331 24.3127 84.3717 24.5506C84.5102 24.7855 84.5794 25.0641 84.5794 25.3863C84.5794 25.8169 84.453 26.1858 84.2 26.493C83.9501 26.8001 83.6038 27.0365 83.1611 27.2021C82.7214 27.3648 82.217 27.4461 81.6479 27.4461C81.0938 27.4461 80.5969 27.3663 80.1573 27.2067C79.7206 27.044 79.3728 26.8061 79.1138 26.493C78.8579 26.1798 78.7223 25.7973 78.7073 25.3456ZM86.9656 22.5044H89.0389C89.9574 22.5044 90.6741 22.7242 91.189 23.1639C91.7039 23.6005 91.9614 24.1848 91.9614 24.9165C91.9614 25.3923 91.8455 25.8109 91.6136 26.1723C91.3817 26.5306 91.0475 26.8107 90.6108 27.0124C90.1742 27.2112 89.6502 27.3105 89.0389 27.3105H85.7595V20.3724H87.598V25.7973H89.0389C89.3611 25.7973 89.6261 25.716 89.8339 25.5534C90.0417 25.3908 90.1471 25.183 90.1501 24.9301C90.1471 24.6621 90.0417 24.4437 89.8339 24.2751C89.6261 24.1034 89.3611 24.0176 89.0389 24.0176H86.9656V22.5044ZM92.7067 27.3105V20.3724H94.631V27.3105H92.7067Z" fill="white"/>
<path fill-rule="evenodd" clip-rule="evenodd" d="M29.4259 30.2112H22.7894C20.3516 30.2112 18.4814 29.3307 19.0127 25.7868L19.6312 20.9841C19.9587 19.2158 21.0866 18.5391 22.0762 18.5391H30.1681C31.1723 18.5391 32.2348 19.2668 32.6132 20.9841L33.2317 25.7868C33.6829 28.9305 31.8636 30.2112 29.4259 30.2112Z" stroke="white" stroke-width="1.1925" stroke-linecap="round" stroke-linejoin="round"/>
<path d="M29.5343 18.3644C29.5343 16.4675 27.9966 14.9297 26.0996 14.9297V14.9297C25.1862 14.9258 24.3088 15.286 23.6615 15.9306C23.0142 16.5751 22.6504 17.4509 22.6504 18.3644V18.3644" stroke="white" stroke-width="1.1925" stroke-linecap="round" stroke-linejoin="round"/>
<path d="M28.4602 21.9439H28.4238" stroke="white" stroke-width="1.1925" stroke-linecap="round" stroke-linejoin="round"/>
<path d="M23.8215 21.9439H23.7851" stroke="white" stroke-width="1.1925" stroke-linecap="round" stroke-linejoin="round"/>
<path d="M144.689 19.0801L147.869 22.2601L144.689 25.4401" stroke="white" stroke-width="1.59" stroke-linecap="round" stroke-linejoin="round"/>
</svg>
