<svg width="355" height="67" viewBox="0 0 355 67" fill="none" xmlns="http://www.w3.org/2000/svg">
<rect width="355" height="67" rx="20" fill="white"/>
<mask id="mask0_745_4356" style="mask-type:luminance" maskUnits="userSpaceOnUse" x="0" y="0" width="348" height="67">
<rect width="348" height="67" rx="20" fill="white"/>
</mask>
<g mask="url(#mask0_745_4356)">
<path opacity="0.1" fill-rule="evenodd" clip-rule="evenodd" d="M33 52C42.9411 52 51 43.9411 51 34C51 24.0589 42.9411 16 33 16C23.0589 16 15 24.0589 15 34C15 43.9411 23.0589 52 33 52Z" stroke="#0056FE" stroke-width="1.54286"/>
<path fill-rule="evenodd" clip-rule="evenodd" d="M38.1522 29.7674C39.0989 30.9185 39.6673 32.3925 39.6673 33.9993C39.6673 37.6812 36.6826 40.6659 33.0007 40.6659C29.3188 40.6659 26.334 37.6812 26.334 33.9993C26.334 30.3174 29.3188 27.3326 33.0007 27.3326C34.5956 27.3326 36.0597 27.8927 37.2071 28.8269L37.5743 28.4597L37.7488 27.5301C37.8167 27.1682 38.1652 26.93 38.527 26.9979C38.8889 27.0658 39.1272 27.4143 39.0592 27.7761L39.0212 27.9787L39.2238 27.9407C39.5857 27.8728 39.9341 28.111 40.0021 28.4729C40.07 28.8348 39.8317 29.1832 39.4698 29.2511L38.4832 29.4364L38.1522 29.7674ZM36.258 29.7759C35.3571 29.08 34.2272 28.6659 33.0007 28.6659C30.0551 28.6659 27.6673 31.0537 27.6673 33.9993C27.6673 36.9448 30.0551 39.3326 33.0007 39.3326C35.9462 39.3326 38.334 36.9448 38.334 33.9993C38.334 32.7609 37.9119 31.6211 37.2038 30.7158L36.2515 31.6681C36.723 32.3244 37.0007 33.1294 37.0007 33.9993C37.0007 36.2084 35.2098 37.9993 33.0007 37.9993C30.7915 37.9993 29.0007 36.2084 29.0007 33.9993C29.0007 31.7901 30.7915 29.9993 33.0007 29.9993C33.8586 29.9993 34.6534 30.2694 35.3048 30.7292L36.258 29.7759ZM34.3407 31.6933C33.947 31.4639 33.4891 31.3326 33.0007 31.3326C31.5279 31.3326 30.334 32.5265 30.334 33.9993C30.334 35.472 31.5279 36.6659 33.0007 36.6659C34.4734 36.6659 35.6673 35.472 35.6673 33.9993C35.6673 33.4987 35.5294 33.0303 35.2895 32.6301L34.2838 33.6358C34.3165 33.7513 34.334 33.8732 34.334 33.9993C34.334 34.7356 33.737 35.3326 33.0007 35.3326C32.2643 35.3326 31.6673 34.7356 31.6673 33.9993C31.6673 33.2629 32.2643 32.6659 33.0007 32.6659C33.1135 32.6659 33.223 32.6799 33.3277 32.7063L34.3407 31.6933Z" fill="#0056FE"/>
<path d="M15 34C15 43.9411 23.0589 52 33 52V52C42.9411 52 51 43.9411 51 34C51 24.0589 42.9411 16 33 16" stroke="#0056FE" stroke-width="1.54286" stroke-linecap="round" stroke-linejoin="round"/>
<path d="M57.2777 30L61.608 21.429V21.3594H56.5817V19.8182H63.517V21.3942L59.1918 30H57.2777ZM68.6247 30.1392C67.9618 30.1392 67.3685 30.0149 66.8449 29.7663C66.3212 29.5144 65.9052 29.1697 65.597 28.7322C65.2921 28.2947 65.1297 27.7943 65.1098 27.2308H66.8995C66.9327 27.6484 67.1133 27.9898 67.4414 28.255C67.7696 28.5168 68.164 28.6477 68.6247 28.6477C68.9859 28.6477 69.3074 28.5649 69.5892 28.3991C69.8709 28.2334 70.093 28.0031 70.2554 27.7081C70.4178 27.4131 70.4973 27.0767 70.494 26.6989C70.4973 26.3144 70.4161 25.973 70.2504 25.6747C70.0847 25.3764 69.8576 25.1428 69.5693 24.9737C69.2809 24.8014 68.9495 24.7152 68.575 24.7152C68.27 24.7119 67.9701 24.7682 67.6751 24.8842C67.3801 25.0002 67.1465 25.1527 66.9741 25.3416L65.3086 25.0682L65.8406 19.8182H71.7468V21.3594H67.3669L67.0735 24.0589H67.1332C67.3221 23.8369 67.5889 23.6529 67.9336 23.5071C68.2783 23.358 68.6562 23.2834 69.0672 23.2834C69.6836 23.2834 70.2338 23.4292 70.7177 23.7209C71.2016 24.0092 71.5828 24.407 71.8612 24.9141C72.1396 25.4212 72.2788 26.0012 72.2788 26.6541C72.2788 27.3269 72.123 27.9268 71.8115 28.4538C71.5032 28.9775 71.074 29.3902 70.5238 29.6918C69.977 29.9901 69.3439 30.1392 68.6247 30.1392ZM79.4882 28.0909V27.554C79.4882 27.1596 79.571 26.7966 79.7368 26.4652C79.9058 26.1338 80.1511 25.867 80.4726 25.6648C80.794 25.4626 81.1835 25.3615 81.6409 25.3615C82.1115 25.3615 82.5059 25.4626 82.8241 25.6648C83.1423 25.8636 83.3826 26.1288 83.545 26.4602C83.7107 26.7917 83.7936 27.1562 83.7936 27.554V28.0909C83.7936 28.4853 83.7107 28.8482 83.545 29.1797C83.3793 29.5111 83.1357 29.7779 82.8142 29.9801C82.496 30.1823 82.1049 30.2834 81.6409 30.2834C81.1769 30.2834 80.7841 30.1823 80.4626 29.9801C80.1411 29.7779 79.8975 29.5111 79.7318 29.1797C79.5694 28.8482 79.4882 28.4853 79.4882 28.0909ZM80.7858 27.554V28.0909C80.7858 28.3527 80.8487 28.593 80.9747 28.8118C81.1006 29.0305 81.3227 29.1399 81.6409 29.1399C81.9624 29.1399 82.1828 29.0322 82.3021 28.8168C82.4247 28.598 82.486 28.3561 82.486 28.0909V27.554C82.486 27.2888 82.428 27.0469 82.312 26.8281C82.196 26.6061 81.9723 26.495 81.6409 26.495C81.3293 26.495 81.1089 26.6061 80.9797 26.8281C80.8504 27.0469 80.7858 27.2888 80.7858 27.554ZM74.3127 22.2642V21.7273C74.3127 21.3295 74.3973 20.965 74.5663 20.6335C74.7353 20.3021 74.9806 20.0369 75.3021 19.8381C75.6236 19.6359 76.013 19.5348 76.4704 19.5348C76.9377 19.5348 77.3305 19.6359 77.6487 19.8381C77.9702 20.0369 78.2121 20.3021 78.3745 20.6335C78.5369 20.965 78.6181 21.3295 78.6181 21.7273V22.2642C78.6181 22.6619 78.5353 23.0265 78.3696 23.358C78.2072 23.6861 77.9652 23.9496 77.6437 24.1484C77.3222 24.3473 76.9311 24.4467 76.4704 24.4467C76.0031 24.4467 75.6087 24.3473 75.2872 24.1484C74.969 23.9496 74.727 23.6844 74.5613 23.353C74.3956 23.0215 74.3127 22.6586 74.3127 22.2642ZM75.6203 21.7273V22.2642C75.6203 22.5294 75.6816 22.7713 75.8042 22.9901C75.9302 23.2055 76.1522 23.3132 76.4704 23.3132C76.7886 23.3132 77.0074 23.2055 77.1267 22.9901C77.2493 22.7713 77.3106 22.5294 77.3106 22.2642V21.7273C77.3106 21.4621 77.2526 21.2202 77.1366 21.0014C77.0206 20.7794 76.7985 20.6683 76.4704 20.6683C76.1556 20.6683 75.9351 20.7794 75.8092 21.0014C75.6833 21.2235 75.6203 21.4654 75.6203 21.7273ZM74.8795 30L81.8795 19.8182H83.1224L76.1224 30H74.8795Z" fill="#202021"/>
<path d="M56.9688 50V42H59.6719C60.2995 42 60.8125 42.1133 61.2109 42.3398C61.612 42.5638 61.9089 42.8672 62.1016 43.25C62.2943 43.6328 62.3906 44.0599 62.3906 44.5312C62.3906 45.0026 62.2943 45.431 62.1016 45.8164C61.9115 46.2018 61.6172 46.5091 61.2188 46.7383C60.8203 46.9648 60.3099 47.0781 59.6875 47.0781H57.75V46.2188H59.6563C60.0859 46.2188 60.431 46.1445 60.6914 45.9961C60.9518 45.8477 61.1406 45.6471 61.2578 45.3945C61.3776 45.1393 61.4375 44.8516 61.4375 44.5312C61.4375 44.2109 61.3776 43.9245 61.2578 43.6719C61.1406 43.4193 60.9505 43.2214 60.6875 43.0781C60.4245 42.9323 60.0755 42.8594 59.6406 42.8594H57.9375V50H56.9688ZM66.2778 50.125C65.7361 50.125 65.2609 49.9961 64.852 49.7383C64.4458 49.4805 64.1281 49.1198 63.8989 48.6562C63.6723 48.1927 63.559 47.651 63.559 47.0312C63.559 46.4062 63.6723 45.8607 63.8989 45.3945C64.1281 44.9284 64.4458 44.5664 64.852 44.3086C65.2609 44.0508 65.7361 43.9219 66.2778 43.9219C66.8195 43.9219 67.2934 44.0508 67.6997 44.3086C68.1085 44.5664 68.4262 44.9284 68.6528 45.3945C68.882 45.8607 68.9965 46.4062 68.9965 47.0312C68.9965 47.651 68.882 48.1927 68.6528 48.6562C68.4262 49.1198 68.1085 49.4805 67.6997 49.7383C67.2934 49.9961 66.8195 50.125 66.2778 50.125ZM66.2778 49.2969C66.6892 49.2969 67.0278 49.1914 67.2934 48.9805C67.559 48.7695 67.7557 48.4922 67.8833 48.1484C68.0109 47.8047 68.0747 47.4323 68.0747 47.0312C68.0747 46.6302 68.0109 46.2565 67.8833 45.9102C67.7557 45.5638 67.559 45.2839 67.2934 45.0703C67.0278 44.8568 66.6892 44.75 66.2778 44.75C65.8663 44.75 65.5278 44.8568 65.2622 45.0703C64.9965 45.2839 64.7999 45.5638 64.6723 45.9102C64.5447 46.2565 64.4809 46.6302 64.4809 47.0312C64.4809 47.4323 64.5447 47.8047 64.6723 48.1484C64.7999 48.4922 64.9965 48.7695 65.2622 48.9805C65.5278 49.1914 65.8663 49.2969 66.2778 49.2969ZM72.9198 50.125C72.3573 50.125 71.873 49.9922 71.4667 49.7266C71.0605 49.4609 70.748 49.0951 70.5292 48.6289C70.3105 48.1628 70.2011 47.6302 70.2011 47.0312C70.2011 46.4219 70.3131 45.8841 70.537 45.418C70.7636 44.9492 71.0787 44.5833 71.4823 44.3203C71.8886 44.0547 72.3625 43.9219 72.9042 43.9219C73.3261 43.9219 73.7063 44 74.0448 44.1562C74.3834 44.3125 74.6607 44.5312 74.8769 44.8125C75.093 45.0937 75.2271 45.4219 75.2792 45.7969H74.3573C74.287 45.5234 74.1308 45.2812 73.8886 45.0703C73.649 44.8568 73.3261 44.75 72.9198 44.75C72.5605 44.75 72.2454 44.8437 71.9745 45.0312C71.7063 45.2161 71.4967 45.4779 71.3456 45.8164C71.1972 46.1523 71.123 46.5469 71.123 47C71.123 47.4635 71.1959 47.8672 71.3417 48.2109C71.4902 48.5547 71.6985 48.8216 71.9667 49.0117C72.2375 49.2018 72.5553 49.2969 72.9198 49.2969C73.1594 49.2969 73.3769 49.2552 73.5722 49.1719C73.7675 49.0885 73.9329 48.9688 74.0683 48.8125C74.2037 48.6562 74.3 48.4687 74.3573 48.25H75.2792C75.2271 48.6042 75.0982 48.9232 74.8925 49.207C74.6894 49.4883 74.4198 49.7122 74.0839 49.8789C73.7506 50.043 73.3625 50.125 72.9198 50.125ZM76.2328 44.8594V44H81.1078V44.8594H79.139V50H78.2172V44.8594H76.2328ZM90.4222 44V49.1406H91.2659V51.9375H90.344V50H85.7034V44H86.6253V49.1406H89.5003V44H90.4222ZM95.2156 50.125C94.6374 50.125 94.1387 49.9974 93.7195 49.7422C93.3028 49.4844 92.9812 49.125 92.7546 48.6641C92.5307 48.2005 92.4187 47.6615 92.4187 47.0469C92.4187 46.4323 92.5307 45.8906 92.7546 45.4219C92.9812 44.9505 93.2963 44.5833 93.6999 44.3203C94.1062 44.0547 94.5802 43.9219 95.1218 43.9219C95.4343 43.9219 95.7429 43.974 96.0476 44.0781C96.3523 44.1823 96.6296 44.3516 96.8796 44.5859C97.1296 44.8177 97.3289 45.125 97.4773 45.5078C97.6257 45.8906 97.6999 46.362 97.6999 46.9219V47.3125H93.0749V46.5156H96.7624C96.7624 46.1771 96.6947 45.875 96.5593 45.6094C96.4265 45.3437 96.2364 45.1341 95.989 44.9805C95.7442 44.8268 95.4552 44.75 95.1218 44.75C94.7546 44.75 94.4369 44.8411 94.1687 45.0234C93.9031 45.2031 93.6986 45.4375 93.5554 45.7266C93.4122 46.0156 93.3406 46.3255 93.3406 46.6562V47.1875C93.3406 47.6406 93.4187 48.0247 93.5749 48.3398C93.7338 48.6523 93.9538 48.8906 94.2351 49.0547C94.5164 49.2161 94.8432 49.2969 95.2156 49.2969C95.4578 49.2969 95.6765 49.263 95.8718 49.1953C96.0697 49.125 96.2403 49.0208 96.3835 48.8828C96.5268 48.7422 96.6374 48.5677 96.7156 48.3594L97.6062 48.6094C97.5124 48.9115 97.3549 49.1771 97.1335 49.4062C96.9122 49.6328 96.6387 49.8099 96.3132 49.9375C95.9877 50.0625 95.6218 50.125 95.2156 50.125ZM98.6496 50V49.1406H98.8684C99.048 49.1406 99.1978 49.1055 99.3176 49.0352C99.4374 48.9622 99.5337 48.8359 99.6066 48.6562C99.6822 48.474 99.7395 48.2214 99.7785 47.8984C99.8202 47.5729 99.8501 47.1589 99.8684 46.6562L99.9777 44H103.978V50H103.056V44.8594H100.853L100.759 47C100.738 47.4922 100.694 47.9258 100.626 48.3008C100.561 48.6732 100.461 48.9857 100.325 49.2383C100.193 49.4909 100.015 49.681 99.7941 49.8086C99.5728 49.9362 99.2954 50 98.9621 50H98.6496ZM108.263 50.125C107.685 50.125 107.187 49.9974 106.767 49.7422C106.351 49.4844 106.029 49.125 105.802 48.6641C105.578 48.2005 105.466 47.6615 105.466 47.0469C105.466 46.4323 105.578 45.8906 105.802 45.4219C106.029 44.9505 106.344 44.5833 106.748 44.3203C107.154 44.0547 107.628 43.9219 108.17 43.9219C108.482 43.9219 108.791 43.974 109.095 44.0781C109.4 44.1823 109.677 44.3516 109.927 44.5859C110.177 44.8177 110.377 45.125 110.525 45.5078C110.673 45.8906 110.748 46.362 110.748 46.9219V47.3125H106.123V46.5156H109.81C109.81 46.1771 109.743 45.875 109.607 45.6094C109.474 45.3437 109.284 45.1341 109.037 44.9805C108.792 44.8268 108.503 44.75 108.17 44.75C107.802 44.75 107.485 44.8411 107.216 45.0234C106.951 45.2031 106.746 45.4375 106.603 45.7266C106.46 46.0156 106.388 46.3255 106.388 46.6562V47.1875C106.388 47.6406 106.466 48.0247 106.623 48.3398C106.782 48.6523 107.002 48.8906 107.283 49.0547C107.564 49.2161 107.891 49.2969 108.263 49.2969C108.506 49.2969 108.724 49.263 108.92 49.1953C109.118 49.125 109.288 49.0208 109.431 48.8828C109.575 48.7422 109.685 48.5677 109.763 48.3594L110.654 48.6094C110.56 48.9115 110.403 49.1771 110.181 49.4062C109.96 49.6328 109.687 49.8099 109.361 49.9375C109.035 50.0625 108.67 50.125 108.263 50.125ZM112.229 50V44H114.682C115.328 44 115.841 44.1458 116.221 44.4375C116.601 44.7292 116.791 45.1146 116.791 45.5937C116.791 45.9583 116.683 46.2409 116.467 46.4414C116.251 46.6393 115.973 46.7734 115.635 46.8438C115.856 46.875 116.071 46.9531 116.279 47.0781C116.49 47.2031 116.665 47.375 116.803 47.5938C116.941 47.8099 117.01 48.0755 117.01 48.3906C117.01 48.6979 116.932 48.9727 116.776 49.2148C116.619 49.457 116.395 49.6484 116.104 49.7891C115.812 49.9297 115.463 50 115.057 50H112.229ZM113.104 49.1562H115.057C115.374 49.1562 115.623 49.0807 115.803 48.9297C115.983 48.7786 116.072 48.5729 116.072 48.3125C116.072 48.0026 115.983 47.7591 115.803 47.582C115.623 47.4023 115.374 47.3125 115.057 47.3125H113.104V49.1562ZM113.104 46.5156H114.682C114.929 46.5156 115.141 46.4818 115.318 46.4141C115.496 46.3437 115.631 46.2448 115.725 46.1172C115.821 45.987 115.869 45.8333 115.869 45.6562C115.869 45.4036 115.764 45.2057 115.553 45.0625C115.342 44.9167 115.052 44.8438 114.682 44.8438H113.104V46.5156ZM119.281 46.1719H121C121.703 46.1719 122.24 46.3503 122.613 46.707C122.985 47.0638 123.171 47.5156 123.171 48.0625C123.171 48.4219 123.088 48.7487 122.921 49.043C122.755 49.3346 122.51 49.5677 122.187 49.7422C121.864 49.9141 121.468 50 121 50H118.484V44H119.406V49.1406H121C121.364 49.1406 121.664 49.0443 121.898 48.8516C122.132 48.6589 122.25 48.4115 122.25 48.1094C122.25 47.7917 122.132 47.5326 121.898 47.332C121.664 47.1315 121.364 47.0312 121 47.0312H119.281V46.1719ZM124.125 50V44H125.046V50H124.125ZM127.5 44L128.938 46.4531L130.375 44H131.438L129.5 47L131.438 50H130.375L128.938 47.6719L127.5 50H126.438L128.344 47L126.438 44H127.5ZM135.629 48.4687H136.613C136.634 48.7396 136.756 48.9453 136.98 49.0859C137.207 49.2266 137.501 49.2969 137.863 49.2969C138.233 49.2969 138.549 49.2214 138.812 49.0703C139.075 48.9167 139.207 48.6693 139.207 48.3281C139.207 48.1276 139.157 47.9531 139.059 47.8047C138.96 47.6536 138.82 47.5365 138.641 47.4531C138.461 47.3698 138.249 47.3281 138.004 47.3281H136.973V46.5H138.004C138.371 46.5 138.642 46.4167 138.816 46.25C138.993 46.0833 139.082 45.875 139.082 45.625C139.082 45.3568 138.987 45.1419 138.797 44.9805C138.607 44.8164 138.337 44.7344 137.988 44.7344C137.637 44.7344 137.344 44.8138 137.109 44.9727C136.875 45.1289 136.751 45.3307 136.738 45.5781H135.769C135.78 45.2552 135.879 44.9701 136.066 44.7227C136.254 44.4727 136.509 44.2773 136.832 44.1367C137.155 43.9935 137.525 43.9219 137.941 43.9219C138.363 43.9219 138.729 43.9961 139.039 44.1445C139.352 44.2904 139.592 44.4896 139.762 44.7422C139.934 44.9922 140.019 45.276 140.019 45.5937C140.019 45.9323 139.924 46.2057 139.734 46.4141C139.544 46.6224 139.306 46.7708 139.019 46.8594V46.9219C139.246 46.9375 139.443 47.0104 139.609 47.1406C139.779 47.2682 139.91 47.4362 140.004 47.6445C140.098 47.8503 140.144 48.0781 140.144 48.3281C140.144 48.6927 140.047 49.0104 139.852 49.2812C139.656 49.5495 139.388 49.7578 139.047 49.9062C138.706 50.0521 138.316 50.125 137.879 50.125C137.454 50.125 137.074 50.056 136.738 49.918C136.402 49.7773 136.135 49.5833 135.937 49.3359C135.742 49.0859 135.639 48.7969 135.629 48.4687ZM145.534 46.5781V47.4375H142.221V46.5781H145.534ZM142.44 44V50H141.518V44H142.44ZM146.237 44V50H145.315V44H146.237ZM149.765 50.1406C149.384 50.1406 149.039 50.069 148.729 49.9258C148.419 49.7799 148.173 49.5703 147.991 49.2969C147.809 49.0208 147.718 48.6875 147.718 48.2969C147.718 47.9531 147.785 47.6745 147.921 47.4609C148.056 47.2448 148.237 47.0755 148.464 46.9531C148.69 46.8307 148.94 46.7396 149.214 46.6797C149.49 46.6172 149.767 46.5677 150.046 46.5313C150.41 46.4844 150.706 46.4492 150.932 46.4258C151.162 46.3997 151.328 46.3568 151.432 46.2969C151.539 46.237 151.593 46.1328 151.593 45.9844V45.9531C151.593 45.5677 151.487 45.2682 151.276 45.0547C151.068 44.8411 150.751 44.7344 150.327 44.7344C149.887 44.7344 149.542 44.8307 149.292 45.0234C149.042 45.2161 148.866 45.4219 148.765 45.6406L147.89 45.3281C148.046 44.9635 148.254 44.6797 148.515 44.4766C148.778 44.2708 149.064 44.1276 149.374 44.0469C149.686 43.9635 149.994 43.9219 150.296 43.9219C150.488 43.9219 150.71 43.9453 150.96 43.9922C151.212 44.0365 151.456 44.1289 151.69 44.2695C151.927 44.4102 152.124 44.6224 152.28 44.9062C152.436 45.1901 152.515 45.5703 152.515 46.0469V50H151.593V49.1875H151.546C151.483 49.3177 151.379 49.457 151.233 49.6055C151.087 49.7539 150.893 49.8802 150.651 49.9844C150.409 50.0885 150.113 50.1406 149.765 50.1406ZM149.905 49.3125C150.27 49.3125 150.577 49.2409 150.827 49.0977C151.08 48.9544 151.27 48.7695 151.397 48.543C151.528 48.3164 151.593 48.0781 151.593 47.8281V46.9844C151.554 47.0312 151.468 47.0742 151.335 47.1133C151.205 47.1497 151.054 47.1823 150.882 47.2109C150.712 47.237 150.547 47.2604 150.386 47.2812C150.227 47.2995 150.098 47.3151 149.999 47.3281C149.759 47.3594 149.535 47.4102 149.327 47.4805C149.121 47.5482 148.955 47.651 148.827 47.7891C148.702 47.9245 148.64 48.1094 148.64 48.3437C148.64 48.6641 148.758 48.9062 148.995 49.0703C149.235 49.2318 149.538 49.3125 149.905 49.3125ZM158.901 44V50H157.979V44H158.901ZM158.541 46.8594V47.7187C158.333 47.7969 158.126 47.8659 157.92 47.9258C157.714 47.9831 157.498 48.0286 157.272 48.0625C157.045 48.0937 156.797 48.1094 156.526 48.1094C155.846 48.1094 155.3 47.9258 154.889 47.5586C154.48 47.1914 154.276 46.6406 154.276 45.9062V43.9844H155.198V45.9062C155.198 46.2135 155.256 46.4661 155.373 46.6641C155.491 46.862 155.649 47.0091 155.85 47.1055C156.05 47.2018 156.276 47.25 156.526 47.25C156.916 47.25 157.269 47.2148 157.584 47.1445C157.902 47.0716 158.221 46.9766 158.541 46.8594ZM163.186 50.125C162.608 50.125 162.109 49.9974 161.69 49.7422C161.274 49.4844 160.952 49.125 160.725 48.6641C160.501 48.2005 160.389 47.6615 160.389 47.0469C160.389 46.4323 160.501 45.8906 160.725 45.4219C160.952 44.9505 161.267 44.5833 161.671 44.3203C162.077 44.0547 162.551 43.9219 163.093 43.9219C163.405 43.9219 163.714 43.974 164.018 44.0781C164.323 44.1823 164.6 44.3516 164.85 44.5859C165.1 44.8177 165.3 45.125 165.448 45.5078C165.596 45.8906 165.671 46.362 165.671 46.9219V47.3125H161.046V46.5156H164.733C164.733 46.1771 164.665 45.875 164.53 45.6094C164.397 45.3437 164.207 45.1341 163.96 44.9805C163.715 44.8268 163.426 44.75 163.093 44.75C162.725 44.75 162.408 44.8411 162.139 45.0234C161.874 45.2031 161.669 45.4375 161.526 45.7266C161.383 46.0156 161.311 46.3255 161.311 46.6562V47.1875C161.311 47.6406 161.389 48.0247 161.546 48.3398C161.705 48.6523 161.925 48.8906 162.206 49.0547C162.487 49.2161 162.814 49.2969 163.186 49.2969C163.428 49.2969 163.647 49.263 163.843 49.1953C164.04 49.125 164.211 49.0208 164.354 48.8828C164.498 48.7422 164.608 48.5677 164.686 48.3594L165.577 48.6094C165.483 48.9115 165.326 49.1771 165.104 49.4062C164.883 49.6328 164.609 49.8099 164.284 49.9375C163.958 50.0625 163.593 50.125 163.186 50.125ZM171.167 46.5781V47.4375H167.855V46.5781H171.167ZM168.073 44V50H167.152V44H168.073ZM171.87 44V50H170.948V44H171.87ZM174.554 48.6406L177.445 44H178.508V50H177.586V45.3594L174.711 50H173.633V44H174.554V48.6406ZM181.196 48.6406L184.087 44H185.15V50H184.228V45.3594L181.353 50H180.275V44H181.196V48.6406ZM183.478 42H184.337C184.337 42.4219 184.191 42.7669 183.9 43.0352C183.608 43.3034 183.212 43.4375 182.712 43.4375C182.22 43.4375 181.828 43.3034 181.536 43.0352C181.247 42.7669 181.103 42.4219 181.103 42H181.962C181.962 42.2031 182.018 42.3815 182.13 42.5352C182.245 42.6888 182.439 42.7656 182.712 42.7656C182.985 42.7656 183.181 42.6888 183.298 42.5352C183.418 42.3815 183.478 42.2031 183.478 42Z" fill="#696974"/>
<path opacity="0.1" fill-rule="evenodd" clip-rule="evenodd" d="M223 52C232.941 52 241 43.9411 241 34C241 24.0589 232.941 16 223 16C213.059 16 205 24.0589 205 34C205 43.9411 213.059 52 223 52Z" stroke="#0062FF" stroke-width="1.54"/>
<path fill-rule="evenodd" clip-rule="evenodd" d="M228.999 31.3333H216.999V33.3333C216.999 33.7015 217.298 34 217.666 34H228.333C228.701 34 228.999 33.7015 228.999 33.3333V31.3333ZM219.666 30C219.666 28.8954 220.561 28 221.666 28H224.333C225.437 28 226.333 28.8954 226.333 30H228.999C229.736 30 230.333 30.597 230.333 31.3333V38C230.333 39.4728 229.139 40.6667 227.666 40.6667H218.333C216.86 40.6667 215.666 39.4728 215.666 38V31.3333C215.666 30.597 216.263 30 216.999 30H219.666ZM220.999 30H224.999C224.999 29.6318 224.701 29.3333 224.333 29.3333H221.666C221.298 29.3333 220.999 29.6318 220.999 30ZM220.999 35.3333H217.666C217.432 35.3333 217.208 35.2932 216.999 35.2195V38C216.999 38.7364 217.596 39.3333 218.333 39.3333H227.666C228.402 39.3333 228.999 38.7364 228.999 38V35.2195C228.791 35.2932 228.566 35.3333 228.333 35.3333H224.999V36.4C224.999 36.9155 224.581 37.3333 224.066 37.3333H221.933C221.417 37.3333 220.999 36.9155 220.999 36.4V35.3333ZM222.333 36H223.666V35.3333H222.333V36Z" fill="#0062FF"/>
<path d="M205 34C205 43.9411 213.059 52 223 52V52C232.941 52 241 43.9411 241 34C241 24.0589 232.941 16 223 16" stroke="#0062FF" stroke-width="1.54286" stroke-linecap="round" stroke-linejoin="round"/>
<path d="M247.278 29L251.608 20.429V20.3594H246.582V18.8182H253.517V20.3942L249.192 29H247.278ZM258.732 29.1392C258.244 29.1359 257.769 29.0514 257.305 28.8857C256.841 28.7166 256.423 28.4432 256.052 28.0653C255.681 27.6842 255.386 27.1787 255.167 26.549C254.948 25.916 254.84 25.1321 254.844 24.1974C254.844 23.3258 254.937 22.5485 255.122 21.8658C255.308 21.183 255.575 20.6063 255.923 20.1357C256.271 19.6617 256.69 19.3004 257.18 19.0518C257.674 18.8033 258.226 18.679 258.836 18.679C259.476 18.679 260.042 18.8049 260.536 19.0568C261.033 19.3087 261.434 19.6534 261.739 20.0909C262.044 20.5251 262.233 21.0156 262.306 21.5625H260.492C260.399 21.1714 260.208 20.8598 259.92 20.6278C259.635 20.3925 259.273 20.2749 258.836 20.2749C258.13 20.2749 257.586 20.5814 257.205 21.1946C256.827 21.8078 256.637 22.6496 256.634 23.7202H256.703C256.866 23.4285 257.076 23.1783 257.335 22.9695C257.593 22.7607 257.885 22.5999 258.21 22.4872C258.538 22.3712 258.884 22.3132 259.249 22.3132C259.845 22.3132 260.38 22.4557 260.854 22.7408C261.332 23.0258 261.71 23.4186 261.988 23.919C262.266 24.4162 262.404 24.9863 262.401 25.6293C262.404 26.2988 262.251 26.9003 261.943 27.4339C261.635 27.9643 261.206 28.3819 260.656 28.6868C260.105 28.9917 259.464 29.1425 258.732 29.1392ZM258.722 27.6477C259.083 27.6477 259.406 27.5599 259.691 27.3842C259.976 27.2086 260.202 26.9716 260.367 26.6733C260.533 26.375 260.614 26.0402 260.611 25.669C260.614 25.3045 260.535 24.9747 260.372 24.6797C260.213 24.3847 259.993 24.151 259.711 23.9787C259.429 23.8063 259.108 23.7202 258.746 23.7202C258.478 23.7202 258.228 23.7715 257.996 23.8743C257.764 23.977 257.562 24.1196 257.389 24.3018C257.217 24.4808 257.081 24.6896 256.982 24.9283C256.885 25.1636 256.836 25.4155 256.832 25.6839C256.836 26.0386 256.919 26.3651 257.081 26.6634C257.243 26.9616 257.467 27.2003 257.752 27.3793C258.037 27.5582 258.36 27.6477 258.722 27.6477ZM269.625 27.0909V26.554C269.625 26.1596 269.708 25.7966 269.873 25.4652C270.043 25.1338 270.288 24.867 270.609 24.6648C270.931 24.4626 271.32 24.3615 271.778 24.3615C272.248 24.3615 272.643 24.4626 272.961 24.6648C273.279 24.8636 273.519 25.1288 273.682 25.4602C273.847 25.7917 273.93 26.1562 273.93 26.554V27.0909C273.93 27.4853 273.847 27.8482 273.682 28.1797C273.516 28.5111 273.272 28.7779 272.951 28.9801C272.633 29.1823 272.242 29.2834 271.778 29.2834C271.314 29.2834 270.921 29.1823 270.599 28.9801C270.278 28.7779 270.034 28.5111 269.869 28.1797C269.706 27.8482 269.625 27.4853 269.625 27.0909ZM270.922 26.554V27.0909C270.922 27.3527 270.985 27.593 271.111 27.8118C271.237 28.0305 271.459 28.1399 271.778 28.1399C272.099 28.1399 272.319 28.0322 272.439 27.8168C272.561 27.598 272.623 27.3561 272.623 27.0909V26.554C272.623 26.2888 272.565 26.0469 272.449 25.8281C272.333 25.6061 272.109 25.495 271.778 25.495C271.466 25.495 271.246 25.6061 271.116 25.8281C270.987 26.0469 270.922 26.2888 270.922 26.554ZM264.449 21.2642V20.7273C264.449 20.3295 264.534 19.965 264.703 19.6335C264.872 19.3021 265.117 19.0369 265.439 18.8381C265.76 18.6359 266.15 18.5348 266.607 18.5348C267.074 18.5348 267.467 18.6359 267.785 18.8381C268.107 19.0369 268.349 19.3021 268.511 19.6335C268.674 19.965 268.755 20.3295 268.755 20.7273V21.2642C268.755 21.6619 268.672 22.0265 268.506 22.358C268.344 22.6861 268.102 22.9496 267.78 23.1484C267.459 23.3473 267.068 23.4467 266.607 23.4467C266.14 23.4467 265.745 23.3473 265.424 23.1484C265.106 22.9496 264.864 22.6844 264.698 22.353C264.532 22.0215 264.449 21.6586 264.449 21.2642ZM265.757 20.7273V21.2642C265.757 21.5294 265.818 21.7713 265.941 21.9901C266.067 22.2055 266.289 22.3132 266.607 22.3132C266.925 22.3132 267.144 22.2055 267.263 21.9901C267.386 21.7713 267.447 21.5294 267.447 21.2642V20.7273C267.447 20.4621 267.389 20.2202 267.273 20.0014C267.157 19.7794 266.935 19.6683 266.607 19.6683C266.292 19.6683 266.072 19.7794 265.946 20.0014C265.82 20.2235 265.757 20.4654 265.757 20.7273ZM265.016 29L272.016 18.8182H273.259L266.259 29H265.016Z" fill="#202021"/>
<path d="M254.08 44H253.023C252.96 43.696 252.851 43.429 252.695 43.1989C252.541 42.9688 252.354 42.7756 252.132 42.6193C251.913 42.4602 251.67 42.3409 251.403 42.2614C251.136 42.1818 250.858 42.142 250.568 42.142C250.04 42.142 249.561 42.2756 249.132 42.5426C248.706 42.8097 248.366 43.2031 248.114 43.723C247.864 44.2429 247.739 44.8807 247.739 45.6364C247.739 46.392 247.864 47.0298 248.114 47.5497C248.366 48.0696 248.706 48.4631 249.132 48.7301C249.561 48.9972 250.04 49.1307 250.568 49.1307C250.858 49.1307 251.136 49.0909 251.403 49.0114C251.67 48.9318 251.913 48.8139 252.132 48.6577C252.354 48.4986 252.541 48.304 252.695 48.0739C252.851 47.8409 252.96 47.5739 253.023 47.2727H254.08C254 47.7187 253.855 48.1179 253.645 48.4702C253.435 48.8224 253.173 49.1222 252.861 49.3693C252.548 49.6136 252.197 49.7997 251.808 49.9276C251.422 50.0554 251.009 50.1193 250.568 50.1193C249.824 50.1193 249.162 49.9375 248.582 49.5739C248.003 49.2102 247.547 48.6932 247.214 48.0227C246.882 47.3523 246.716 46.5568 246.716 45.6364C246.716 44.7159 246.882 43.9205 247.214 43.25C247.547 42.5795 248.003 42.0625 248.582 41.6989C249.162 41.3352 249.824 41.1534 250.568 41.1534C251.009 41.1534 251.422 41.2173 251.808 41.3452C252.197 41.473 252.548 41.6605 252.861 41.9077C253.173 42.152 253.435 42.4503 253.645 42.8026C253.855 43.152 254 43.5511 254.08 44ZM255.038 51.875V49.0625H255.583C255.717 48.9233 255.832 48.7727 255.928 48.6108C256.025 48.4489 256.109 48.2571 256.18 48.0355C256.254 47.8111 256.316 47.5384 256.367 47.2173C256.418 46.8935 256.464 46.5028 256.504 46.0455L256.725 43.4545H260.884V49.0625H261.89V51.875H260.884V50H256.043V51.875H255.038ZM256.725 49.0625H259.879V44.392H257.663L257.492 46.0455C257.421 46.7301 257.333 47.3281 257.228 47.8395C257.123 48.3509 256.955 48.7585 256.725 49.0625ZM266.055 50.1364C265.424 50.1364 264.88 49.9972 264.423 49.7188C263.968 49.4375 263.617 49.0455 263.37 48.5426C263.126 48.0369 263.004 47.4489 263.004 46.7784C263.004 46.108 263.126 45.517 263.37 45.0057C263.617 44.4915 263.961 44.0909 264.402 43.804C264.845 43.5142 265.362 43.3693 265.953 43.3693C266.294 43.3693 266.63 43.4261 266.963 43.5398C267.295 43.6534 267.598 43.8381 267.87 44.0938C268.143 44.3466 268.36 44.6818 268.522 45.0994C268.684 45.517 268.765 46.0312 268.765 46.642V47.0682H263.72V46.1989H267.742C267.742 45.8295 267.669 45.5 267.521 45.2102C267.376 44.9205 267.169 44.6918 266.899 44.5241C266.632 44.3565 266.316 44.2727 265.953 44.2727C265.552 44.2727 265.206 44.3722 264.913 44.571C264.623 44.767 264.4 45.0227 264.244 45.3381C264.088 45.6534 264.009 45.9915 264.009 46.3523V46.9318C264.009 47.4261 264.095 47.8452 264.265 48.1889C264.438 48.5298 264.679 48.7898 264.985 48.9688C265.292 49.1449 265.649 49.233 266.055 49.233C266.319 49.233 266.558 49.196 266.771 49.1222C266.987 49.0455 267.173 48.9318 267.329 48.7812C267.485 48.6278 267.606 48.4375 267.691 48.2102L268.663 48.483C268.561 48.8125 268.389 49.1023 268.147 49.3523C267.906 49.5994 267.608 49.7926 267.252 49.9318C266.897 50.0682 266.498 50.1364 266.055 50.1364ZM269.801 50V49.0625H270.04C270.236 49.0625 270.399 49.0241 270.53 48.9474C270.661 48.8679 270.766 48.7301 270.845 48.5341C270.928 48.3352 270.99 48.0597 271.033 47.7074C271.078 47.3523 271.111 46.9006 271.131 46.3523L271.25 43.4545H275.614V50H274.608V44.392H272.205L272.102 46.7273C272.08 47.2642 272.031 47.7372 271.957 48.1463C271.886 48.5526 271.777 48.8935 271.629 49.169C271.484 49.4446 271.291 49.652 271.05 49.7912C270.808 49.9304 270.506 50 270.142 50H269.801ZM280.204 50.1364C279.613 50.1364 279.094 49.9957 278.648 49.7145C278.205 49.4332 277.858 49.0398 277.608 48.5341C277.361 48.0284 277.238 47.4375 277.238 46.7614C277.238 46.0795 277.361 45.4844 277.608 44.9759C277.858 44.4673 278.205 44.0724 278.648 43.7912C279.094 43.5099 279.613 43.3693 280.204 43.3693C280.795 43.3693 281.312 43.5099 281.755 43.7912C282.201 44.0724 282.547 44.4673 282.795 44.9759C283.045 45.4844 283.17 46.0795 283.17 46.7614C283.17 47.4375 283.045 48.0284 282.795 48.5341C282.547 49.0398 282.201 49.4332 281.755 49.7145C281.312 49.9957 280.795 50.1364 280.204 50.1364ZM280.204 49.233C280.653 49.233 281.022 49.1179 281.312 48.8878C281.601 48.6577 281.816 48.3551 281.955 47.9801C282.094 47.6051 282.164 47.1989 282.164 46.7614C282.164 46.3239 282.094 45.9162 281.955 45.5384C281.816 45.1605 281.601 44.8551 281.312 44.6222C281.022 44.3892 280.653 44.2727 280.204 44.2727C279.755 44.2727 279.385 44.3892 279.096 44.6222C278.806 44.8551 278.591 45.1605 278.452 45.5384C278.313 45.9162 278.243 46.3239 278.243 46.7614C278.243 47.1989 278.313 47.6051 278.452 47.9801C278.591 48.3551 278.806 48.6577 279.096 48.8878C279.385 49.1179 279.755 49.233 280.204 49.233ZM284.79 50V43.4545H285.796V46.3011H286.461L288.813 43.4545H290.109L287.467 46.608L290.143 50H288.847L286.7 47.2386H285.796V50H284.79ZM294.373 48.3295H295.447C295.47 48.625 295.603 48.8494 295.848 49.0028C296.095 49.1562 296.416 49.233 296.811 49.233C297.214 49.233 297.559 49.1506 297.846 48.9858C298.133 48.8182 298.276 48.5483 298.276 48.1761C298.276 47.9574 298.223 47.767 298.115 47.6051C298.007 47.4403 297.855 47.3125 297.659 47.2216C297.463 47.1307 297.231 47.0852 296.964 47.0852H295.839V46.1818H296.964C297.365 46.1818 297.66 46.0909 297.85 45.9091C298.044 45.7273 298.14 45.5 298.14 45.2273C298.14 44.9347 298.036 44.7003 297.829 44.5241C297.622 44.3452 297.328 44.2557 296.947 44.2557C296.563 44.2557 296.244 44.3423 295.988 44.5156C295.732 44.6861 295.598 44.9062 295.583 45.1761H294.526C294.538 44.8239 294.646 44.5128 294.85 44.2429C295.055 43.9702 295.333 43.7571 295.686 43.6037C296.038 43.4474 296.441 43.3693 296.896 43.3693C297.356 43.3693 297.755 43.4503 298.093 43.6122C298.434 43.7713 298.697 43.9886 298.882 44.2642C299.069 44.5369 299.163 44.8466 299.163 45.1932C299.163 45.5625 299.059 45.8608 298.852 46.0881C298.644 46.3153 298.384 46.4773 298.072 46.5739V46.642C298.319 46.6591 298.534 46.7386 298.715 46.8807C298.9 47.0199 299.044 47.2031 299.146 47.4304C299.248 47.6548 299.299 47.9034 299.299 48.1761C299.299 48.5739 299.193 48.9205 298.98 49.2159C298.767 49.5085 298.474 49.7358 298.102 49.8977C297.73 50.0568 297.305 50.1364 296.828 50.1364C296.365 50.1364 295.95 50.0611 295.583 49.9105C295.217 49.7571 294.926 49.5455 294.71 49.2756C294.497 49.0028 294.384 48.6875 294.373 48.3295ZM302.724 50.1534C302.309 50.1534 301.933 50.0753 301.594 49.919C301.256 49.7599 300.988 49.5312 300.789 49.233C300.59 48.9318 300.491 48.5682 300.491 48.142C300.491 47.767 300.565 47.4631 300.712 47.2301C300.86 46.9943 301.058 46.8097 301.305 46.6761C301.552 46.5426 301.825 46.4432 302.123 46.3778C302.424 46.3097 302.727 46.2557 303.031 46.2159C303.428 46.1648 303.751 46.1264 303.998 46.1009C304.248 46.0724 304.43 46.0256 304.543 45.9602C304.66 45.8949 304.718 45.7812 304.718 45.6193V45.5852C304.718 45.1648 304.603 44.8381 304.373 44.6051C304.146 44.3722 303.8 44.2557 303.337 44.2557C302.857 44.2557 302.481 44.3608 302.208 44.571C301.935 44.7812 301.744 45.0057 301.633 45.2443L300.678 44.9034C300.849 44.5057 301.076 44.196 301.36 43.9744C301.647 43.75 301.96 43.5937 302.298 43.5057C302.638 43.4148 302.974 43.3693 303.303 43.3693C303.513 43.3693 303.755 43.3949 304.028 43.446C304.303 43.4943 304.569 43.5952 304.825 43.7486C305.083 43.902 305.298 44.1335 305.468 44.4432C305.638 44.7528 305.724 45.1676 305.724 45.6875V50H304.718V49.1136H304.667C304.599 49.2557 304.485 49.4077 304.326 49.5696C304.167 49.7315 303.955 49.8693 303.691 49.983C303.427 50.0966 303.104 50.1534 302.724 50.1534ZM302.877 49.25C303.275 49.25 303.61 49.1719 303.883 49.0156C304.158 48.8594 304.366 48.6577 304.505 48.4105C304.647 48.1634 304.718 47.9034 304.718 47.6307V46.7102C304.675 46.7614 304.582 46.8082 304.437 46.8509C304.295 46.8906 304.13 46.9261 303.942 46.9574C303.758 46.9858 303.577 47.0114 303.401 47.0341C303.228 47.054 303.087 47.071 302.979 47.0852C302.718 47.1193 302.474 47.1747 302.246 47.2514C302.022 47.3253 301.84 47.4375 301.701 47.5881C301.565 47.7358 301.496 47.9375 301.496 48.1932C301.496 48.5426 301.626 48.8068 301.884 48.9858C302.146 49.1619 302.477 49.25 302.877 49.25ZM315.145 43.4545V44.392H312.111V50H311.106V43.4545H315.145ZM319.018 50.1364C318.428 50.1364 317.909 49.9957 317.463 49.7145C317.02 49.4332 316.673 49.0398 316.423 48.5341C316.176 48.0284 316.053 47.4375 316.053 46.7614C316.053 46.0795 316.176 45.4844 316.423 44.9759C316.673 44.4673 317.02 44.0724 317.463 43.7912C317.909 43.5099 318.428 43.3693 319.018 43.3693C319.609 43.3693 320.126 43.5099 320.57 43.7912C321.016 44.0724 321.362 44.4673 321.609 44.9759C321.859 45.4844 321.984 46.0795 321.984 46.7614C321.984 47.4375 321.859 48.0284 321.609 48.5341C321.362 49.0398 321.016 49.4332 320.57 49.7145C320.126 49.9957 319.609 50.1364 319.018 50.1364ZM319.018 49.233C319.467 49.233 319.837 49.1179 320.126 48.8878C320.416 48.6577 320.631 48.3551 320.77 47.9801C320.909 47.6051 320.979 47.1989 320.979 46.7614C320.979 46.3239 320.909 45.9162 320.77 45.5384C320.631 45.1605 320.416 44.8551 320.126 44.6222C319.837 44.3892 319.467 44.2727 319.018 44.2727C318.57 44.2727 318.2 44.3892 317.911 44.6222C317.621 44.8551 317.406 45.1605 317.267 45.5384C317.128 45.9162 317.058 46.3239 317.058 46.7614C317.058 47.1989 317.128 47.6051 317.267 47.9801C317.406 48.3551 317.621 48.6577 317.911 48.8878C318.2 49.1179 318.57 49.233 319.018 49.233ZM322.906 51.875V49.0625H323.452C323.585 48.9233 323.7 48.7727 323.797 48.6108C323.894 48.4489 323.977 48.2571 324.048 48.0355C324.122 47.8111 324.185 47.5384 324.236 47.2173C324.287 46.8935 324.333 46.5028 324.372 46.0455L324.594 43.4545H328.753V49.0625H329.759V51.875H328.753V50H323.912V51.875H322.906ZM324.594 49.0625H327.747V44.392H325.531L325.361 46.0455C325.29 46.7301 325.202 47.3281 325.097 47.8395C324.992 48.3509 324.824 48.7585 324.594 49.0625Z" fill="#696974"/>
</g>
</svg>
