<svg width="336" height="322" viewBox="0 0 336 322" fill="none" xmlns="http://www.w3.org/2000/svg">
<g filter="url(#filter0_dd_745_4262)">
<rect x="27" y="43" width="266.109" height="205.836" rx="12.6235" fill="#EFF1F7"/>
<path opacity="0.1" d="M66.8027 131.703H278.325" stroke="#7C8DB5" stroke-width="0.631174" stroke-dasharray="2.52 2.52"/>
<path opacity="0.1" d="M66.8027 103.271H278.325" stroke="#7C8DB5" stroke-width="0.631174" stroke-dasharray="2.52 2.52"/>
<path opacity="0.1" d="M66.8027 158.996H278.325" stroke="#7C8DB5" stroke-width="0.631174" stroke-dasharray="2.52 2.52"/>
<path opacity="0.1" d="M66.8027 187.426H278.325" stroke="#7C8DB5" stroke-width="0.631174" stroke-dasharray="2.52 2.52"/>
<path opacity="0.1" d="M65.666 212.445H277.189" stroke="#7C8DB5" stroke-width="0.631174" stroke-dasharray="2.52 2.52"/>
<g clip-path="url(#clip0_745_4262)">
<path opacity="0.2" d="M355.343 132.986C374.433 100.329 398.35 119 398.35 119L398.35 203.962L68.6112 203.962L68.6112 101.346C74.5177 123.262 83.6248 175.401 108.551 156.809C121.318 147.287 129.72 109.926 149.301 138.383C174.768 175.395 204.962 177.236 214.499 135.42C220.31 109.947 240.167 90.7563 264.09 146.475C282.942 190.382 283.256 137.515 301.773 128.035C320.29 118.555 342.501 151.112 355.343 132.986Z" fill="url(#paint0_linear_745_4262)"/>
<path d="M397.446 119.607C397.446 119.607 373.55 100.952 354.476 133.58C341.646 151.69 319.454 119.162 300.954 128.634C282.453 138.106 281.232 190.624 262.397 146.756C238.495 91.0859 219.633 110.159 213.828 135.609C204.299 177.388 174.06 175.952 148.616 138.973C129.052 110.54 120.657 147.869 107.901 157.383C82.9971 175.958 73.898 123.865 67.9967 101.968" stroke="url(#paint1_linear_745_4262)" stroke-width="1.57794" stroke-linecap="round"/>
</g>
<path opacity="0.2" d="M232.764 207.88L232.764 111.941" stroke="url(#paint2_linear_745_4262)" stroke-width="0.946761"/>
<circle cx="232.763" cy="111.942" r="5.68057" fill="#0050EC"/>
<rect x="160.055" y="59.5547" width="27.7717" height="20.1976" rx="10.0988" fill="url(#paint3_linear_745_4262)"/>
<rect x="194.141" y="59.5547" width="27.7717" height="20.1976" rx="10.0988" fill="#F2F4F8"/>
<path d="M205.104 67.9922C204.818 67.9922 204.582 68.2278 204.582 68.5196V72.8564C204.582 73.1426 204.818 73.3782 205.104 73.3782C205.396 73.3782 205.631 73.1426 205.631 72.8564V68.5196C205.631 68.2278 205.396 67.9922 205.104 67.9922Z" fill="#0A043C"/>
<path d="M208.049 65.9219C207.763 65.9219 207.527 66.1575 207.527 66.4493V72.8564C207.527 73.1425 207.763 73.3781 208.049 73.3781C208.341 73.3781 208.576 73.1425 208.576 72.8564V66.4493C208.576 66.1575 208.341 65.9219 208.049 65.9219Z" fill="#0A043C"/>
<path d="M210.955 70.2832C210.663 70.2832 210.428 70.5188 210.428 70.8106V72.8584C210.428 73.1445 210.663 73.3802 210.95 73.3802C211.241 73.3802 211.477 73.1445 211.477 72.8584V70.8106C211.477 70.5188 211.241 70.2832 210.955 70.2832Z" fill="#0A043C"/>
<path d="M169.527 69.9305H171.206L172.593 66.8427C172.641 66.7338 172.718 66.6427 172.815 66.5815C172.912 66.5202 173.024 66.4916 173.137 66.4993C173.249 66.507 173.357 66.5508 173.446 66.6248C173.534 66.6988 173.6 66.7997 173.634 66.9142L175.312 72.3925C175.345 72.5029 175.407 72.6008 175.491 72.6743C175.575 72.7477 175.677 72.7936 175.785 72.8062C175.893 72.8189 176.002 72.7977 176.099 72.7455C176.196 72.6932 176.276 72.6119 176.331 72.5117L177.948 69.5729H179.626" stroke="white" stroke-width="0.946761" stroke-linecap="round" stroke-linejoin="round"/>
<rect x="228.542" y="59.8703" width="49.8628" height="18.3041" rx="5.99616" stroke="#7C8DB5" stroke-width="0.631174"/>
<path d="M238.046 68.5339V69.1146H235.132V68.5339H238.046ZM235.243 66.2188V71.6035H234.529V66.2188H235.243ZM238.668 66.2188V71.6035H237.958V66.2188H238.668ZM241.645 71.6775C241.366 71.6775 241.113 71.6306 240.887 71.5369C240.662 71.4408 240.469 71.3064 240.306 71.1338C240.146 70.9612 240.022 70.7566 239.936 70.5199C239.85 70.2832 239.807 70.0243 239.807 69.7433V69.5879C239.807 69.2625 239.855 68.9728 239.951 68.7189C240.047 68.4624 240.178 68.2455 240.343 68.068C240.508 67.8904 240.695 67.7561 240.905 67.6648C241.115 67.5736 241.332 67.528 241.556 67.528C241.842 67.528 242.088 67.5773 242.296 67.6759C242.505 67.7746 242.676 67.9126 242.81 68.0901C242.943 68.2652 243.041 68.4723 243.105 68.7115C243.17 68.9481 243.202 69.207 243.202 69.4881V69.7951H240.213V69.2366H242.517V69.1848C242.508 69.0073 242.471 68.8347 242.407 68.6671C242.345 68.4994 242.246 68.3614 242.111 68.2529C241.975 68.1444 241.79 68.0901 241.556 68.0901C241.401 68.0901 241.258 68.1234 241.127 68.19C240.996 68.2541 240.884 68.3503 240.79 68.4785C240.697 68.6067 240.624 68.7632 240.572 68.9481C240.52 69.1331 240.494 69.3463 240.494 69.5879V69.7433C240.494 69.9331 240.52 70.1119 240.572 70.2795C240.626 70.4447 240.704 70.5902 240.805 70.7159C240.909 70.8417 241.033 70.9403 241.179 71.0118C241.327 71.0833 241.494 71.119 241.682 71.119C241.923 71.119 242.128 71.0697 242.296 70.9711C242.463 70.8725 242.61 70.7406 242.736 70.5754L243.15 70.9045C243.064 71.0352 242.954 71.1597 242.821 71.2781C242.688 71.3964 242.524 71.4926 242.329 71.5665C242.137 71.6405 241.908 71.6775 241.645 71.6775ZM244.873 67.602H245.557L245.498 69.0998C245.483 69.4795 245.44 69.8074 245.369 70.0835C245.297 70.3597 245.206 70.5951 245.095 70.7899C244.984 70.9822 244.86 71.1437 244.721 71.2744C244.586 71.405 244.445 71.5148 244.3 71.6035H243.96L243.978 71.0451L244.119 71.0414C244.2 70.9452 244.279 70.8466 244.355 70.7455C244.432 70.642 244.502 70.5199 244.566 70.3794C244.63 70.2364 244.683 70.0626 244.725 69.8579C244.77 69.6508 244.798 69.3981 244.81 69.0998L244.873 67.602ZM245.043 67.602H247.451V71.6035H246.767V68.2344H245.043V67.602ZM243.804 71.0414H247.965V72.7833H247.281V71.6035H244.488V72.7833H243.801L243.804 71.0414ZM250.535 71.6775C250.256 71.6775 250.004 71.6306 249.777 71.5369C249.553 71.4408 249.359 71.3064 249.196 71.1338C249.036 70.9612 248.913 70.7566 248.826 70.5199C248.74 70.2832 248.697 70.0243 248.697 69.7433V69.5879C248.697 69.2625 248.745 68.9728 248.841 68.7189C248.937 68.4624 249.068 68.2455 249.233 68.068C249.398 67.8904 249.586 67.7561 249.795 67.6648C250.005 67.5736 250.222 67.528 250.446 67.528C250.732 67.528 250.979 67.5773 251.186 67.6759C251.396 67.7746 251.567 67.9126 251.7 68.0901C251.833 68.2652 251.932 68.4723 251.996 68.7115C252.06 68.9481 252.092 69.207 252.092 69.4881V69.7951H249.104V69.2366H251.408V69.1848C251.398 69.0073 251.361 68.8347 251.297 68.6671C251.235 68.4994 251.137 68.3614 251.001 68.2529C250.865 68.1444 250.681 68.0901 250.446 68.0901C250.291 68.0901 250.148 68.1234 250.017 68.19C249.887 68.2541 249.774 68.3503 249.681 68.4785C249.587 68.6067 249.514 68.7632 249.463 68.9481C249.411 69.1331 249.385 69.3463 249.385 69.5879V69.7433C249.385 69.9331 249.411 70.1119 249.463 70.2795C249.517 70.4447 249.594 70.5902 249.696 70.7159C249.799 70.8417 249.924 70.9403 250.069 71.0118C250.217 71.0833 250.385 71.119 250.572 71.119C250.814 71.119 251.018 71.0697 251.186 70.9711C251.354 70.8725 251.5 70.7406 251.626 70.5754L252.04 70.9045C251.954 71.0352 251.844 71.1597 251.711 71.2781C251.578 71.3964 251.414 71.4926 251.219 71.5665C251.027 71.6405 250.799 71.6775 250.535 71.6775ZM255.716 67.602V68.1678H253.782V67.602H255.716ZM256.319 67.602V71.6035H255.635V67.602H256.319ZM253.616 67.602H254.303L254.2 69.5325C254.183 69.8308 254.154 70.0946 254.115 70.3239C254.078 70.5507 254.026 70.7455 253.96 70.9082C253.895 71.071 253.814 71.2041 253.715 71.3077C253.619 71.4087 253.503 71.4839 253.368 71.5332C253.232 71.5801 253.076 71.6035 252.898 71.6035H252.684V71.0007L252.832 70.9896C252.938 70.9822 253.028 70.9575 253.102 70.9156C253.178 70.8737 253.242 70.8121 253.294 70.7307C253.346 70.6469 253.388 70.5396 253.42 70.409C253.454 70.2783 253.48 70.123 253.497 69.943C253.517 69.763 253.532 69.5534 253.542 69.3143L253.616 67.602ZM258.383 69.6952H259.122L257.965 71.6035H257.225L258.383 69.6952ZM258.956 67.602H260.627V71.6035H259.943V68.1567H258.956C258.761 68.1567 258.602 68.19 258.479 68.2566C258.355 68.3207 258.265 68.4045 258.209 68.508C258.152 68.6116 258.124 68.7189 258.124 68.8298C258.124 68.9383 258.15 69.0431 258.201 69.1442C258.253 69.2428 258.334 69.3241 258.445 69.3882C258.556 69.4523 258.699 69.4844 258.874 69.4844H260.128V70.0465H258.874C258.645 70.0465 258.442 70.0157 258.264 69.9541C258.087 69.8924 257.936 69.8074 257.813 69.6989C257.69 69.5879 257.596 69.4585 257.532 69.3106C257.468 69.1602 257.436 68.9975 257.436 68.8224C257.436 68.6474 257.469 68.4859 257.536 68.3379C257.605 68.19 257.703 68.0606 257.831 67.9496C257.962 67.8387 258.121 67.7536 258.309 67.6944C258.498 67.6328 258.714 67.602 258.956 67.602Z" fill="#7C8DB5"/>
<path d="M268.938 68.709L270.515 70.2869L272.093 68.709" stroke="#7C8DB5" stroke-width="0.631174" stroke-linecap="round" stroke-linejoin="round"/>
<path d="M65.7894 224.045L64.3039 228.135H63.6968L65.4073 223.648H65.7987L65.7894 224.045ZM67.0345 228.135L65.5459 224.045L65.5367 223.648H65.9281L67.6447 228.135H67.0345ZM66.9575 226.474V226.961H64.4365V226.474H66.9575ZM70.1531 226.375H68.9543V225.891H70.1531C70.3853 225.891 70.5733 225.854 70.7171 225.78C70.861 225.706 70.9657 225.603 71.0315 225.472C71.0993 225.341 71.1332 225.191 71.1332 225.022C71.1332 224.868 71.0993 224.723 71.0315 224.587C70.9657 224.452 70.861 224.343 70.7171 224.261C70.5733 224.177 70.3853 224.134 70.1531 224.134H69.093V228.135H68.4982V223.648H70.1531C70.4922 223.648 70.7788 223.706 71.013 223.823C71.2472 223.94 71.4249 224.103 71.5462 224.31C71.6674 224.516 71.728 224.751 71.728 225.016C71.728 225.304 71.6674 225.549 71.5462 225.752C71.4249 225.956 71.2472 226.111 71.013 226.218C70.7788 226.323 70.4922 226.375 70.1531 226.375ZM72.7325 223.648H74.2179C74.5549 223.648 74.8394 223.699 75.0716 223.802C75.3058 223.904 75.4836 224.056 75.6048 224.258C75.7281 224.457 75.7897 224.703 75.7897 224.994C75.7897 225.2 75.7476 225.388 75.6633 225.558C75.5812 225.727 75.462 225.871 75.3058 225.99C75.1517 226.107 74.9668 226.194 74.7511 226.252L74.5847 226.316H73.1886L73.1824 225.833H74.2364C74.4501 225.833 74.6278 225.796 74.7696 225.722C74.9114 225.646 75.0182 225.544 75.0901 225.417C75.162 225.289 75.198 225.148 75.198 224.994C75.198 224.822 75.1641 224.671 75.0963 224.541C75.0285 224.412 74.9216 224.312 74.7758 224.242C74.6319 224.17 74.446 224.134 74.2179 224.134H73.3273V228.135H72.7325V223.648ZM75.3552 228.135L74.2642 226.101L74.8836 226.098L75.99 228.098V228.135H75.3552Z" fill="#7C8DB5"/>
<path d="M67.5239 233.991V234.871C67.5239 235.293 67.482 235.653 67.3982 235.951C67.3168 236.247 67.1985 236.488 67.0431 236.672C66.8878 236.857 66.7017 236.993 66.4847 237.079C66.2702 237.166 66.0298 237.209 65.7635 237.209C65.5515 237.209 65.3542 237.182 65.1718 237.127C64.9918 237.073 64.8291 236.988 64.6836 236.872C64.5382 236.756 64.4136 236.607 64.3101 236.425C64.209 236.24 64.1301 236.019 64.0734 235.763C64.0192 235.506 63.992 235.209 63.992 234.871V233.991C63.992 233.567 64.034 233.21 64.1178 232.919C64.2016 232.625 64.3212 232.387 64.4765 232.205C64.6318 232.02 64.8168 231.886 65.0313 231.802C65.2482 231.718 65.4898 231.676 65.7561 231.676C65.9706 231.676 66.1679 231.703 66.3479 231.757C66.5303 231.809 66.693 231.892 66.836 232.005C66.9815 232.119 67.1048 232.267 67.2059 232.449C67.3094 232.629 67.3883 232.847 67.4425 233.104C67.4968 233.358 67.5239 233.653 67.5239 233.991ZM66.6326 234.997V233.858C66.6326 233.644 66.6203 233.455 66.5956 233.292C66.571 233.127 66.534 232.988 66.4847 232.874C66.4378 232.758 66.3787 232.665 66.3072 232.593C66.2357 232.519 66.1543 232.466 66.0631 232.434C65.9719 232.4 65.8695 232.382 65.7561 232.382C65.6181 232.382 65.4948 232.41 65.3863 232.464C65.2778 232.516 65.1866 232.599 65.1126 232.715C65.0387 232.831 64.982 232.984 64.9425 233.174C64.9055 233.361 64.887 233.589 64.887 233.858V234.997C64.887 235.214 64.8994 235.405 64.924 235.57C64.9487 235.736 64.9857 235.877 65.035 235.996C65.0843 236.112 65.1434 236.208 65.2125 236.284C65.284 236.358 65.3653 236.412 65.4566 236.447C65.5503 236.481 65.6526 236.499 65.7635 236.499C65.9041 236.499 66.0286 236.472 66.137 236.417C66.2455 236.363 66.3368 236.277 66.4107 236.158C66.4847 236.038 66.5402 235.881 66.5771 235.689C66.6141 235.496 66.6326 235.266 66.6326 234.997ZM69.5577 234.631L68.8476 234.457L69.1398 231.75H72.0429V232.505H69.8794L69.7315 233.825C69.8153 233.775 69.9312 233.727 70.0791 233.681C70.2271 233.631 70.3959 233.607 70.5858 233.607C70.8397 233.607 71.0666 233.649 71.2663 233.732C71.4685 233.814 71.6398 233.933 71.7803 234.091C71.9209 234.246 72.0281 234.436 72.1021 234.661C72.1761 234.883 72.213 235.133 72.213 235.411C72.213 235.66 72.1761 235.893 72.1021 236.11C72.0306 236.327 71.9221 236.518 71.7766 236.684C71.6312 236.849 71.4475 236.978 71.2256 237.072C71.0062 237.163 70.7461 237.209 70.4453 237.209C70.2209 237.209 70.0052 237.177 69.7981 237.113C69.5934 237.046 69.4097 236.949 69.247 236.82C69.0843 236.69 68.9536 236.529 68.855 236.34C68.7564 236.147 68.6997 235.927 68.6849 235.678H69.5577C69.5799 235.853 69.6279 236.002 69.7019 236.125C69.7783 236.246 69.8794 236.338 70.0052 236.403C70.1309 236.467 70.2764 236.499 70.4416 236.499C70.592 236.499 70.7214 236.473 70.8299 236.421C70.9384 236.367 71.0284 236.29 71.0999 236.192C71.1738 236.091 71.2281 235.972 71.2626 235.837C71.2996 235.701 71.3181 235.551 71.3181 235.385C71.3181 235.228 71.2971 235.083 71.2552 234.953C71.2157 234.822 71.1553 234.709 71.074 234.613C70.9951 234.516 70.8952 234.442 70.7744 234.391C70.6536 234.336 70.5143 234.309 70.3565 234.309C70.1445 234.309 69.9817 234.34 69.8683 234.402C69.7574 234.463 69.6538 234.54 69.5577 234.631Z" fill="#0F3F62"/>
<path d="M113.215 224.045L111.73 228.135H111.123L112.833 223.648H113.224L113.215 224.045ZM114.46 228.135L112.972 224.045L112.962 223.648H113.354L115.07 228.135H114.46ZM114.383 226.474V226.961H111.862V226.474H114.383ZM117.579 226.375H116.38V225.891H117.579C117.811 225.891 117.999 225.854 118.143 225.78C118.287 225.706 118.392 225.603 118.457 225.472C118.525 225.341 118.559 225.191 118.559 225.022C118.559 224.868 118.525 224.723 118.457 224.587C118.392 224.452 118.287 224.343 118.143 224.261C117.999 224.177 117.811 224.134 117.579 224.134H116.519V228.135H115.924V223.648H117.579C117.918 223.648 118.205 223.706 118.439 223.823C118.673 223.94 118.851 224.103 118.972 224.31C119.093 224.516 119.154 224.751 119.154 225.016C119.154 225.304 119.093 225.549 118.972 225.752C118.851 225.956 118.673 226.111 118.439 226.218C118.205 226.323 117.918 226.375 117.579 226.375ZM120.158 223.648H121.644C121.981 223.648 122.265 223.699 122.497 223.802C122.732 223.904 122.909 224.056 123.031 224.258C123.154 224.457 123.215 224.703 123.215 224.994C123.215 225.2 123.173 225.388 123.089 225.558C123.007 225.727 122.888 225.871 122.732 225.99C122.578 226.107 122.393 226.194 122.177 226.252L122.01 226.316H120.614L120.608 225.833H121.662C121.876 225.833 122.054 225.796 122.195 225.722C122.337 225.646 122.444 225.544 122.516 225.417C122.588 225.289 122.624 225.148 122.624 224.994C122.624 224.822 122.59 224.671 122.522 224.541C122.454 224.412 122.347 224.312 122.202 224.242C122.058 224.17 121.872 224.134 121.644 224.134H120.753V228.135H120.158V223.648ZM122.781 228.135L121.69 226.101L122.309 226.098L123.416 228.098V228.135H122.781Z" fill="#7C8DB5"/>
<path d="M114.95 233.991V234.871C114.95 235.293 114.908 235.653 114.824 235.951C114.743 236.247 114.624 236.488 114.469 236.672C114.314 236.857 114.127 236.993 113.91 237.079C113.696 237.166 113.456 237.209 113.189 237.209C112.977 237.209 112.78 237.182 112.598 237.127C112.418 237.073 112.255 236.988 112.109 236.872C111.964 236.756 111.839 236.607 111.736 236.425C111.635 236.24 111.556 236.019 111.499 235.763C111.445 235.506 111.418 235.209 111.418 234.871V233.991C111.418 233.567 111.46 233.21 111.544 232.919C111.627 232.625 111.747 232.387 111.902 232.205C112.058 232.02 112.243 231.886 112.457 231.802C112.674 231.718 112.916 231.676 113.182 231.676C113.396 231.676 113.594 231.703 113.774 231.757C113.956 231.809 114.119 231.892 114.262 232.005C114.407 232.119 114.531 232.267 114.632 232.449C114.735 232.629 114.814 232.847 114.868 233.104C114.923 233.358 114.95 233.653 114.95 233.991ZM114.058 234.997V233.858C114.058 233.644 114.046 233.455 114.021 233.292C113.997 233.127 113.96 232.988 113.91 232.874C113.864 232.758 113.804 232.665 113.733 232.593C113.661 232.519 113.58 232.466 113.489 232.434C113.398 232.4 113.295 232.382 113.182 232.382C113.044 232.382 112.921 232.41 112.812 232.464C112.704 232.516 112.612 232.599 112.538 232.715C112.464 232.831 112.408 232.984 112.368 233.174C112.331 233.361 112.313 233.589 112.313 233.858V234.997C112.313 235.214 112.325 235.405 112.35 235.57C112.374 235.736 112.411 235.877 112.461 235.996C112.51 236.112 112.569 236.208 112.638 236.284C112.71 236.358 112.791 236.412 112.882 236.447C112.976 236.481 113.078 236.499 113.189 236.499C113.33 236.499 113.454 236.472 113.563 236.417C113.671 236.363 113.763 236.277 113.837 236.158C113.91 236.038 113.966 235.881 114.003 235.689C114.04 235.496 114.058 235.266 114.058 234.997ZM118.74 231.717H118.851V232.445H118.788C118.47 232.445 118.195 232.495 117.963 232.593C117.734 232.692 117.546 232.827 117.398 233C117.25 233.173 117.139 233.375 117.065 233.607C116.993 233.836 116.958 234.08 116.958 234.339V235.186C116.958 235.4 116.981 235.59 117.028 235.755C117.075 235.918 117.14 236.055 117.224 236.166C117.31 236.274 117.409 236.357 117.52 236.414C117.631 236.47 117.75 236.499 117.878 236.499C118.012 236.499 118.132 236.472 118.241 236.417C118.349 236.361 118.442 236.283 118.518 236.184C118.595 236.086 118.653 235.969 118.692 235.833C118.732 235.697 118.751 235.549 118.751 235.389C118.751 235.236 118.732 235.093 118.692 234.96C118.655 234.825 118.6 234.706 118.526 234.605C118.452 234.502 118.359 234.421 118.248 234.365C118.14 234.306 118.014 234.276 117.871 234.276C117.694 234.276 117.532 234.318 117.387 234.402C117.244 234.486 117.128 234.595 117.039 234.731C116.953 234.864 116.906 235.006 116.898 235.156L116.558 235.045C116.578 234.816 116.628 234.61 116.71 234.428C116.794 234.245 116.903 234.09 117.039 233.962C117.175 233.833 117.331 233.736 117.509 233.669C117.689 233.6 117.886 233.566 118.1 233.566C118.362 233.566 118.589 233.615 118.781 233.714C118.973 233.812 119.132 233.947 119.258 234.117C119.386 234.285 119.481 234.477 119.543 234.694C119.607 234.908 119.639 235.133 119.639 235.367C119.639 235.626 119.599 235.867 119.52 236.092C119.442 236.314 119.326 236.509 119.173 236.676C119.022 236.844 118.839 236.975 118.622 237.068C118.407 237.162 118.163 237.209 117.89 237.209C117.601 237.209 117.343 237.153 117.117 237.042C116.892 236.931 116.701 236.778 116.543 236.584C116.388 236.389 116.27 236.165 116.188 235.911C116.107 235.657 116.066 235.388 116.066 235.104V234.735C116.066 234.325 116.118 233.939 116.222 233.577C116.325 233.212 116.484 232.89 116.699 232.612C116.916 232.333 117.193 232.115 117.531 231.957C117.869 231.797 118.272 231.717 118.74 231.717Z" fill="#0F3F62"/>
<path d="M160.635 224.045L159.15 228.135H158.543L160.253 223.648H160.644L160.635 224.045ZM161.88 228.135L160.392 224.045L160.382 223.648H160.774L162.49 228.135H161.88ZM161.803 226.474V226.961H159.282V226.474H161.803ZM164.999 226.375H163.8V225.891H164.999C165.231 225.891 165.419 225.854 165.563 225.78C165.707 225.706 165.811 225.603 165.877 225.472C165.945 225.341 165.979 225.191 165.979 225.022C165.979 224.868 165.945 224.723 165.877 224.587C165.811 224.452 165.707 224.343 165.563 224.261C165.419 224.177 165.231 224.134 164.999 224.134H163.939V228.135H163.344V223.648H164.999C165.338 223.648 165.624 223.706 165.859 223.823C166.093 223.94 166.271 224.103 166.392 224.31C166.513 224.516 166.574 224.751 166.574 225.016C166.574 225.304 166.513 225.549 166.392 225.752C166.271 225.956 166.093 226.111 165.859 226.218C165.624 226.323 165.338 226.375 164.999 226.375ZM167.578 223.648H169.064C169.401 223.648 169.685 223.699 169.917 223.802C170.152 223.904 170.329 224.056 170.45 224.258C170.574 224.457 170.635 224.703 170.635 224.994C170.635 225.2 170.593 225.388 170.509 225.558C170.427 225.727 170.308 225.871 170.152 225.99C169.997 226.107 169.813 226.194 169.597 226.252L169.43 226.316H168.034L168.028 225.833H169.082C169.296 225.833 169.474 225.796 169.615 225.722C169.757 225.646 169.864 225.544 169.936 225.417C170.008 225.289 170.044 225.148 170.044 224.994C170.044 224.822 170.01 224.671 169.942 224.541C169.874 224.412 169.767 224.312 169.621 224.242C169.478 224.17 169.292 224.134 169.064 224.134H168.173V228.135H167.578V223.648ZM170.201 228.135L169.11 226.101L169.729 226.098L170.836 228.098V228.135H170.201Z" fill="#7C8DB5"/>
<path d="M162.281 234.013V234.834C162.281 235.276 162.241 235.648 162.163 235.951C162.084 236.255 161.97 236.499 161.822 236.684C161.674 236.868 161.496 237.003 161.286 237.087C161.079 237.168 160.845 237.209 160.583 237.209C160.376 237.209 160.185 237.183 160.01 237.131C159.835 237.079 159.677 236.997 159.537 236.883C159.399 236.767 159.28 236.617 159.182 236.432C159.083 236.247 159.008 236.023 158.956 235.759C158.904 235.495 158.878 235.187 158.878 234.834V234.013C158.878 233.572 158.918 233.202 158.997 232.904C159.078 232.606 159.193 232.366 159.341 232.186C159.489 232.004 159.666 231.873 159.873 231.794C160.083 231.716 160.317 231.676 160.576 231.676C160.786 231.676 160.978 231.702 161.153 231.754C161.33 231.803 161.488 231.883 161.626 231.994C161.764 232.103 161.881 232.248 161.978 232.431C162.076 232.611 162.151 232.831 162.203 233.093C162.255 233.354 162.281 233.661 162.281 234.013ZM161.593 234.945V233.899C161.593 233.657 161.578 233.445 161.549 233.263C161.521 233.078 161.481 232.92 161.427 232.789C161.372 232.659 161.303 232.553 161.219 232.471C161.138 232.39 161.043 232.331 160.935 232.294C160.829 232.254 160.709 232.235 160.576 232.235C160.413 232.235 160.269 232.265 160.143 232.327C160.018 232.386 159.911 232.481 159.825 232.612C159.741 232.742 159.677 232.914 159.633 233.126C159.588 233.338 159.566 233.596 159.566 233.899V234.945C159.566 235.187 159.58 235.4 159.607 235.585C159.637 235.77 159.68 235.93 159.736 236.066C159.793 236.199 159.862 236.309 159.944 236.395C160.025 236.481 160.119 236.546 160.225 236.587C160.333 236.627 160.453 236.647 160.583 236.647C160.751 236.647 160.898 236.615 161.023 236.55C161.149 236.486 161.254 236.386 161.338 236.251C161.424 236.113 161.488 235.937 161.53 235.722C161.572 235.505 161.593 235.246 161.593 234.945ZM166.944 231.75V232.135L164.714 237.135H163.993L166.219 232.312H163.305V231.75H166.944Z" fill="black"/>
<path d="M208.055 224.045L206.57 228.135H205.962L207.673 223.648H208.064L208.055 224.045ZM209.3 228.135L207.812 224.045L207.802 223.648H208.194L209.91 228.135H209.3ZM209.223 226.474V226.961H206.702V226.474H209.223ZM212.419 226.375H211.22V225.891H212.419C212.651 225.891 212.839 225.854 212.983 225.78C213.127 225.706 213.231 225.603 213.297 225.472C213.365 225.341 213.399 225.191 213.399 225.022C213.399 224.868 213.365 224.723 213.297 224.587C213.231 224.452 213.127 224.343 212.983 224.261C212.839 224.177 212.651 224.134 212.419 224.134H211.359V228.135H210.764V223.648H212.419C212.758 223.648 213.044 223.706 213.279 223.823C213.513 223.94 213.691 224.103 213.812 224.31C213.933 224.516 213.994 224.751 213.994 225.016C213.994 225.304 213.933 225.549 213.812 225.752C213.691 225.956 213.513 226.111 213.279 226.218C213.044 226.323 212.758 226.375 212.419 226.375ZM214.998 223.648H216.484C216.821 223.648 217.105 223.699 217.337 223.802C217.571 223.904 217.749 224.056 217.87 224.258C217.994 224.457 218.055 224.703 218.055 224.994C218.055 225.2 218.013 225.388 217.929 225.558C217.847 225.727 217.728 225.871 217.571 225.99C217.417 226.107 217.232 226.194 217.017 226.252L216.85 226.316H215.454L215.448 225.833H216.502C216.716 225.833 216.893 225.796 217.035 225.722C217.177 225.646 217.284 225.544 217.356 225.417C217.428 225.289 217.464 225.148 217.464 224.994C217.464 224.822 217.43 224.671 217.362 224.541C217.294 224.412 217.187 224.312 217.041 224.242C216.898 224.17 216.712 224.134 216.484 224.134H215.593V228.135H214.998V223.648ZM217.621 228.135L216.53 226.101L217.149 226.098L218.256 228.098V228.135H217.621Z" fill="#7C8DB5"/>
<path d="M209.701 234.013V234.834C209.701 235.276 209.661 235.648 209.582 235.951C209.504 236.255 209.39 236.499 209.242 236.684C209.094 236.868 208.916 237.003 208.706 237.087C208.499 237.168 208.265 237.209 208.003 237.209C207.796 237.209 207.605 237.183 207.43 237.131C207.255 237.079 207.097 236.997 206.957 236.883C206.819 236.767 206.7 236.617 206.602 236.432C206.503 236.247 206.428 236.023 206.376 235.759C206.324 235.495 206.298 235.187 206.298 234.834V234.013C206.298 233.572 206.338 233.202 206.417 232.904C206.498 232.606 206.613 232.366 206.761 232.186C206.909 232.004 207.086 231.873 207.293 231.794C207.503 231.716 207.737 231.676 207.996 231.676C208.205 231.676 208.398 231.702 208.573 231.754C208.75 231.803 208.908 231.883 209.046 231.994C209.184 232.103 209.301 232.248 209.398 232.431C209.496 232.611 209.571 232.831 209.623 233.093C209.675 233.354 209.701 233.661 209.701 234.013ZM209.013 234.945V233.899C209.013 233.657 208.998 233.445 208.969 233.263C208.941 233.078 208.901 232.92 208.846 232.789C208.792 232.659 208.723 232.553 208.639 232.471C208.558 232.39 208.463 232.331 208.355 232.294C208.249 232.254 208.129 232.235 207.996 232.235C207.833 232.235 207.689 232.265 207.563 232.327C207.437 232.386 207.331 232.481 207.245 232.612C207.161 232.742 207.097 232.914 207.053 233.126C207.008 233.338 206.986 233.596 206.986 233.899V234.945C206.986 235.187 207 235.4 207.027 235.585C207.056 235.77 207.1 235.93 207.156 236.066C207.213 236.199 207.282 236.309 207.363 236.395C207.445 236.481 207.539 236.546 207.645 236.587C207.753 236.627 207.873 236.647 208.003 236.647C208.171 236.647 208.318 236.615 208.443 236.55C208.569 236.486 208.674 236.386 208.758 236.251C208.844 236.113 208.908 235.937 208.95 235.722C208.992 235.505 209.013 235.246 209.013 234.945ZM214.279 235.678C214.279 236.006 214.203 236.284 214.05 236.513C213.899 236.74 213.695 236.913 213.436 237.031C213.179 237.15 212.89 237.209 212.567 237.209C212.244 237.209 211.953 237.15 211.694 237.031C211.435 236.913 211.23 236.74 211.08 236.513C210.93 236.284 210.854 236.006 210.854 235.678C210.854 235.463 210.895 235.267 210.976 235.09C211.06 234.91 211.177 234.753 211.328 234.62C211.481 234.487 211.661 234.384 211.868 234.313C212.077 234.239 212.308 234.202 212.559 234.202C212.89 234.202 213.184 234.266 213.443 234.394C213.702 234.52 213.905 234.694 214.053 234.916C214.204 235.138 214.279 235.392 214.279 235.678ZM213.591 235.663C213.591 235.463 213.548 235.287 213.462 235.134C213.375 234.979 213.255 234.858 213.099 234.772C212.944 234.685 212.764 234.642 212.559 234.642C212.35 234.642 212.168 234.685 212.016 234.772C211.865 234.858 211.748 234.979 211.664 235.134C211.58 235.287 211.539 235.463 211.539 235.663C211.539 235.87 211.579 236.047 211.661 236.195C211.744 236.341 211.863 236.453 212.016 236.532C212.171 236.608 212.355 236.647 212.567 236.647C212.779 236.647 212.961 236.608 213.114 236.532C213.267 236.453 213.384 236.341 213.465 236.195C213.549 236.047 213.591 235.87 213.591 235.663ZM214.153 233.152C214.153 233.413 214.084 233.649 213.946 233.858C213.808 234.068 213.619 234.233 213.38 234.354C213.141 234.474 212.87 234.535 212.567 234.535C212.258 234.535 211.984 234.474 211.742 234.354C211.503 234.233 211.315 234.068 211.18 233.858C211.044 233.649 210.976 233.413 210.976 233.152C210.976 232.839 211.044 232.572 211.18 232.353C211.318 232.133 211.506 231.966 211.746 231.85C211.985 231.734 212.257 231.676 212.563 231.676C212.871 231.676 213.145 231.734 213.384 231.85C213.623 231.966 213.811 232.133 213.946 232.353C214.084 232.572 214.153 232.839 214.153 233.152ZM213.469 233.163C213.469 232.983 213.431 232.824 213.354 232.686C213.278 232.548 213.172 232.439 213.036 232.36C212.901 232.279 212.743 232.238 212.563 232.238C212.383 232.238 212.225 232.276 212.09 232.353C211.956 232.427 211.852 232.533 211.775 232.671C211.701 232.809 211.664 232.973 211.664 233.163C211.664 233.348 211.701 233.509 211.775 233.647C211.852 233.785 211.958 233.893 212.093 233.969C212.229 234.045 212.387 234.084 212.567 234.084C212.747 234.084 212.903 234.045 213.036 233.969C213.172 233.893 213.278 233.785 213.354 233.647C213.431 233.509 213.469 233.348 213.469 233.163Z" fill="black"/>
<path d="M255.475 224.045L253.989 228.135H253.382L255.093 223.648H255.484L255.475 224.045ZM256.72 228.135L255.231 224.045L255.222 223.648H255.614L257.33 228.135H256.72ZM256.643 226.474V226.961H254.122V226.474H256.643ZM259.839 226.375H258.64V225.891H259.839C260.071 225.891 260.259 225.854 260.403 225.78C260.547 225.706 260.651 225.603 260.717 225.472C260.785 225.341 260.819 225.191 260.819 225.022C260.819 224.868 260.785 224.723 260.717 224.587C260.651 224.452 260.547 224.343 260.403 224.261C260.259 224.177 260.071 224.134 259.839 224.134H258.779V228.135H258.184V223.648H259.839C260.178 223.648 260.464 223.706 260.699 223.823C260.933 223.94 261.11 224.103 261.232 224.31C261.353 224.516 261.414 224.751 261.414 225.016C261.414 225.304 261.353 225.549 261.232 225.752C261.11 225.956 260.933 226.111 260.699 226.218C260.464 226.323 260.178 226.375 259.839 226.375ZM262.418 223.648H263.903C264.24 223.648 264.525 223.699 264.757 223.802C264.991 223.904 265.169 224.056 265.29 224.258C265.414 224.457 265.475 224.703 265.475 224.994C265.475 225.2 265.433 225.388 265.349 225.558C265.267 225.727 265.148 225.871 264.991 225.99C264.837 226.107 264.652 226.194 264.437 226.252L264.27 226.316H262.874L262.868 225.833H263.922C264.136 225.833 264.313 225.796 264.455 225.722C264.597 225.646 264.704 225.544 264.776 225.417C264.848 225.289 264.884 225.148 264.884 224.994C264.884 224.822 264.85 224.671 264.782 224.541C264.714 224.412 264.607 224.312 264.461 224.242C264.317 224.17 264.132 224.134 263.903 224.134H263.013V228.135H262.418V223.648ZM265.041 228.135L263.95 226.101L264.569 226.098L265.676 228.098V228.135H265.041Z" fill="#7C8DB5"/>
<path d="M257.121 234.013V234.834C257.121 235.276 257.081 235.648 257.002 235.951C256.923 236.255 256.81 236.499 256.662 236.684C256.514 236.868 256.335 237.003 256.126 237.087C255.919 237.168 255.685 237.209 255.423 237.209C255.216 237.209 255.025 237.183 254.85 237.131C254.675 237.079 254.517 236.997 254.377 236.883C254.238 236.767 254.12 236.617 254.022 236.432C253.923 236.247 253.848 236.023 253.796 235.759C253.744 235.495 253.718 235.187 253.718 234.834V234.013C253.718 233.572 253.758 233.202 253.837 232.904C253.918 232.606 254.033 232.366 254.181 232.186C254.328 232.004 254.506 231.873 254.713 231.794C254.923 231.716 255.157 231.676 255.416 231.676C255.625 231.676 255.818 231.702 255.993 231.754C256.17 231.803 256.328 231.883 256.466 231.994C256.604 232.103 256.721 232.248 256.817 232.431C256.916 232.611 256.991 232.831 257.043 233.093C257.095 233.354 257.121 233.661 257.121 234.013ZM256.433 234.945V233.899C256.433 233.657 256.418 233.445 256.388 233.263C256.361 233.078 256.321 232.92 256.266 232.789C256.212 232.659 256.143 232.553 256.059 232.471C255.978 232.39 255.883 232.331 255.775 232.294C255.669 232.254 255.549 232.235 255.416 232.235C255.253 232.235 255.109 232.265 254.983 232.327C254.857 232.386 254.751 232.481 254.665 232.612C254.581 232.742 254.517 232.914 254.473 233.126C254.428 233.338 254.406 233.596 254.406 233.899V234.945C254.406 235.187 254.42 235.4 254.447 235.585C254.476 235.77 254.52 235.93 254.576 236.066C254.633 236.199 254.702 236.309 254.783 236.395C254.865 236.481 254.958 236.546 255.064 236.587C255.173 236.627 255.293 236.647 255.423 236.647C255.591 236.647 255.738 236.615 255.863 236.55C255.989 236.486 256.094 236.386 256.178 236.251C256.264 236.113 256.328 235.937 256.37 235.722C256.412 235.505 256.433 235.246 256.433 234.945ZM258.984 236.562H259.055C259.449 236.562 259.77 236.506 260.016 236.395C260.263 236.284 260.453 236.135 260.586 235.948C260.719 235.76 260.81 235.549 260.859 235.315C260.909 235.079 260.933 234.836 260.933 234.587V233.762C260.933 233.518 260.905 233.301 260.848 233.111C260.794 232.921 260.718 232.762 260.619 232.634C260.523 232.506 260.413 232.408 260.29 232.342C260.167 232.275 260.036 232.242 259.898 232.242C259.74 232.242 259.598 232.274 259.473 232.338C259.349 232.4 259.244 232.487 259.158 232.601C259.074 232.714 259.01 232.847 258.966 233C258.921 233.153 258.899 233.319 258.899 233.499C258.899 233.66 258.919 233.815 258.958 233.965C258.998 234.116 259.058 234.251 259.14 234.372C259.221 234.493 259.322 234.589 259.443 234.661C259.566 234.73 259.71 234.764 259.876 234.764C260.028 234.764 260.171 234.735 260.305 234.675C260.44 234.614 260.56 234.531 260.663 234.428C260.769 234.322 260.853 234.202 260.915 234.069C260.979 233.936 261.016 233.796 261.026 233.651H261.351C261.351 233.856 261.311 234.058 261.229 234.257C261.15 234.455 261.039 234.635 260.896 234.797C260.753 234.96 260.586 235.091 260.393 235.189C260.201 235.286 259.992 235.334 259.765 235.334C259.498 235.334 259.268 235.282 259.073 235.178C258.878 235.075 258.718 234.937 258.592 234.764C258.469 234.592 258.377 234.399 258.315 234.187C258.256 233.973 258.226 233.756 258.226 233.536C258.226 233.28 258.262 233.04 258.333 232.815C258.405 232.591 258.511 232.394 258.651 232.223C258.792 232.051 258.966 231.916 259.173 231.82C259.383 231.724 259.624 231.676 259.898 231.676C260.206 231.676 260.469 231.738 260.686 231.861C260.903 231.984 261.079 232.149 261.214 232.357C261.352 232.564 261.454 232.797 261.518 233.056C261.582 233.314 261.614 233.581 261.614 233.854V234.102C261.614 234.381 261.595 234.664 261.558 234.953C261.524 235.239 261.456 235.512 261.355 235.774C261.256 236.035 261.112 236.269 260.922 236.476C260.732 236.681 260.485 236.844 260.179 236.965C259.876 237.083 259.501 237.142 259.055 237.142H258.984V236.562Z" fill="black"/>
<path d="M48.6032 68.5548V68.9492C48.6032 69.4917 48.5325 69.9782 48.3911 70.4088C48.2498 70.8395 48.0476 71.206 47.7846 71.5084C47.5249 71.8109 47.2126 72.0426 46.8477 72.2037C46.4828 72.3615 46.0785 72.4404 45.6347 72.4404C45.1942 72.4404 44.7915 72.3615 44.4266 72.2037C44.065 72.0426 43.751 71.8109 43.4848 71.5084C43.2185 71.206 43.0114 70.8395 42.8634 70.4088C42.7188 69.9782 42.6465 69.4917 42.6465 68.9492V68.5548C42.6465 68.0123 42.7188 67.5274 42.8634 67.1001C43.0081 66.6694 43.2119 66.3029 43.4749 66.0005C43.7412 65.6947 44.0551 65.463 44.4167 65.3052C44.7816 65.1441 45.1843 65.0636 45.6248 65.0636C46.0686 65.0636 46.473 65.1441 46.8379 65.3052C47.2028 65.463 47.5167 65.6947 47.7797 66.0005C48.0427 66.3029 48.2449 66.6694 48.3862 67.1001C48.5309 67.5274 48.6032 68.0123 48.6032 68.5548ZM47.3655 68.9492V68.5449C47.3655 68.1438 47.326 67.7904 47.2471 67.4847C47.1715 67.1757 47.0581 66.9176 46.9069 66.7105C46.759 66.5001 46.5765 66.3424 46.3596 66.2372C46.1426 66.1287 45.8977 66.0744 45.6248 66.0744C45.352 66.0744 45.1087 66.1287 44.895 66.2372C44.6814 66.3424 44.4989 66.5001 44.3477 66.7105C44.1998 66.9176 44.0863 67.1757 44.0074 67.4847C43.9285 67.7904 43.8891 68.1438 43.8891 68.5449V68.9492C43.8891 69.3503 43.9285 69.7053 44.0074 70.0143C44.0863 70.3234 44.2014 70.5847 44.3526 70.7984C44.5071 71.0088 44.6912 71.1682 44.9049 71.2767C45.1186 71.3819 45.3618 71.4345 45.6347 71.4345C45.9108 71.4345 46.1557 71.3819 46.3694 71.2767C46.5831 71.1682 46.7639 71.0088 46.9118 70.7984C47.0598 70.5847 47.1715 70.3234 47.2471 70.0143C47.326 69.7053 47.3655 69.3503 47.3655 68.9492ZM52.3999 67.0064V72.3418H51.2066V67.0064H52.3999ZM54.1504 67.0064V67.9433H49.4856V67.0064H54.1504ZM59.4314 67.0064V72.3418H58.243V67.0064H59.4314ZM58.9284 69.3684V70.3102C58.7838 70.3727 58.621 70.4302 58.4402 70.4828C58.2627 70.5321 58.0753 70.5732 57.8781 70.6061C57.6808 70.6357 57.482 70.6504 57.2814 70.6504C56.8113 70.6504 56.4053 70.5781 56.0635 70.4335C55.7249 70.2888 55.4635 70.0669 55.2794 69.7678C55.0986 69.4654 55.0082 69.0824 55.0082 68.6189V67.0015H56.1917V68.6189C56.1917 68.8851 56.2311 69.0972 56.31 69.255C56.3922 69.4128 56.5138 69.5262 56.6749 69.5952C56.836 69.6642 57.0382 69.6988 57.2814 69.6988C57.4852 69.6988 57.6776 69.6856 57.8584 69.6593C58.0392 69.6297 58.2183 69.5903 58.3958 69.541C58.5734 69.4917 58.7509 69.4341 58.9284 69.3684ZM63.2527 72.4404C62.8582 72.4404 62.5016 72.3763 62.1827 72.2481C61.8671 72.1166 61.5975 71.9342 61.374 71.7008C61.1538 71.4674 60.9845 71.1929 60.8661 70.8773C60.7478 70.5617 60.6886 70.2214 60.6886 69.8565V69.6593C60.6886 69.2418 60.7494 68.8638 60.871 68.5252C60.9927 68.1866 61.162 67.8973 61.3789 67.6573C61.5959 67.414 61.8523 67.2283 62.1482 67.1001C62.444 66.9719 62.7646 66.9078 63.1097 66.9078C63.4911 66.9078 63.8247 66.9719 64.1107 67.1001C64.3967 67.2283 64.6334 67.4091 64.8208 67.6425C65.0115 67.8726 65.1528 68.1471 65.2449 68.466C65.3402 68.7849 65.3879 69.1366 65.3879 69.5212V70.0291H61.2655V69.1761H64.2143V69.0824C64.2077 68.8687 64.165 68.6682 64.0861 68.4808C64.0105 68.2934 63.8938 68.1422 63.736 68.0271C63.5782 67.9121 63.3678 67.8545 63.1048 67.8545C62.9076 67.8545 62.7317 67.8973 62.5772 67.9828C62.426 68.0649 62.2994 68.1849 62.1975 68.3427C62.0956 68.5005 62.0167 68.6912 61.9608 68.9147C61.9082 69.135 61.8819 69.3832 61.8819 69.6593V69.8565C61.8819 70.09 61.9131 70.3069 61.9756 70.5074C62.0413 70.7047 62.1367 70.8773 62.2616 71.0252C62.3865 71.1731 62.5377 71.2898 62.7152 71.3753C62.8928 71.4575 63.0949 71.4986 63.3218 71.4986C63.6078 71.4986 63.8625 71.4411 64.0861 71.326C64.3096 71.2109 64.5036 71.0482 64.6679 70.8378L65.2942 71.4443C65.1791 71.612 65.0296 71.7731 64.8455 71.9276C64.6614 72.0788 64.4362 72.2021 64.1699 72.2974C63.9069 72.3928 63.6012 72.4404 63.2527 72.4404ZM68.9331 67.0064V72.3418H67.7398V67.0064H68.9331ZM70.6836 67.0064V67.9433H66.0189V67.0064H70.6836ZM74.1695 69.7333V69.6199C74.1695 69.2352 74.2254 68.8786 74.3371 68.5498C74.4489 68.2178 74.61 67.9302 74.8204 67.6869C75.0341 67.4403 75.2938 67.2497 75.5995 67.1149C75.9085 66.9768 76.257 66.9078 76.6449 66.9078C77.0361 66.9078 77.3845 66.9768 77.6903 67.1149C77.9993 67.2497 78.2606 67.4403 78.4743 67.6869C78.688 67.9302 78.8507 68.2178 78.9625 68.5498C79.0742 68.8786 79.1301 69.2352 79.1301 69.6199V69.7333C79.1301 70.1179 79.0742 70.4746 78.9625 70.8033C78.8507 71.132 78.688 71.4197 78.4743 71.6662C78.2606 71.9095 78.0009 72.1002 77.6952 72.2382C77.3895 72.373 77.0426 72.4404 76.6547 72.4404C76.2635 72.4404 75.9134 72.373 75.6044 72.2382C75.2987 72.1002 75.039 71.9095 74.8253 71.6662C74.6116 71.4197 74.4489 71.132 74.3371 70.8033C74.2254 70.4746 74.1695 70.1179 74.1695 69.7333ZM75.3579 69.6199V69.7333C75.3579 69.9732 75.3825 70.2001 75.4318 70.4138C75.4811 70.6274 75.5584 70.8148 75.6636 70.9759C75.7688 71.137 75.9036 71.2635 76.0679 71.3556C76.2323 71.4476 76.4279 71.4937 76.6547 71.4937C76.875 71.4937 77.0657 71.4476 77.2267 71.3556C77.3911 71.2635 77.5259 71.137 77.6311 70.9759C77.7363 70.8148 77.8135 70.6274 77.8628 70.4138C77.9154 70.2001 77.9417 69.9732 77.9417 69.7333V69.6199C77.9417 69.3832 77.9154 69.1596 77.8628 68.9492C77.8135 68.7356 77.7346 68.5465 77.6261 68.3822C77.521 68.2178 77.3862 68.0896 77.2218 67.9975C77.0607 67.9022 76.8684 67.8545 76.6449 67.8545C76.4213 67.8545 76.2274 67.9022 76.063 67.9975C75.9019 68.0896 75.7688 68.2178 75.6636 68.3822C75.5584 68.5465 75.4811 68.7356 75.4318 68.9492C75.3825 69.1596 75.3579 69.3832 75.3579 69.6199ZM84.2383 68.0321V74.3931H83.0499V67.0064H84.1446L84.2383 68.0321ZM87.7147 69.6248V69.7283C87.7147 70.1163 87.6687 70.4762 87.5766 70.8082C87.4878 71.137 87.3547 71.4246 87.1772 71.6712C87.003 71.9144 86.7876 72.1035 86.5312 72.2382C86.2748 72.373 85.9789 72.4404 85.6436 72.4404C85.3116 72.4404 85.0207 72.3796 84.7708 72.258C84.5243 72.133 84.3155 71.9572 84.1446 71.7303C83.9737 71.5035 83.8356 71.2372 83.7304 70.9315C83.6285 70.6225 83.5562 70.2839 83.5134 69.9157V69.5163C83.5562 69.1251 83.6285 68.7701 83.7304 68.4512C83.8356 68.1323 83.9737 67.8578 84.1446 67.6277C84.3155 67.3976 84.5243 67.2201 84.7708 67.0952C85.0174 66.9702 85.305 66.9078 85.6338 66.9078C85.9691 66.9078 86.2666 66.9735 86.5263 67.105C86.786 67.2332 87.0046 67.4173 87.1821 67.6573C87.3596 67.894 87.4928 68.18 87.5815 68.5153C87.6703 68.8473 87.7147 69.2172 87.7147 69.6248ZM86.5263 69.7283V69.6248C86.5263 69.3782 86.5033 69.1498 86.4573 68.9394C86.4112 68.7257 86.3389 68.5383 86.2403 68.3772C86.1417 68.2162 86.0151 68.0912 85.8606 68.0025C85.7094 67.9104 85.5269 67.8644 85.3133 67.8644C85.1029 67.8644 84.9221 67.9006 84.7708 67.9729C84.6196 68.0419 84.4931 68.1389 84.3912 68.2638C84.2892 68.3887 84.2103 68.535 84.1545 68.7027C84.0986 68.8671 84.0591 69.0462 84.0361 69.2402V70.1968C84.0756 70.4335 84.143 70.6504 84.2383 70.8477C84.3336 71.0449 84.4684 71.2027 84.6426 71.3211C84.8202 71.4361 85.047 71.4937 85.3231 71.4937C85.5368 71.4937 85.7192 71.4476 85.8705 71.3556C86.0217 71.2635 86.145 71.137 86.2403 70.9759C86.3389 70.8115 86.4112 70.6225 86.4573 70.4088C86.5033 70.1951 86.5263 69.9683 86.5263 69.7283ZM91.9355 71.2718V68.7273C91.9355 68.5367 91.9009 68.3723 91.8319 68.2342C91.7629 68.0962 91.6577 67.9893 91.5163 67.9137C91.3783 67.8381 91.204 67.8003 90.9936 67.8003C90.7997 67.8003 90.632 67.8332 90.4907 67.8989C90.3493 67.9647 90.2392 68.0534 90.1603 68.1652C90.0814 68.277 90.0419 68.4035 90.0419 68.5449H88.8585C88.8585 68.3345 88.9094 68.1307 89.0113 67.9334C89.1133 67.7362 89.2612 67.5603 89.4551 67.4058C89.6491 67.2513 89.8809 67.1297 90.1504 67.0409C90.42 66.9522 90.7224 66.9078 91.0577 66.9078C91.4588 66.9078 91.8138 66.9752 92.1228 67.11C92.4351 67.2447 92.68 67.4486 92.8576 67.7214C93.0384 67.991 93.1288 68.3296 93.1288 68.7372V71.109C93.1288 71.3523 93.1452 71.5709 93.1781 71.7649C93.2142 71.9555 93.2652 72.1215 93.3309 72.2629V72.3418H92.113C92.0571 72.2136 92.0127 72.0509 91.9798 71.8536C91.9503 71.6531 91.9355 71.4591 91.9355 71.2718ZM92.108 69.0972L92.1179 69.8319H91.2648C91.0446 69.8319 90.8506 69.8533 90.683 69.896C90.5153 69.9354 90.3756 69.9946 90.2638 70.0735C90.1521 70.1524 90.0682 70.2477 90.0124 70.3595C89.9565 70.4713 89.9285 70.5978 89.9285 70.7392C89.9285 70.8806 89.9614 71.0104 90.0271 71.1288C90.0929 71.2438 90.1882 71.3342 90.3131 71.4C90.4414 71.4657 90.5959 71.4986 90.7767 71.4986C91.0199 71.4986 91.232 71.4493 91.4128 71.3507C91.5969 71.2487 91.7415 71.1255 91.8467 70.9808C91.9519 70.8329 92.0078 70.6932 92.0144 70.5617L92.399 71.0893C92.3595 71.2241 92.2921 71.3687 92.1968 71.5232C92.1015 71.6777 91.9766 71.8257 91.822 71.967C91.6708 72.1051 91.4884 72.2185 91.2747 72.3073C91.0643 72.396 90.821 72.4404 90.5449 72.4404C90.1964 72.4404 89.8858 72.3714 89.6129 72.2333C89.3401 72.092 89.1264 71.9029 88.9719 71.6662C88.8174 71.4263 88.7401 71.1551 88.7401 70.8526C88.7401 70.5699 88.7927 70.3201 88.8979 70.1031C89.0064 69.8828 89.1642 69.6988 89.3713 69.5508C89.5817 69.4029 89.8381 69.2911 90.1406 69.2155C90.443 69.1366 90.7882 69.0972 91.1761 69.0972H92.108ZM96.7529 71.4937C96.9468 71.4937 97.1211 71.4559 97.2756 71.3802C97.4334 71.3013 97.5599 71.1929 97.6553 71.0548C97.7539 70.9167 97.8081 70.7573 97.818 70.5765H98.9373C98.9308 70.9217 98.8289 71.2356 98.6316 71.5183C98.4344 71.801 98.173 72.0262 97.8476 72.1939C97.5221 72.3582 97.1622 72.4404 96.7677 72.4404C96.3601 72.4404 96.005 72.3714 95.7026 72.2333C95.4001 72.092 95.1487 71.898 94.9481 71.6515C94.7476 71.4049 94.5964 71.1205 94.4945 70.7984C94.3959 70.4762 94.3465 70.131 94.3465 69.7629V69.5903C94.3465 69.2221 94.3959 68.8769 94.4945 68.5548C94.5964 68.2293 94.7476 67.9433 94.9481 67.6967C95.1487 67.4502 95.4001 67.2579 95.7026 67.1198C96.005 66.9785 96.3584 66.9078 96.7628 66.9078C97.1901 66.9078 97.5649 66.9933 97.887 67.1642C98.2092 67.3319 98.4623 67.5669 98.6464 67.8693C98.8338 68.1685 98.9308 68.5169 98.9373 68.9147H97.818C97.8081 68.7175 97.7588 68.54 97.6701 68.3822C97.5846 68.2211 97.463 68.0929 97.3052 67.9975C97.1507 67.9022 96.9649 67.8545 96.748 67.8545C96.508 67.8545 96.3091 67.9039 96.1513 68.0025C95.9935 68.0978 95.8702 68.2293 95.7815 68.397C95.6927 68.5613 95.6286 68.7471 95.5892 68.9542C95.553 69.158 95.5349 69.37 95.5349 69.5903V69.7629C95.5349 69.9831 95.553 70.1968 95.5892 70.4039C95.6253 70.611 95.6878 70.7967 95.7765 70.9611C95.8686 71.1222 95.9935 71.252 96.1513 71.3507C96.3091 71.446 96.5096 71.4937 96.7529 71.4937ZM100.959 67.0064L101.975 68.7766L103.01 67.0064H104.317L102.7 69.6248L104.381 72.3418H103.074L101.989 70.4976L100.905 72.3418H99.593L101.27 69.6248L99.6571 67.0064H100.959ZM104.968 69.7333V69.6199C104.968 69.2352 105.024 68.8786 105.135 68.5498C105.247 68.2178 105.408 67.9302 105.619 67.6869C105.832 67.4403 106.092 67.2497 106.398 67.1149C106.707 66.9768 107.055 66.9078 107.443 66.9078C107.834 66.9078 108.183 66.9768 108.488 67.1149C108.797 67.2497 109.059 67.4403 109.272 67.6869C109.486 67.9302 109.649 68.2178 109.761 68.5498C109.872 68.8786 109.928 69.2352 109.928 69.6199V69.7333C109.928 70.1179 109.872 70.4746 109.761 70.8033C109.649 71.132 109.486 71.4197 109.272 71.6662C109.059 71.9095 108.799 72.1002 108.493 72.2382C108.188 72.373 107.841 72.4404 107.453 72.4404C107.062 72.4404 106.712 72.373 106.403 72.2382C106.097 72.1002 105.837 71.9095 105.623 71.6662C105.41 71.4197 105.247 71.132 105.135 70.8033C105.024 70.4746 104.968 70.1179 104.968 69.7333ZM106.156 69.6199V69.7333C106.156 69.9732 106.181 70.2001 106.23 70.4138C106.279 70.6274 106.357 70.8148 106.462 70.9759C106.567 71.137 106.702 71.2635 106.866 71.3556C107.03 71.4476 107.226 71.4937 107.453 71.4937C107.673 71.4937 107.864 71.4476 108.025 71.3556C108.189 71.2635 108.324 71.137 108.429 70.9759C108.534 70.8148 108.612 70.6274 108.661 70.4138C108.714 70.2001 108.74 69.9732 108.74 69.7333V69.6199C108.74 69.3832 108.714 69.1596 108.661 68.9492C108.612 68.7356 108.533 68.5465 108.424 68.3822C108.319 68.2178 108.184 68.0896 108.02 67.9975C107.859 67.9022 107.667 67.8545 107.443 67.8545C107.219 67.8545 107.026 67.9022 106.861 67.9975C106.7 68.0896 106.567 68.2178 106.462 68.3822C106.357 68.5465 106.279 68.7356 106.23 68.9492C106.181 69.1596 106.156 69.3832 106.156 69.6199ZM111.738 67.0064H112.926L112.867 68.8851C112.851 69.4308 112.788 69.8993 112.68 70.2905C112.571 70.6817 112.43 71.0121 112.256 71.2816C112.081 71.5479 111.884 71.7665 111.664 71.9375C111.447 72.1084 111.218 72.2432 110.978 72.3418H110.628V71.4049L110.796 71.395C110.937 71.2438 111.059 71.0926 111.161 70.9414C111.266 70.7869 111.355 70.6176 111.427 70.4335C111.499 70.2461 111.555 70.0275 111.595 69.7777C111.637 69.5278 111.665 69.2303 111.679 68.8851L111.738 67.0064ZM112.053 67.0064H115.436V72.3418H114.253V68.0123H112.053V67.0064ZM110.357 71.395H116.166V73.9296H114.977V72.3418H111.56V73.9296H110.352L110.357 71.395ZM120.224 71.2718V68.7273C120.224 68.5367 120.189 68.3723 120.12 68.2342C120.051 68.0962 119.946 67.9893 119.805 67.9137C119.667 67.8381 119.492 67.8003 119.282 67.8003C119.088 67.8003 118.92 67.8332 118.779 67.8989C118.638 67.9647 118.528 68.0534 118.449 68.1652C118.37 68.277 118.33 68.4035 118.33 68.5449H117.147C117.147 68.3345 117.198 68.1307 117.3 67.9334C117.402 67.7362 117.55 67.5603 117.744 67.4058C117.938 67.2513 118.169 67.1297 118.439 67.0409C118.708 66.9522 119.011 66.9078 119.346 66.9078C119.747 66.9078 120.102 66.9752 120.411 67.11C120.724 67.2447 120.968 67.4486 121.146 67.7214C121.327 67.991 121.417 68.3296 121.417 68.7372V71.109C121.417 71.3523 121.434 71.5709 121.467 71.7649C121.503 71.9555 121.554 72.1215 121.619 72.2629V72.3418H120.401C120.346 72.2136 120.301 72.0509 120.268 71.8536C120.239 71.6531 120.224 71.4591 120.224 71.2718ZM120.396 69.0972L120.406 69.8319H119.553C119.333 69.8319 119.139 69.8533 118.971 69.896C118.804 69.9354 118.664 69.9946 118.552 70.0735C118.441 70.1524 118.357 70.2477 118.301 70.3595C118.245 70.4713 118.217 70.5978 118.217 70.7392C118.217 70.8806 118.25 71.0104 118.316 71.1288C118.381 71.2438 118.477 71.3342 118.602 71.4C118.73 71.4657 118.884 71.4986 119.065 71.4986C119.308 71.4986 119.52 71.4493 119.701 71.3507C119.885 71.2487 120.03 71.1255 120.135 70.9808C120.24 70.8329 120.296 70.6932 120.303 70.5617L120.687 71.0893C120.648 71.2241 120.581 71.3687 120.485 71.5232C120.39 71.6777 120.265 71.8257 120.11 71.967C119.959 72.1051 119.777 72.2185 119.563 72.3073C119.353 72.396 119.109 72.4404 118.833 72.4404C118.485 72.4404 118.174 72.3714 117.901 72.2333C117.629 72.092 117.415 71.9029 117.26 71.6662C117.106 71.4263 117.029 71.1551 117.029 70.8526C117.029 70.5699 117.081 70.3201 117.186 70.1031C117.295 69.8828 117.453 69.6988 117.66 69.5508C117.87 69.4029 118.127 69.2911 118.429 69.2155C118.731 69.1366 119.077 69.0972 119.465 69.0972H120.396ZM123.769 67.0064L124.785 68.7766L125.82 67.0064H127.127L125.51 69.6248L127.191 72.3418H125.885L124.8 70.4976L123.715 72.3418H122.403L124.08 69.6248L122.467 67.0064H123.769Z" fill="#0F3F62"/>
<path d="M44.2256 100.737V101.677H43.7634V100.737H44.2256ZM44.1702 105.769V106.592H43.711V105.769H44.1702ZM44.7865 104.795C44.7865 104.672 44.7588 104.561 44.7033 104.463C44.6479 104.364 44.5564 104.274 44.429 104.191C44.3017 104.109 44.1311 104.033 43.9175 103.963C43.6586 103.883 43.4346 103.786 43.2456 103.671C43.0586 103.556 42.9138 103.413 42.811 103.242C42.7104 103.072 42.66 102.865 42.66 102.623C42.66 102.37 42.7145 102.152 42.8234 101.969C42.9323 101.786 43.0864 101.646 43.2857 101.547C43.485 101.449 43.7192 101.399 43.9883 101.399C44.1979 101.399 44.3849 101.431 44.5492 101.495C44.7136 101.556 44.8523 101.649 44.9653 101.772C45.0804 101.895 45.1677 102.046 45.2273 102.225C45.2889 102.404 45.3197 102.61 45.3197 102.845H44.7526C44.7526 102.707 44.7362 102.581 44.7033 102.466C44.6705 102.35 44.6212 102.251 44.5554 102.167C44.4897 102.08 44.4095 102.015 44.315 101.969C44.2205 101.922 44.1116 101.898 43.9883 101.898C43.8157 101.898 43.673 101.928 43.56 101.988C43.449 102.047 43.3668 102.132 43.3134 102.241C43.26 102.347 43.2333 102.472 43.2333 102.613C43.2333 102.745 43.26 102.86 43.3134 102.959C43.3668 103.057 43.4572 103.147 43.5846 103.227C43.714 103.305 43.8918 103.382 44.1178 103.458C44.3828 103.542 44.6078 103.642 44.7927 103.757C44.9776 103.87 45.1184 104.01 45.2149 104.176C45.3115 104.34 45.3598 104.545 45.3598 104.789C45.3598 105.054 45.3002 105.278 45.181 105.461C45.0619 105.642 44.8944 105.78 44.6787 105.874C44.4629 105.969 44.2102 106.016 43.9205 106.016C43.7459 106.016 43.5733 105.992 43.4028 105.945C43.2322 105.898 43.0781 105.821 42.9405 105.714C42.8028 105.605 42.6929 105.462 42.6107 105.285C42.5285 105.107 42.4874 104.888 42.4874 104.629H43.0607C43.0607 104.804 43.0853 104.949 43.1346 105.064C43.186 105.177 43.2538 105.267 43.3381 105.335C43.4223 105.401 43.5147 105.448 43.6154 105.477C43.7182 105.503 43.8199 105.517 43.9205 105.517C44.1054 105.517 44.2616 105.488 44.389 105.43C44.5184 105.371 44.617 105.287 44.6848 105.178C44.7526 105.069 44.7865 104.941 44.7865 104.795ZM48.198 101.439V105.951H47.6278V102.151L46.4783 102.57V102.056L48.1086 101.439H48.198ZM52.9439 103.35V104.034C52.9439 104.402 52.911 104.712 52.8452 104.965C52.7795 105.218 52.685 105.421 52.5617 105.575C52.4384 105.729 52.2895 105.841 52.1148 105.911C51.9422 105.979 51.7471 106.013 51.5293 106.013C51.3567 106.013 51.1974 105.991 51.0516 105.948C50.9057 105.905 50.7742 105.836 50.6571 105.742C50.542 105.645 50.4434 105.52 50.3612 105.366C50.279 105.212 50.2164 105.025 50.1732 104.805C50.1301 104.585 50.1085 104.328 50.1085 104.034V103.35C50.1085 102.982 50.1414 102.674 50.2071 102.425C50.2749 102.177 50.3705 101.978 50.4937 101.828C50.617 101.676 50.765 101.567 50.9375 101.501C51.1122 101.435 51.3074 101.402 51.5231 101.402C51.6977 101.402 51.858 101.424 52.0039 101.467C52.1518 101.508 52.2833 101.575 52.3984 101.667C52.5134 101.758 52.611 101.879 52.6911 102.031C52.7733 102.181 52.836 102.365 52.8791 102.583C52.9223 102.8 52.9439 103.056 52.9439 103.35ZM52.3706 104.127V103.255C52.3706 103.053 52.3583 102.876 52.3336 102.724C52.311 102.57 52.2771 102.439 52.2319 102.33C52.1867 102.221 52.1292 102.133 52.0594 102.065C51.9916 101.997 51.9124 101.948 51.822 101.917C51.7337 101.884 51.6341 101.868 51.5231 101.868C51.3875 101.868 51.2673 101.893 51.1625 101.945C51.0577 101.994 50.9694 102.073 50.8975 102.182C50.8276 102.291 50.7742 102.434 50.7372 102.61C50.7002 102.787 50.6817 103.002 50.6817 103.255V104.127C50.6817 104.328 50.693 104.506 50.7156 104.66C50.7403 104.814 50.7763 104.947 50.8235 105.061C50.8708 105.171 50.9283 105.263 50.9961 105.335C51.0639 105.407 51.142 105.46 51.2303 105.495C51.3207 105.528 51.4204 105.544 51.5293 105.544C51.669 105.544 51.7912 105.518 51.896 105.464C52.0008 105.411 52.0881 105.328 52.158 105.215C52.2299 105.1 52.2833 104.953 52.3182 104.774C52.3532 104.593 52.3706 104.377 52.3706 104.127ZM54.5647 101.217V105.951H53.9915V101.217H54.5647ZM56.6018 102.617L55.1472 104.173L54.3336 105.017L54.2873 104.41L54.8698 103.714L55.9053 102.617H56.6018ZM56.081 105.951L54.8914 104.361L55.1872 103.852L56.7528 105.951H56.081Z" fill="#7C8DB5"/>
<path d="M44.2256 126.614V127.554H43.7634V126.614H44.2256ZM44.1702 131.646V132.469H43.711V131.646H44.1702ZM44.7865 130.672C44.7865 130.549 44.7588 130.438 44.7033 130.34C44.6479 130.241 44.5564 130.151 44.429 130.068C44.3017 129.986 44.1311 129.91 43.9175 129.84C43.6586 129.76 43.4346 129.663 43.2456 129.548C43.0586 129.432 42.9138 129.29 42.811 129.119C42.7104 128.949 42.66 128.742 42.66 128.5C42.66 128.247 42.7145 128.029 42.8234 127.846C42.9323 127.663 43.0864 127.523 43.2857 127.424C43.485 127.325 43.7192 127.276 43.9883 127.276C44.1979 127.276 44.3849 127.308 44.5492 127.372C44.7136 127.433 44.8523 127.526 44.9653 127.649C45.0804 127.772 45.1677 127.923 45.2273 128.102C45.2889 128.281 45.3197 128.487 45.3197 128.722H44.7526C44.7526 128.584 44.7362 128.458 44.7033 128.342C44.6705 128.227 44.6212 128.128 44.5554 128.044C44.4897 127.957 44.4095 127.892 44.315 127.846C44.2205 127.799 44.1116 127.775 43.9883 127.775C43.8157 127.775 43.673 127.805 43.56 127.865C43.449 127.924 43.3668 128.009 43.3134 128.118C43.26 128.224 43.2333 128.349 43.2333 128.49C43.2333 128.622 43.26 128.737 43.3134 128.836C43.3668 128.934 43.4572 129.024 43.5846 129.104C43.714 129.182 43.8918 129.259 44.1178 129.335C44.3828 129.419 44.6078 129.519 44.7927 129.634C44.9776 129.747 45.1184 129.887 45.2149 130.053C45.3115 130.217 45.3598 130.422 45.3598 130.666C45.3598 130.931 45.3002 131.155 45.181 131.338C45.0619 131.519 44.8944 131.657 44.6787 131.751C44.4629 131.846 44.2102 131.893 43.9205 131.893C43.7459 131.893 43.5733 131.869 43.4028 131.822C43.2322 131.775 43.0781 131.698 42.9405 131.591C42.8028 131.482 42.6929 131.339 42.6107 131.162C42.5285 130.984 42.4874 130.765 42.4874 130.506H43.0607C43.0607 130.681 43.0853 130.825 43.1346 130.941C43.186 131.054 43.2538 131.144 43.3381 131.212C43.4223 131.277 43.5147 131.325 43.6154 131.354C43.7182 131.38 43.8199 131.394 43.9205 131.394C44.1054 131.394 44.2616 131.365 44.389 131.307C44.5184 131.248 44.617 131.163 44.6848 131.055C44.7526 130.946 44.7865 130.818 44.7865 130.672ZM47.0453 129.692L46.5892 129.575L46.8142 127.341H49.1164V127.868H47.2981L47.1625 129.088C47.2446 129.041 47.3484 128.997 47.4737 128.956C47.6011 128.915 47.747 128.894 47.9114 128.894C48.1189 128.894 48.3048 128.93 48.4692 129.002C48.6335 129.072 48.7733 129.173 48.8883 129.304C49.0054 129.436 49.0948 129.594 49.1564 129.779C49.2181 129.964 49.2489 130.17 49.2489 130.398C49.2489 130.614 49.2191 130.812 49.1595 130.993C49.102 131.174 49.0147 131.332 48.8976 131.468C48.7805 131.601 48.6325 131.705 48.4538 131.779C48.2771 131.853 48.0685 131.89 47.8281 131.89C47.6473 131.89 47.4758 131.865 47.3135 131.816C47.1532 131.764 47.0094 131.687 46.882 131.585C46.7567 131.48 46.6539 131.35 46.5738 131.196C46.4957 131.04 46.4464 130.857 46.4259 130.648H46.9683C46.9929 130.816 47.0423 130.958 47.1162 131.073C47.1902 131.188 47.2868 131.275 47.4059 131.335C47.5271 131.393 47.6679 131.421 47.8281 131.421C47.9637 131.421 48.0839 131.398 48.1887 131.35C48.2935 131.303 48.3819 131.235 48.4538 131.147C48.5257 131.059 48.5801 130.952 48.6171 130.827C48.6561 130.701 48.6757 130.56 48.6757 130.404C48.6757 130.263 48.6561 130.131 48.6171 130.01C48.5781 129.889 48.5195 129.783 48.4414 129.692C48.3654 129.602 48.2719 129.532 48.161 129.483C48.05 129.431 47.9227 129.406 47.7788 129.406C47.5878 129.406 47.4429 129.431 47.3443 129.483C47.2477 129.534 47.1481 129.604 47.0453 129.692ZM50.7619 127.094V131.828H50.1886V127.094H50.7619ZM52.799 128.494L51.3444 130.05L50.5307 130.894L50.4845 130.287L51.067 129.591L52.1025 128.494H52.799ZM52.2782 131.828L51.0886 130.238L51.3844 129.729L52.95 131.828H52.2782Z" fill="#7C8DB5"/>
<path d="M45.4615 159.131V159.6H42.5244V159.19L43.9945 157.553C44.1753 157.352 44.315 157.181 44.4136 157.042C44.5143 156.9 44.5842 156.774 44.6232 156.663C44.6643 156.55 44.6848 156.434 44.6848 156.317C44.6848 156.169 44.654 156.036 44.5924 155.917C44.5328 155.796 44.4445 155.699 44.3273 155.627C44.2102 155.555 44.0685 155.519 43.902 155.519C43.7027 155.519 43.5363 155.558 43.4028 155.636C43.2713 155.712 43.1727 155.819 43.1069 155.957C43.0412 156.094 43.0083 156.253 43.0083 156.431H42.4381C42.4381 156.179 42.4936 155.948 42.6046 155.738C42.7155 155.528 42.8799 155.362 43.0977 155.239C43.3155 155.113 43.5836 155.051 43.902 155.051C44.1856 155.051 44.428 155.101 44.6294 155.202C44.8307 155.3 44.9848 155.44 45.0917 155.621C45.2006 155.8 45.255 156.009 45.255 156.25C45.255 156.381 45.2324 156.515 45.1872 156.65C45.144 156.784 45.0834 156.917 45.0054 157.051C44.9293 157.184 44.84 157.316 44.7372 157.445C44.6366 157.575 44.5287 157.702 44.4136 157.828L43.2117 159.131H45.4615ZM46.9036 158.922V159.381C46.9036 159.568 46.8563 159.765 46.7618 159.973C46.6673 160.182 46.5348 160.357 46.3642 160.496L46.0406 160.271C46.1064 160.181 46.1619 160.089 46.2071 159.994C46.2523 159.902 46.2862 159.805 46.3088 159.704C46.3334 159.606 46.3457 159.501 46.3457 159.39V158.922H46.9036ZM48.5429 157.464L48.0868 157.347L48.3118 155.112H50.6139V155.639H48.7956L48.66 156.86C48.7422 156.813 48.846 156.768 48.9713 156.727C49.0987 156.686 49.2445 156.666 49.4089 156.666C49.6164 156.666 49.8024 156.702 49.9667 156.774C50.1311 156.843 50.2708 156.944 50.3859 157.076C50.503 157.207 50.5924 157.365 50.654 157.55C50.7156 157.735 50.7465 157.942 50.7465 158.17C50.7465 158.385 50.7167 158.584 50.6571 158.764C50.5996 158.945 50.5122 159.103 50.3951 159.239C50.278 159.373 50.1301 159.476 49.9513 159.55C49.7746 159.624 49.5661 159.661 49.3257 159.661C49.1449 159.661 48.9733 159.637 48.811 159.587C48.6508 159.536 48.5069 159.459 48.3796 159.356C48.2542 159.251 48.1515 159.122 48.0714 158.968C47.9933 158.812 47.944 158.629 47.9234 158.419H48.4659C48.4905 158.588 48.5398 158.729 48.6138 158.845C48.6877 158.96 48.7843 159.047 48.9035 159.107C49.0247 159.164 49.1654 159.193 49.3257 159.193C49.4613 159.193 49.5815 159.169 49.6863 159.122C49.7911 159.075 49.8794 159.007 49.9513 158.919C50.0232 158.83 50.0777 158.723 50.1147 158.598C50.1537 158.473 50.1732 158.332 50.1732 158.176C50.1732 158.034 50.1537 157.903 50.1147 157.781C50.0756 157.66 50.0171 157.554 49.939 157.464C49.863 157.373 49.7695 157.304 49.6585 157.254C49.5476 157.203 49.4202 157.177 49.2764 157.177C49.0853 157.177 48.9405 157.203 48.8418 157.254C48.7453 157.306 48.6456 157.376 48.5429 157.464ZM52.2594 154.866V159.6H51.6862V154.866H52.2594ZM54.2966 156.265L52.8419 157.821L52.0283 158.666L51.9821 158.059L52.5645 157.362L53.6001 156.265H54.2966ZM53.7757 159.6L52.5861 158.009L52.882 157.501L54.4476 159.6H53.7757Z" fill="#7C8DB5"/>
<path d="M45.3382 184.772V185.456C45.3382 185.824 45.3053 186.134 45.2396 186.387C45.1738 186.64 45.0793 186.843 44.9561 186.997C44.8328 187.151 44.6838 187.263 44.5092 187.333C44.3366 187.401 44.1414 187.435 43.9236 187.435C43.751 187.435 43.5918 187.413 43.4459 187.37C43.3 187.327 43.1685 187.258 43.0514 187.163C42.9364 187.067 42.8378 186.942 42.7556 186.787C42.6734 186.633 42.6107 186.446 42.5676 186.227C42.5244 186.007 42.5029 185.75 42.5029 185.456V184.772C42.5029 184.404 42.5357 184.096 42.6015 183.847C42.6693 183.599 42.7648 183.399 42.8881 183.249C43.0114 183.097 43.1593 182.989 43.3319 182.923C43.5065 182.857 43.7017 182.824 43.9175 182.824C44.0921 182.824 44.2524 182.846 44.3982 182.889C44.5462 182.93 44.6777 182.997 44.7927 183.089C44.9078 183.18 45.0054 183.301 45.0855 183.453C45.1677 183.603 45.2303 183.787 45.2735 184.005C45.3166 184.222 45.3382 184.478 45.3382 184.772ZM44.765 185.549V184.676C44.765 184.475 44.7526 184.298 44.728 184.146C44.7054 183.992 44.6715 183.861 44.6263 183.752C44.5811 183.643 44.5236 183.555 44.4537 183.487C44.3859 183.419 44.3068 183.37 44.2164 183.339C44.128 183.306 44.0284 183.29 43.9175 183.29C43.7818 183.29 43.6617 183.315 43.5569 183.367C43.4521 183.416 43.3637 183.495 43.2918 183.604C43.222 183.713 43.1685 183.856 43.1316 184.032C43.0946 184.209 43.0761 184.424 43.0761 184.676V185.549C43.0761 185.75 43.0874 185.928 43.11 186.082C43.1346 186.236 43.1706 186.369 43.2179 186.482C43.2651 186.593 43.3226 186.685 43.3904 186.757C43.4582 186.829 43.5363 186.882 43.6247 186.917C43.7151 186.95 43.8147 186.966 43.9236 186.966C44.0633 186.966 44.1856 186.94 44.2904 186.886C44.3951 186.833 44.4825 186.749 44.5523 186.636C44.6242 186.521 44.6777 186.375 44.7126 186.196C44.7475 186.015 44.765 185.799 44.765 185.549ZM46.9036 186.695V187.154C46.9036 187.341 46.8563 187.538 46.7618 187.746C46.6673 187.956 46.5348 188.13 46.3642 188.27L46.0406 188.045C46.1064 187.954 46.1619 187.862 46.2071 187.768C46.2523 187.675 46.2862 187.579 46.3088 187.478C46.3334 187.379 46.3457 187.274 46.3457 187.163V186.695H46.9036ZM50.6509 186.159C50.6509 186.432 50.5872 186.664 50.4598 186.855C50.3345 187.044 50.164 187.188 49.9482 187.287C49.7346 187.385 49.4932 187.435 49.224 187.435C48.9548 187.435 48.7124 187.385 48.4967 187.287C48.2809 187.188 48.1104 187.044 47.9851 186.855C47.8597 186.664 47.7971 186.432 47.7971 186.159C47.7971 185.98 47.831 185.817 47.8988 185.669C47.9686 185.519 48.0662 185.388 48.1916 185.277C48.3189 185.166 48.4689 185.081 48.6415 185.022C48.8162 184.96 49.0083 184.929 49.2178 184.929C49.4932 184.929 49.7387 184.983 49.9544 185.089C50.1701 185.194 50.3396 185.339 50.4629 185.524C50.5883 185.709 50.6509 185.92 50.6509 186.159ZM50.0777 186.146C50.0777 185.98 50.0417 185.833 49.9698 185.706C49.8979 185.576 49.7972 185.476 49.6678 185.404C49.5384 185.332 49.3884 185.296 49.2178 185.296C49.0432 185.296 48.8922 185.332 48.7648 185.404C48.6395 185.476 48.5419 185.576 48.472 185.706C48.4022 185.833 48.3672 185.98 48.3672 186.146C48.3672 186.319 48.4011 186.467 48.4689 186.59C48.5388 186.711 48.6374 186.805 48.7648 186.871C48.8942 186.934 49.0473 186.966 49.224 186.966C49.4007 186.966 49.5527 186.934 49.6801 186.871C49.8075 186.805 49.9051 186.711 49.9729 186.59C50.0428 186.467 50.0777 186.319 50.0777 186.146ZM50.5461 184.054C50.5461 184.272 50.4886 184.468 50.3736 184.642C50.2585 184.817 50.1013 184.955 49.902 185.055C49.7027 185.156 49.4767 185.206 49.224 185.206C48.9672 185.206 48.7381 185.156 48.5367 185.055C48.3374 184.955 48.1813 184.817 48.0683 184.642C47.9553 184.468 47.8988 184.272 47.8988 184.054C47.8988 183.793 47.9553 183.571 48.0683 183.388C48.1833 183.205 48.3405 183.066 48.5398 182.969C48.7391 182.872 48.9661 182.824 49.2209 182.824C49.4777 182.824 49.7058 182.872 49.9051 182.969C50.1044 183.066 50.2605 183.205 50.3736 183.388C50.4886 183.571 50.5461 183.793 50.5461 184.054ZM49.976 184.063C49.976 183.913 49.9441 183.781 49.8804 183.666C49.8168 183.55 49.7284 183.46 49.6154 183.394C49.5024 183.327 49.3709 183.293 49.2209 183.293C49.0709 183.293 48.9394 183.324 48.8264 183.388C48.7155 183.45 48.6282 183.538 48.5645 183.653C48.5028 183.768 48.472 183.905 48.472 184.063C48.472 184.217 48.5028 184.352 48.5645 184.467C48.6282 184.582 48.7165 184.671 48.8295 184.735C48.9425 184.799 49.074 184.83 49.224 184.83C49.374 184.83 49.5045 184.799 49.6154 184.735C49.7284 184.671 49.8168 184.582 49.8804 184.467C49.9441 184.352 49.976 184.217 49.976 184.063ZM52.2594 182.639V187.373H51.6862V182.639H52.2594ZM54.2966 184.038L52.8419 185.595L52.0283 186.439L51.9821 185.832L52.5645 185.136L53.6001 184.038H54.2966ZM53.7757 187.373L52.5861 185.783L52.882 185.274L54.4476 187.373H53.7757Z" fill="#7C8DB5"/>
</g>
<defs>
<filter id="filter0_dd_745_4262" x="0.84399" y="0.922115" width="334.342" height="320.696" filterUnits="userSpaceOnUse" color-interpolation-filters="sRGB">
<feFlood flood-opacity="0" result="BackgroundImageFix"/>
<feColorMatrix in="SourceAlpha" type="matrix" values="0 0 0 0 0 0 0 0 0 0 0 0 0 0 0 0 0 0 127 0" result="hardAlpha"/>
<feOffset dx="7.96053" dy="7.96053"/>
<feGaussianBlur stdDeviation="17.0583"/>
<feColorMatrix type="matrix" values="0 0 0 0 0.822718 0 0 0 0 0.856761 0 0 0 0 0.890804 0 0 0 0.6 0"/>
<feBlend mode="multiply" in2="BackgroundImageFix" result="effect1_dropShadow_745_4262"/>
<feColorMatrix in="SourceAlpha" type="matrix" values="0 0 0 0 0 0 0 0 0 0 0 0 0 0 0 0 0 0 127 0" result="hardAlpha"/>
<feOffset dx="5.68609" dy="5.68609"/>
<feGaussianBlur stdDeviation="7.39192"/>
<feColorMatrix type="matrix" values="0 0 0 0 0.822718 0 0 0 0 0.856761 0 0 0 0 0.890804 0 0 0 0.3 0"/>
<feBlend mode="multiply" in2="effect1_dropShadow_745_4262" result="effect2_dropShadow_745_4262"/>
<feBlend mode="normal" in="SourceGraphic" in2="effect2_dropShadow_745_4262" result="shape"/>
</filter>
<linearGradient id="paint0_linear_745_4262" x1="252.556" y1="204.438" x2="251.924" y2="62.1083" gradientUnits="userSpaceOnUse">
<stop offset="0.0001" stop-color="#39C7EC" stop-opacity="0"/>
<stop offset="0.536458" stop-color="#39C7EC"/>
<stop offset="1" stop-color="#0050EC"/>
</linearGradient>
<linearGradient id="paint1_linear_745_4262" x1="388.063" y1="80.7514" x2="80.7922" y2="154.954" gradientUnits="userSpaceOnUse">
<stop stop-color="#0056FE"/>
<stop offset="1" stop-color="#19BFEA"/>
</linearGradient>
<linearGradient id="paint2_linear_745_4262" x1="232.811" y1="111.941" x2="234.134" y2="111.947" gradientUnits="userSpaceOnUse">
<stop stop-color="#39C7EC"/>
<stop offset="0.0001" stop-color="#39C7EC"/>
<stop offset="1" stop-color="#0050EC"/>
</linearGradient>
<linearGradient id="paint3_linear_745_4262" x1="161.364" y1="59.5547" x2="189.341" y2="75.2274" gradientUnits="userSpaceOnUse">
<stop stop-color="#0050EC"/>
</linearGradient>
<clipPath id="clip0_745_4262">
<rect width="229.718" height="252.462" fill="white" transform="translate(45.1953 27.0781)"/>
</clipPath>
</defs>
</svg>
