<svg width="169" height="104" viewBox="0 0 169 104" fill="none" xmlns="http://www.w3.org/2000/svg">
<g clip-path="url(#clip0_745_4349)">
<rect width="169" height="104" rx="20" fill="white"/>
<path d="M16.6072 81.7273C16.6072 80.9219 16.7116 80.1815 16.9205 79.506C17.1314 78.8285 17.4318 78.2053 17.8217 77.6364H18.4865C18.3331 77.8473 18.1893 78.1072 18.055 78.4162C17.9229 78.723 17.8068 79.0607 17.7067 79.4293C17.6065 79.7958 17.5277 80.1751 17.4702 80.5671C17.4148 80.9592 17.3871 81.3459 17.3871 81.7273C17.3871 82.2344 17.4361 82.7489 17.5341 83.271C17.6321 83.793 17.7642 84.2777 17.9304 84.7251C18.0966 85.1726 18.282 85.5369 18.4865 85.8182H17.8217C17.4318 85.2493 17.1314 84.6271 16.9205 83.9517C16.7116 83.2741 16.6072 82.5327 16.6072 81.7273ZM22.6342 82.3409H19.3103V81.6378H22.6342C22.941 81.6378 23.1945 81.5845 23.3948 81.478C23.5951 81.3693 23.7443 81.2223 23.8423 81.0369C23.9403 80.8494 23.9893 80.6364 23.9893 80.3977C23.9893 80.1591 23.9403 79.9471 23.8423 79.7617C23.7443 79.5742 23.5951 79.4272 23.3948 79.3207C23.1945 79.212 22.941 79.1577 22.6342 79.1577H21.1384V85H20.3458V78.4545H22.6342C23.12 78.4545 23.5205 78.543 23.8359 78.7198C24.1512 78.8967 24.3856 79.1321 24.539 79.4261C24.6924 79.7202 24.7691 80.044 24.7691 80.3977C24.7691 80.7514 24.6924 81.0753 24.539 81.3693C24.3856 81.6634 24.1512 81.8988 23.8359 82.0756C23.5205 82.2525 23.12 82.3409 22.6342 82.3409ZM22.583 82.9545V83.6577H19.3103V82.9545H22.583ZM30.9008 78.4545V85H30.1082V79.2855H30.0698L28.4718 80.3466V79.5412L30.1082 78.4545H30.9008ZM37.5869 85.0895C37.1054 85.0895 36.6952 84.9585 36.3564 84.6964C36.0177 84.4322 35.7588 84.0497 35.5798 83.549C35.4008 83.0462 35.3113 82.4389 35.3113 81.7273C35.3113 81.0199 35.4008 80.4158 35.5798 79.9151C35.7609 79.4123 36.0209 79.0288 36.3596 78.7646C36.7006 78.4982 37.1096 78.3651 37.5869 78.3651C38.0642 78.3651 38.4722 78.4982 38.811 78.7646C39.1519 79.0288 39.4118 79.4123 39.5908 79.9151C39.7719 80.4158 39.8625 81.0199 39.8625 81.7273C39.8625 82.4389 39.773 83.0462 39.594 83.549C39.415 84.0497 39.1562 84.4322 38.8174 84.6964C38.4786 84.9585 38.0684 85.0895 37.5869 85.0895ZM37.5869 84.3864C38.0642 84.3864 38.4349 84.1562 38.6991 83.696C38.9633 83.2358 39.0954 82.5795 39.0954 81.7273C39.0954 81.1605 39.0347 80.6779 38.9133 80.2795C38.7939 79.881 38.6214 79.5774 38.3955 79.3686C38.1718 79.1598 37.9023 79.0554 37.5869 79.0554C37.1139 79.0554 36.7442 79.2887 36.4779 79.7553C36.2116 80.2198 36.0784 80.8771 36.0784 81.7273C36.0784 82.294 36.1381 82.7756 36.2574 83.1719C36.3767 83.5682 36.5482 83.8697 36.7719 84.0763C36.9978 84.283 37.2694 84.3864 37.5869 84.3864ZM43.2807 85.0895C42.7991 85.0895 42.389 84.9585 42.0502 84.6964C41.7114 84.4322 41.4525 84.0497 41.2736 83.549C41.0946 83.0462 41.0051 82.4389 41.0051 81.7273C41.0051 81.0199 41.0946 80.4158 41.2736 79.9151C41.4547 79.4123 41.7146 79.0288 42.0534 78.7646C42.3943 78.4982 42.8034 78.3651 43.2807 78.3651C43.7579 78.3651 44.166 78.4982 44.5047 78.7646C44.8457 79.0288 45.1056 79.4123 45.2846 79.9151C45.4657 80.4158 45.5562 81.0199 45.5562 81.7273C45.5562 82.4389 45.4667 83.0462 45.2878 83.549C45.1088 84.0497 44.8499 84.4322 44.5111 84.6964C44.1724 84.9585 43.7622 85.0895 43.2807 85.0895ZM43.2807 84.3864C43.7579 84.3864 44.1287 84.1562 44.3929 83.696C44.6571 83.2358 44.7892 82.5795 44.7892 81.7273C44.7892 81.1605 44.7285 80.6779 44.607 80.2795C44.4877 79.881 44.3151 79.5774 44.0893 79.3686C43.8655 79.1598 43.596 79.0554 43.2807 79.0554C42.8077 79.0554 42.438 79.2887 42.1716 79.7553C41.9053 80.2198 41.7721 80.8771 41.7721 81.7273C41.7721 82.294 41.8318 82.7756 41.9511 83.1719C42.0704 83.5682 42.242 83.8697 42.4657 84.0763C42.6915 84.283 42.9632 84.3864 43.2807 84.3864ZM48.9744 85.0895C48.4929 85.0895 48.0827 84.9585 47.7439 84.6964C47.4052 84.4322 47.1463 84.0497 46.9673 83.549C46.7883 83.0462 46.6988 82.4389 46.6988 81.7273C46.6988 81.0199 46.7883 80.4158 46.9673 79.9151C47.1484 79.4123 47.4084 79.0288 47.7471 78.7646C48.0881 78.4982 48.4971 78.3651 48.9744 78.3651C49.4517 78.3651 49.8597 78.4982 50.1985 78.7646C50.5394 79.0288 50.7993 79.4123 50.9783 79.9151C51.1594 80.4158 51.25 81.0199 51.25 81.7273C51.25 82.4389 51.1605 83.0462 50.9815 83.549C50.8025 84.0497 50.5437 84.4322 50.2049 84.6964C49.8661 84.9585 49.4559 85.0895 48.9744 85.0895ZM48.9744 84.3864C49.4517 84.3864 49.8224 84.1562 50.0866 83.696C50.3508 83.2358 50.4829 82.5795 50.4829 81.7273C50.4829 81.1605 50.4222 80.6779 50.3008 80.2795C50.1814 79.881 50.0089 79.5774 49.783 79.3686C49.5593 79.1598 49.2898 79.0554 48.9744 79.0554C48.5014 79.0554 48.1317 79.2887 47.8654 79.7553C47.5991 80.2198 47.4659 80.8771 47.4659 81.7273C47.4659 82.294 47.5256 82.7756 47.6449 83.1719C47.7642 83.5682 47.9357 83.8697 48.1594 84.0763C48.3853 84.283 48.6569 84.3864 48.9744 84.3864ZM57.2682 85.0895C56.7866 85.0895 56.3765 84.9585 56.0377 84.6964C55.6989 84.4322 55.44 84.0497 55.2611 83.549C55.0821 83.0462 54.9926 82.4389 54.9926 81.7273C54.9926 81.0199 55.0821 80.4158 55.2611 79.9151C55.4422 79.4123 55.7021 79.0288 56.0409 78.7646C56.3818 78.4982 56.7909 78.3651 57.2682 78.3651C57.7454 78.3651 58.1535 78.4982 58.4922 78.7646C58.8332 79.0288 59.0931 79.4123 59.2721 79.9151C59.4532 80.4158 59.5437 81.0199 59.5437 81.7273C59.5437 82.4389 59.4542 83.0462 59.2753 83.549C59.0963 84.0497 58.8374 84.4322 58.4986 84.6964C58.1599 84.9585 57.7497 85.0895 57.2682 85.0895ZM57.2682 84.3864C57.7454 84.3864 58.1162 84.1562 58.3804 83.696C58.6446 83.2358 58.7767 82.5795 58.7767 81.7273C58.7767 81.1605 58.716 80.6779 58.5945 80.2795C58.4752 79.881 58.3026 79.5774 58.0768 79.3686C57.853 79.1598 57.5835 79.0554 57.2682 79.0554C56.7952 79.0554 56.4255 79.2887 56.1591 79.7553C55.8928 80.2198 55.7596 80.8771 55.7596 81.7273C55.7596 82.294 55.8193 82.7756 55.9386 83.1719C56.0579 83.5682 56.2295 83.8697 56.4532 84.0763C56.679 84.283 56.9507 84.3864 57.2682 84.3864ZM62.9619 85.0895C62.4804 85.0895 62.0702 84.9585 61.7314 84.6964C61.3927 84.4322 61.1338 84.0497 60.9548 83.549C60.7758 83.0462 60.6863 82.4389 60.6863 81.7273C60.6863 81.0199 60.7758 80.4158 60.9548 79.9151C61.1359 79.4123 61.3959 79.0288 61.7346 78.7646C62.0756 78.4982 62.4846 78.3651 62.9619 78.3651C63.4392 78.3651 63.8472 78.4982 64.186 78.7646C64.5269 79.0288 64.7868 79.4123 64.9658 79.9151C65.1469 80.4158 65.2375 81.0199 65.2375 81.7273C65.2375 82.4389 65.148 83.0462 64.969 83.549C64.79 84.0497 64.5312 84.4322 64.1924 84.6964C63.8536 84.9585 63.4434 85.0895 62.9619 85.0895ZM62.9619 84.3864C63.4392 84.3864 63.8099 84.1562 64.0741 83.696C64.3383 83.2358 64.4704 82.5795 64.4704 81.7273C64.4704 81.1605 64.4097 80.6779 64.2883 80.2795C64.1689 79.881 63.9964 79.5774 63.7705 79.3686C63.5468 79.1598 63.2773 79.0554 62.9619 79.0554C62.4889 79.0554 62.1192 79.2887 61.8529 79.7553C61.5866 80.2198 61.4534 80.8771 61.4534 81.7273C61.4534 82.294 61.5131 82.7756 61.6324 83.1719C61.7517 83.5682 61.9232 83.8697 62.1469 84.0763C62.3728 84.283 62.6444 84.3864 62.9619 84.3864ZM68.6557 85.0895C68.1741 85.0895 67.764 84.9585 67.4252 84.6964C67.0864 84.4322 66.8275 84.0497 66.6486 83.549C66.4696 83.0462 66.3801 82.4389 66.3801 81.7273C66.3801 81.0199 66.4696 80.4158 66.6486 79.9151C66.8297 79.4123 67.0896 79.0288 67.4284 78.7646C67.7693 78.4982 68.1784 78.3651 68.6557 78.3651C69.1329 78.3651 69.541 78.4982 69.8797 78.7646C70.2206 79.0288 70.4806 79.4123 70.6596 79.9151C70.8407 80.4158 70.9312 81.0199 70.9312 81.7273C70.9312 82.4389 70.8417 83.0462 70.6628 83.549C70.4838 84.0497 70.2249 84.4322 69.8861 84.6964C69.5474 84.9585 69.1372 85.0895 68.6557 85.0895ZM68.6557 84.3864C69.1329 84.3864 69.5037 84.1562 69.7679 83.696C70.0321 83.2358 70.1642 82.5795 70.1642 81.7273C70.1642 81.1605 70.1035 80.6779 69.982 80.2795C69.8627 79.881 69.6901 79.5774 69.4643 79.3686C69.2405 79.1598 68.971 79.0554 68.6557 79.0554C68.1827 79.0554 67.813 79.2887 67.5466 79.7553C67.2803 80.2198 67.1471 80.8771 67.1471 81.7273C67.1471 82.294 67.2068 82.7756 67.3261 83.1719C67.4454 83.5682 67.617 83.8697 67.8407 84.0763C68.0665 84.283 68.3382 84.3864 68.6557 84.3864ZM77.4273 85V80.0909H79.4344C79.9628 80.0909 80.3825 80.2102 80.6936 80.4489C81.0047 80.6875 81.1602 81.0028 81.1602 81.3949C81.1602 81.6932 81.0718 81.9244 80.8949 82.0884C80.7181 82.2504 80.4912 82.3601 80.2142 82.4176C80.3953 82.4432 80.5711 82.5071 80.7415 82.6094C80.9141 82.7116 81.0569 82.8523 81.1698 83.0312C81.2827 83.2081 81.3392 83.4254 81.3392 83.6832C81.3392 83.9347 81.2753 84.1594 81.1474 84.3576C81.0196 84.5558 80.8363 84.7124 80.5977 84.8274C80.3591 84.9425 80.0736 85 79.7412 85H77.4273ZM78.1432 84.3097H79.7412C80.0011 84.3097 80.2046 84.2479 80.3516 84.1243C80.4986 84.0007 80.5721 83.8324 80.5721 83.6193C80.5721 83.3658 80.4986 83.1665 80.3516 83.0217C80.2046 82.8746 80.0011 82.8011 79.7412 82.8011H78.1432V84.3097ZM78.1432 82.1491H79.4344C79.6368 82.1491 79.8104 82.1214 79.9553 82.0661C80.1002 82.0085 80.211 81.9276 80.2877 81.8232C80.3665 81.7166 80.4059 81.5909 80.4059 81.446C80.4059 81.2393 80.3197 81.0774 80.1471 80.9602C79.9745 80.8409 79.7369 80.7812 79.4344 80.7812H78.1432V82.1491ZM85.1497 85V80.0909H89.0105V85H88.2562V80.794H85.904V85H85.1497ZM90.4567 86.8409V80.0909H91.1854V80.8707H91.2749C91.3303 80.7855 91.407 80.6768 91.505 80.5447C91.6052 80.4105 91.7479 80.2912 91.9333 80.1868C92.1208 80.0803 92.3744 80.027 92.694 80.027C93.1073 80.027 93.4717 80.1303 93.787 80.337C94.1023 80.5437 94.3484 80.8366 94.5253 81.2159C94.7021 81.5952 94.7906 82.0426 94.7906 82.5582C94.7906 83.0781 94.7021 83.5288 94.5253 83.9102C94.3484 84.2894 94.1034 84.5835 93.7902 84.7923C93.477 84.9989 93.1158 85.1023 92.7067 85.1023C92.3914 85.1023 92.1389 85.0501 91.9493 84.9457C91.7597 84.8391 91.6137 84.7187 91.5114 84.5845C91.4092 84.4482 91.3303 84.3352 91.2749 84.2457H91.211V86.8409H90.4567ZM91.1982 82.5455C91.1982 82.9162 91.2526 83.2433 91.3612 83.5266C91.4699 83.8079 91.6286 84.0284 91.8374 84.1882C92.0462 84.3459 92.3019 84.4247 92.6045 84.4247C92.9198 84.4247 93.183 84.3416 93.3939 84.1754C93.607 84.0071 93.7668 83.7812 93.8733 83.4979C93.982 83.2124 94.0363 82.8949 94.0363 82.5455C94.0363 82.2003 93.983 81.8892 93.8765 81.6122C93.7721 81.3331 93.6133 81.1126 93.4003 80.9506C93.1893 80.7866 92.9241 80.7045 92.6045 80.7045C92.2977 80.7045 92.0398 80.7823 91.831 80.9379C91.6222 81.0913 91.4646 81.3065 91.358 81.5835C91.2515 81.8583 91.1982 82.179 91.1982 82.5455ZM98.0042 85.1023C97.561 85.1023 97.1722 84.9968 96.8376 84.7859C96.5053 84.5749 96.2453 84.2798 96.0578 83.9006C95.8724 83.5213 95.7798 83.0781 95.7798 82.571C95.7798 82.0597 95.8724 81.6133 96.0578 81.2319C96.2453 80.8505 96.5053 80.5543 96.8376 80.3434C97.1722 80.1325 97.561 80.027 98.0042 80.027C98.4474 80.027 98.8352 80.1325 99.1675 80.3434C99.5021 80.5543 99.762 80.8505 99.9474 81.2319C100.135 81.6133 100.229 82.0597 100.229 82.571C100.229 83.0781 100.135 83.5213 99.9474 83.9006C99.762 84.2798 99.5021 84.5749 99.1675 84.7859C98.8352 84.9968 98.4474 85.1023 98.0042 85.1023ZM98.0042 84.4247C98.3408 84.4247 98.6178 84.3384 98.8352 84.1658C99.0525 83.9933 99.2134 83.7663 99.3178 83.4851C99.4222 83.2038 99.4744 82.8991 99.4744 82.571C99.4744 82.2429 99.4222 81.9371 99.3178 81.6538C99.2134 81.3704 99.0525 81.1413 98.8352 80.9666C98.6178 80.7919 98.3408 80.7045 98.0042 80.7045C97.6675 80.7045 97.3906 80.7919 97.1732 80.9666C96.9559 81.1413 96.795 81.3704 96.6906 81.6538C96.5862 81.9371 96.534 82.2429 96.534 82.571C96.534 82.8991 96.5862 83.2038 96.6906 83.4851C96.795 83.7663 96.9559 83.9933 97.1732 84.1658C97.3906 84.3384 97.6675 84.4247 98.0042 84.4247ZM101.449 80.0909H102.203V84.2969H104.057V80.0909H104.811V84.2969H106.665V80.0909H107.419V85H101.449V80.0909ZM108.43 85V84.2969H108.609C108.756 84.2969 108.879 84.2681 108.977 84.2106C109.075 84.1509 109.154 84.0476 109.214 83.9006C109.275 83.7514 109.322 83.5447 109.354 83.2805C109.388 83.0142 109.413 82.6754 109.428 82.2642L109.517 80.0909H112.79V85H112.036V80.794H110.233L110.156 82.5455C110.139 82.9482 110.103 83.3029 110.048 83.6097C109.994 83.9144 109.912 84.1701 109.802 84.3768C109.693 84.5835 109.548 84.739 109.367 84.8434C109.186 84.9478 108.959 85 108.686 85H108.43ZM116.237 85.1023C115.794 85.1023 115.405 84.9968 115.07 84.7859C114.738 84.5749 114.478 84.2798 114.29 83.9006C114.105 83.5213 114.012 83.0781 114.012 82.571C114.012 82.0597 114.105 81.6133 114.29 81.2319C114.478 80.8505 114.738 80.5543 115.07 80.3434C115.405 80.1325 115.794 80.027 116.237 80.027C116.68 80.027 117.068 80.1325 117.4 80.3434C117.735 80.5543 117.995 80.8505 118.18 81.2319C118.367 81.6133 118.461 82.0597 118.461 82.571C118.461 83.0781 118.367 83.5213 118.18 83.9006C117.995 84.2798 117.735 84.5749 117.4 84.7859C117.068 84.9968 116.68 85.1023 116.237 85.1023ZM116.237 84.4247C116.573 84.4247 116.85 84.3384 117.068 84.1658C117.285 83.9933 117.446 83.7663 117.55 83.4851C117.655 83.2038 117.707 82.8991 117.707 82.571C117.707 82.2429 117.655 81.9371 117.55 81.6538C117.446 81.3704 117.285 81.1413 117.068 80.9666C116.85 80.7919 116.573 80.7045 116.237 80.7045C115.9 80.7045 115.623 80.7919 115.406 80.9666C115.189 81.1413 115.028 81.3704 114.923 81.6538C114.819 81.9371 114.767 82.2429 114.767 82.571C114.767 82.8991 114.819 83.2038 114.923 83.4851C115.028 83.7663 115.189 83.9933 115.406 84.1658C115.623 84.3384 115.9 84.4247 116.237 84.4247ZM122.366 83.9773L124.079 80.0909H124.795L122.673 85H122.059L119.975 80.0909H120.679L122.366 83.9773ZM120.436 80.0909V85H119.681V80.0909H120.436ZM124.296 85V80.0909H125.051V85H124.296ZM132.13 80.0909V80.794H129.854V85H129.1V80.0909H132.13ZM135.039 85.1023C134.596 85.1023 134.207 84.9968 133.873 84.7859C133.54 84.5749 133.28 84.2798 133.093 83.9006C132.907 83.5213 132.815 83.0781 132.815 82.571C132.815 82.0597 132.907 81.6133 133.093 81.2319C133.28 80.8505 133.54 80.5543 133.873 80.3434C134.207 80.1325 134.596 80.027 135.039 80.027C135.482 80.027 135.87 80.1325 136.203 80.3434C136.537 80.5543 136.797 80.8505 136.982 81.2319C137.17 81.6133 137.264 82.0597 137.264 82.571C137.264 83.0781 137.17 83.5213 136.982 83.9006C136.797 84.2798 136.537 84.5749 136.203 84.7859C135.87 84.9968 135.482 85.1023 135.039 85.1023ZM135.039 84.4247C135.376 84.4247 135.653 84.3384 135.87 84.1658C136.087 83.9933 136.248 83.7663 136.353 83.4851C136.457 83.2038 136.509 82.8991 136.509 82.571C136.509 82.2429 136.457 81.9371 136.353 81.6538C136.248 81.3704 136.087 81.1413 135.87 80.9666C135.653 80.7919 135.376 80.7045 135.039 80.7045C134.703 80.7045 134.426 80.7919 134.208 80.9666C133.991 81.1413 133.83 81.3704 133.726 81.6538C133.621 81.9371 133.569 82.2429 133.569 82.571C133.569 82.8991 133.621 83.2038 133.726 83.4851C133.83 83.7663 133.991 83.9933 134.208 84.1658C134.426 84.3384 134.703 84.4247 135.039 84.4247ZM137.96 86.4062V84.2969H138.369C138.469 84.1925 138.555 84.0795 138.628 83.9581C138.7 83.8366 138.763 83.6928 138.816 83.5266C138.871 83.3583 138.918 83.1538 138.957 82.913C138.995 82.6701 139.029 82.3771 139.059 82.0341L139.225 80.0909H142.344V84.2969H143.099V86.4062H142.344V85H138.714V86.4062H137.96ZM139.225 84.2969H141.59V80.794H139.928L139.8 82.0341C139.747 82.5476 139.681 82.9961 139.602 83.3796C139.523 83.7631 139.398 84.0689 139.225 84.2969ZM144.654 86.8409C144.527 86.8409 144.413 86.8303 144.312 86.8089C144.212 86.7898 144.143 86.7706 144.105 86.7514L144.296 86.0866C144.48 86.1335 144.642 86.1506 144.782 86.1378C144.923 86.125 145.048 86.0621 145.156 85.9492C145.267 85.8384 145.368 85.6584 145.46 85.4091L145.6 85.0256L143.785 80.0909H144.603L145.958 84.0028H146.01L147.365 80.0909H148.183L146.099 85.7159C146.005 85.9695 145.889 86.1793 145.751 86.3455C145.612 86.5138 145.451 86.6385 145.268 86.7195C145.087 86.8004 144.882 86.8409 144.654 86.8409ZM150.858 82.2386C150.858 83.044 150.753 83.7855 150.542 84.4631C150.333 85.1385 150.033 85.7607 149.643 86.3295H148.979C149.132 86.1186 149.275 85.8587 149.407 85.5497C149.541 85.2429 149.658 84.9062 149.759 84.5398C149.859 84.1712 149.936 83.7908 149.992 83.3988C150.049 83.0046 150.078 82.6179 150.078 82.2386C150.078 81.7315 150.029 81.217 149.931 80.695C149.833 80.1729 149.701 79.6882 149.535 79.2408C149.369 78.7933 149.183 78.429 148.979 78.1477H149.643C150.033 78.7166 150.333 79.3398 150.542 80.0174C150.753 80.6928 150.858 81.4332 150.858 82.2386Z" fill="#92929D"/>
<path d="M91.5169 25.6023V19.7045H92.8549V25.6023H91.5169ZM89.237 23.3224V21.9844H95.1348V23.3224H89.237ZM96.6955 27V25.858L99.7253 22.8878C100.015 22.5952 100.257 22.3352 100.45 22.108C100.643 21.8807 100.788 21.6605 100.884 21.4474C100.981 21.2344 101.029 21.0071 101.029 20.7656C101.029 20.4901 100.967 20.2543 100.842 20.0582C100.717 19.8594 100.545 19.706 100.326 19.598C100.107 19.4901 99.8588 19.4361 99.5804 19.4361C99.2935 19.4361 99.0421 19.4957 98.8262 19.6151C98.6103 19.7315 98.4426 19.8977 98.3233 20.1136C98.2069 20.3295 98.1486 20.5866 98.1486 20.8849H96.6444C96.6444 20.331 96.7708 19.8494 97.0236 19.4403C97.2765 19.0312 97.6245 18.7145 98.0676 18.4901C98.5137 18.2656 99.025 18.1534 99.6017 18.1534C100.187 18.1534 100.701 18.2628 101.144 18.4815C101.588 18.7003 101.931 19 102.176 19.3807C102.423 19.7614 102.546 20.196 102.546 20.6847C102.546 21.0114 102.484 21.3324 102.359 21.6477C102.234 21.9631 102.014 22.3125 101.698 22.696C101.386 23.0795 100.947 23.544 100.382 24.0895L98.8773 25.6193V25.679H102.678V27H96.6955ZM105.116 27.0938C104.857 27.0938 104.636 27.0028 104.451 26.821C104.267 26.6392 104.176 26.4176 104.178 26.1562C104.176 25.9006 104.267 25.6818 104.451 25.5C104.636 25.3182 104.857 25.2273 105.116 25.2273C105.366 25.2273 105.583 25.3182 105.768 25.5C105.955 25.6818 106.051 25.9006 106.053 26.1562C106.051 26.3295 106.005 26.4872 105.917 26.6293C105.832 26.7713 105.718 26.8849 105.576 26.9702C105.437 27.0526 105.284 27.0938 105.116 27.0938ZM110.558 27.1193C109.99 27.1193 109.481 27.0128 109.032 26.7997C108.583 26.5838 108.227 26.2884 107.963 25.9134C107.701 25.5384 107.562 25.1094 107.545 24.6264H109.079C109.107 24.9844 109.262 25.277 109.544 25.5043C109.825 25.7287 110.163 25.8409 110.558 25.8409C110.867 25.8409 111.143 25.7699 111.384 25.6278C111.626 25.4858 111.816 25.2884 111.955 25.0355C112.095 24.7827 112.163 24.4943 112.16 24.1705C112.163 23.8409 112.093 23.5483 111.951 23.2926C111.809 23.0369 111.615 22.8366 111.367 22.6918C111.12 22.544 110.836 22.4702 110.515 22.4702C110.254 22.4673 109.997 22.5156 109.744 22.6151C109.491 22.7145 109.291 22.8452 109.143 23.0071L107.715 22.7727L108.171 18.2727H113.234V19.5938H109.48L109.228 21.9077H109.279C109.441 21.7173 109.67 21.5597 109.965 21.4347C110.261 21.3068 110.585 21.2429 110.937 21.2429C111.465 21.2429 111.937 21.3679 112.352 21.6179C112.767 21.8651 113.093 22.206 113.332 22.6406C113.57 23.0753 113.69 23.5724 113.69 24.1321C113.69 24.7088 113.556 25.223 113.289 25.6747C113.025 26.1236 112.657 26.4773 112.186 26.7358C111.717 26.9915 111.174 27.1193 110.558 27.1193ZM119.784 25.3636V24.9034C119.784 24.5653 119.855 24.2543 119.997 23.9702C120.142 23.6861 120.352 23.4574 120.627 23.2841C120.903 23.1108 121.237 23.0241 121.629 23.0241C122.032 23.0241 122.37 23.1108 122.643 23.2841C122.916 23.4545 123.122 23.6818 123.261 23.9659C123.403 24.25 123.474 24.5625 123.474 24.9034V25.3636C123.474 25.7017 123.403 26.0128 123.261 26.2969C123.119 26.581 122.91 26.8097 122.634 26.983C122.362 27.1563 122.026 27.2429 121.629 27.2429C121.231 27.2429 120.894 27.1563 120.619 26.983C120.343 26.8097 120.134 26.581 119.992 26.2969C119.853 26.0128 119.784 25.7017 119.784 25.3636ZM120.896 24.9034V25.3636C120.896 25.5881 120.95 25.794 121.058 25.9815C121.166 26.169 121.356 26.2628 121.629 26.2628C121.904 26.2628 122.093 26.1705 122.195 25.9858C122.301 25.7983 122.353 25.5909 122.353 25.3636V24.9034C122.353 24.6761 122.303 24.4688 122.204 24.2812C122.105 24.0909 121.913 23.9957 121.629 23.9957C121.362 23.9957 121.173 24.0909 121.062 24.2812C120.951 24.4688 120.896 24.6761 120.896 24.9034ZM115.347 20.3693V19.9091C115.347 19.5682 115.42 19.2557 115.565 18.9716C115.71 18.6875 115.92 18.4602 116.195 18.2898C116.471 18.1165 116.805 18.0298 117.197 18.0298C117.597 18.0298 117.934 18.1165 118.207 18.2898C118.482 18.4602 118.69 18.6875 118.829 18.9716C118.968 19.2557 119.038 19.5682 119.038 19.9091V20.3693C119.038 20.7102 118.967 21.0227 118.825 21.3068C118.686 21.5881 118.478 21.8139 118.203 21.9844C117.927 22.1548 117.592 22.2401 117.197 22.2401C116.796 22.2401 116.458 22.1548 116.183 21.9844C115.91 21.8139 115.703 21.5866 115.561 21.3026C115.419 21.0185 115.347 20.7074 115.347 20.3693ZM116.468 19.9091V20.3693C116.468 20.5966 116.521 20.804 116.626 20.9915C116.734 21.1761 116.924 21.2685 117.197 21.2685C117.47 21.2685 117.657 21.1761 117.759 20.9915C117.865 20.804 117.917 20.5966 117.917 20.3693V19.9091C117.917 19.6818 117.867 19.4744 117.768 19.2869C117.669 19.0966 117.478 19.0014 117.197 19.0014C116.927 19.0014 116.738 19.0966 116.63 19.2869C116.522 19.4773 116.468 19.6847 116.468 19.9091ZM115.833 27L121.833 18.2727H122.899L116.899 27H115.833Z" fill="#3DD598"/>
<path d="M24.1357 52.5241H16.5149V50.358H24.0788C24.6896 50.358 25.1915 50.2609 25.5845 50.0668C25.9822 49.8726 26.2758 49.6027 26.4652 49.2571C26.6593 48.9115 26.754 48.5066 26.7493 48.0426C26.754 47.5881 26.6593 47.1809 26.4652 46.821C26.2758 46.4564 25.987 46.17 25.5987 45.9616C25.2152 45.7486 24.7275 45.642 24.1357 45.642H21.2805V58H18.6527V43.4545H24.1357C25.2625 43.4545 26.2166 43.6581 26.9979 44.0653C27.7791 44.4678 28.371 45.0147 28.7734 45.706C29.1806 46.3925 29.3842 47.1643 29.3842 48.0213C29.3842 48.9115 29.1783 49.6951 28.7663 50.3722C28.3544 51.0445 27.7578 51.5724 26.9766 51.956C26.1953 52.3348 25.2483 52.5241 24.1357 52.5241ZM24.4695 53.6037V55.7699H16.5149V53.6037H24.4695ZM42.608 43.4545V58H39.9731V46.0185H39.8879L36.4859 48.1918V45.777L40.1009 43.4545H42.608ZM56.8386 58.277C55.6691 58.277 54.6653 57.9811 53.8272 57.3892C52.9939 56.7926 52.3523 55.9332 51.9025 54.8111C51.4574 53.6842 51.2349 52.3277 51.2349 50.7415C51.2396 49.1553 51.4645 47.8059 51.9096 46.6932C52.3594 45.5758 53.001 44.7235 53.8343 44.1364C54.6724 43.5492 55.6738 43.2557 56.8386 43.2557C58.0033 43.2557 59.0048 43.5492 59.8428 44.1364C60.6809 44.7235 61.3225 45.5758 61.7675 46.6932C62.2174 47.8106 62.4423 49.16 62.4423 50.7415C62.4423 52.3324 62.2174 53.6913 61.7675 54.8182C61.3225 55.9403 60.6809 56.7973 59.8428 57.3892C59.0095 57.9811 58.0081 58.277 56.8386 58.277ZM56.8386 56.054C57.7477 56.054 58.465 55.6065 58.9906 54.7116C59.5209 53.812 59.786 52.4886 59.786 50.7415C59.786 49.5862 59.6653 48.6155 59.4238 47.8295C59.1823 47.0436 58.8414 46.4517 58.4011 46.054C57.9607 45.6515 57.4399 45.4503 56.8386 45.4503C55.9342 45.4503 55.2192 45.9001 54.6937 46.7997C54.1681 47.6946 53.903 49.0085 53.8982 50.7415C53.8935 51.9015 54.0095 52.8769 54.2462 53.6676C54.4877 54.4583 54.8286 55.0549 55.269 55.4574C55.7093 55.8551 56.2325 56.054 56.8386 56.054ZM64.902 58V56.0966L69.9517 51.1463C70.4347 50.6586 70.8371 50.2254 71.1591 49.8466C71.4811 49.4678 71.7225 49.1009 71.8835 48.7457C72.0445 48.3906 72.125 48.0118 72.125 47.6094C72.125 47.1501 72.0208 46.7571 71.8125 46.4304C71.6042 46.099 71.3177 45.8433 70.9531 45.6634C70.5885 45.4834 70.1742 45.3935 69.7102 45.3935C69.232 45.3935 68.813 45.4929 68.4531 45.6918C68.0933 45.8859 67.8139 46.1629 67.6151 46.5227C67.4209 46.8826 67.3239 47.3111 67.3239 47.8082H64.8168C64.8168 46.8849 65.0275 46.0824 65.4489 45.4006C65.8703 44.7187 66.4503 44.1908 67.1889 43.8168C67.9323 43.4427 68.7846 43.2557 69.7457 43.2557C70.7211 43.2557 71.5781 43.438 72.3168 43.8026C73.0554 44.1671 73.6283 44.6667 74.0355 45.3011C74.4474 45.9356 74.6534 46.66 74.6534 47.4744C74.6534 48.0189 74.5492 48.554 74.3409 49.0795C74.1326 49.6051 73.7656 50.1875 73.2401 50.8267C72.7192 51.4659 71.9877 52.2401 71.0455 53.1491L68.5384 55.6989V55.7983H74.8736V58H64.902ZM82.4807 58.1989C81.5337 58.1989 80.6862 58.0213 79.9381 57.6662C79.19 57.3063 78.5957 56.8139 78.1554 56.1889C77.7198 55.5639 77.4878 54.849 77.4594 54.044H80.0162C80.0635 54.6406 80.3216 55.1283 80.7903 55.5071C81.2591 55.8812 81.8225 56.0682 82.4807 56.0682C82.9968 56.0682 83.4561 55.9498 83.8585 55.7131C84.261 55.4763 84.5782 55.1473 84.8102 54.7259C85.0422 54.3045 85.1559 53.8239 85.1511 53.2841C85.1559 52.7348 85.0399 52.2472 84.8031 51.821C84.5664 51.3949 84.242 51.0611 83.8301 50.8196C83.4182 50.5734 82.9447 50.4503 82.4097 50.4503C81.9741 50.4455 81.5455 50.526 81.1241 50.6918C80.7027 50.8575 80.3689 51.0753 80.1227 51.3452L77.7435 50.9545L78.5034 43.4545H86.9409V45.6562H80.6838L80.2648 49.5128H80.35C80.6199 49.1955 81.001 48.9328 81.4935 48.7244C81.9859 48.5114 82.5257 48.4048 83.1128 48.4048C83.9935 48.4048 84.7794 48.6132 85.4707 49.0298C86.162 49.4418 86.7065 50.0099 87.1043 50.7344C87.502 51.4588 87.7009 52.2874 87.7009 53.2202C87.7009 54.1813 87.4783 55.0384 87.0332 55.7912C86.5929 56.5393 85.9797 57.1288 85.1937 57.5597C84.4125 57.9858 83.5081 58.1989 82.4807 58.1989ZM100.617 58.277C99.448 58.277 98.4442 57.9811 97.6061 57.3892C96.7728 56.7926 96.1312 55.9332 95.6814 54.8111C95.2363 53.6842 95.0138 52.3277 95.0138 50.7415C95.0185 49.1553 95.2434 47.8059 95.6885 46.6932C96.1383 45.5758 96.7799 44.7235 97.6132 44.1364C98.4513 43.5492 99.4527 43.2557 100.617 43.2557C101.782 43.2557 102.784 43.5492 103.622 44.1364C104.46 44.7235 105.101 45.5758 105.546 46.6932C105.996 47.8106 106.221 49.16 106.221 50.7415C106.221 52.3324 105.996 53.6913 105.546 54.8182C105.101 55.9403 104.46 56.7973 103.622 57.3892C102.788 57.9811 101.787 58.277 100.617 58.277ZM100.617 56.054C101.527 56.054 102.244 55.6065 102.769 54.7116C103.3 53.812 103.565 52.4886 103.565 50.7415C103.565 49.5862 103.444 48.6155 103.203 47.8295C102.961 47.0436 102.62 46.4517 102.18 46.054C101.74 45.6515 101.219 45.4503 100.617 45.4503C99.7131 45.4503 98.9982 45.9001 98.4726 46.7997C97.947 47.6946 97.6819 49.0085 97.6771 50.7415C97.6724 51.9015 97.7884 52.8769 98.0251 53.6676C98.2666 54.4583 98.6075 55.0549 99.0479 55.4574C99.4882 55.8551 100.011 56.054 100.617 56.054ZM114.057 58.277C112.888 58.277 111.884 57.9811 111.046 57.3892C110.213 56.7926 109.571 55.9332 109.121 54.8111C108.676 53.6842 108.454 52.3277 108.454 50.7415C108.458 49.1553 108.683 47.8059 109.128 46.6932C109.578 45.5758 110.22 44.7235 111.053 44.1364C111.891 43.5492 112.893 43.2557 114.057 43.2557C115.222 43.2557 116.224 43.5492 117.062 44.1364C117.9 44.7235 118.541 45.5758 118.986 46.6932C119.436 47.8106 119.661 49.16 119.661 50.7415C119.661 52.3324 119.436 53.6913 118.986 54.8182C118.541 55.9403 117.9 56.7973 117.062 57.3892C116.228 57.9811 115.227 58.277 114.057 58.277ZM114.057 56.054C114.966 56.054 115.684 55.6065 116.209 54.7116C116.74 53.812 117.005 52.4886 117.005 50.7415C117.005 49.5862 116.884 48.6155 116.643 47.8295C116.401 47.0436 116.06 46.4517 115.62 46.054C115.179 45.6515 114.659 45.4503 114.057 45.4503C113.153 45.4503 112.438 45.9001 111.912 46.7997C111.387 47.6946 111.122 49.0085 111.117 50.7415C111.112 51.9015 111.228 52.8769 111.465 53.6676C111.706 54.4583 112.047 55.0549 112.488 55.4574C112.928 55.8551 113.451 56.054 114.057 56.054ZM127.497 58.277C126.328 58.277 125.324 57.9811 124.486 57.3892C123.652 56.7926 123.011 55.9332 122.561 54.8111C122.116 53.6842 121.893 52.3277 121.893 50.7415C121.898 49.1553 122.123 47.8059 122.568 46.6932C123.018 45.5758 123.66 44.7235 124.493 44.1364C125.331 43.5492 126.332 43.2557 127.497 43.2557C128.662 43.2557 129.663 43.5492 130.501 44.1364C131.339 44.7235 131.981 45.5758 132.426 46.6932C132.876 47.8106 133.101 49.16 133.101 50.7415C133.101 52.3324 132.876 53.6913 132.426 54.8182C131.981 55.9403 131.339 56.7973 130.501 57.3892C129.668 57.9811 128.667 58.277 127.497 58.277ZM127.497 56.054C128.406 56.054 129.124 55.6065 129.649 54.7116C130.179 53.812 130.445 52.4886 130.445 50.7415C130.445 49.5862 130.324 48.6155 130.082 47.8295C129.841 47.0436 129.5 46.4517 129.06 46.054C128.619 45.6515 128.098 45.4503 127.497 45.4503C126.593 45.4503 125.878 45.9001 125.352 46.7997C124.827 47.6946 124.562 49.0085 124.557 50.7415C124.552 51.9015 124.668 52.8769 124.905 53.6676C125.146 54.4583 125.487 55.0549 125.928 55.4574C126.368 55.8551 126.891 56.054 127.497 56.054Z" fill="#171725"/>
<path d="M132.485 18.5C132.339 18.4993 132.194 18.5563 132.089 18.671L128.443 22.671C128.254 22.879 128.276 23.1948 128.493 23.3765C128.71 23.5582 129.039 23.5369 129.229 23.329L131.966 20.3264V27C131.966 27.2761 132.199 27.5 132.487 27.5C132.775 27.5 133.009 27.2761 133.009 27V20.335L135.746 23.3295C135.936 23.5372 136.266 23.558 136.482 23.3761C136.699 23.1941 136.721 22.8782 136.531 22.6705L132.919 18.7192C132.825 18.5869 132.667 18.5 132.487 18.5L132.485 18.5Z" fill="#3DD598"/>
<path d="M23.9815 18.2727V27H22.4134V19.5852H18.5952V27H17.027V18.2727H23.9815ZM25.9043 29.4545V20.4545H27.4214V21.5369H27.5109C27.5904 21.3778 27.7026 21.2088 27.8475 21.0298C27.9924 20.848 28.1884 20.6932 28.4356 20.5653C28.6827 20.4347 28.9981 20.3693 29.3816 20.3693C29.8873 20.3693 30.3433 20.4986 30.7495 20.7571C31.1586 21.0128 31.4825 21.392 31.7211 21.8949C31.9626 22.3949 32.0833 23.0085 32.0833 23.7358C32.0833 24.4545 31.9654 25.0653 31.7296 25.5682C31.4938 26.071 31.1728 26.4545 30.7665 26.7188C30.3603 26.983 29.9001 27.1151 29.3859 27.1151C29.0109 27.1151 28.6998 27.0526 28.4526 26.9276C28.2055 26.8026 28.0066 26.652 27.856 26.4759C27.7083 26.2969 27.5933 26.1278 27.5109 25.9688H27.4469V29.4545H25.9043ZM27.4171 23.7273C27.4171 24.1506 27.4768 24.5213 27.5961 24.8395C27.7183 25.1577 27.893 25.4062 28.1202 25.5852C28.3504 25.7614 28.6288 25.8494 28.9555 25.8494C29.2964 25.8494 29.5819 25.7585 29.812 25.5767C30.0421 25.392 30.2154 25.1406 30.3319 24.8224C30.4512 24.5014 30.5109 24.1364 30.5109 23.7273C30.5109 23.321 30.4526 22.9602 30.3362 22.6449C30.2197 22.3295 30.0464 22.0824 29.8163 21.9034C29.5862 21.7244 29.2992 21.6349 28.9555 21.6349C28.6259 21.6349 28.3461 21.7216 28.116 21.8949C27.8859 22.0682 27.7112 22.3111 27.5918 22.6236C27.4754 22.9361 27.4171 23.304 27.4171 23.7273ZM36.3594 27.1278C35.7202 27.1278 35.1663 26.9872 34.6975 26.706C34.2288 26.4247 33.8651 26.0312 33.6066 25.5256C33.3509 25.0199 33.2231 24.429 33.2231 23.7528C33.2231 23.0767 33.3509 22.4844 33.6066 21.9759C33.8651 21.4673 34.2288 21.0724 34.6975 20.7912C35.1663 20.5099 35.7202 20.3693 36.3594 20.3693C36.9987 20.3693 37.5526 20.5099 38.0214 20.7912C38.4901 21.0724 38.8523 21.4673 39.108 21.9759C39.3665 22.4844 39.4958 23.0767 39.4958 23.7528C39.4958 24.429 39.3665 25.0199 39.108 25.5256C38.8523 26.0312 38.4901 26.4247 38.0214 26.706C37.5526 26.9872 36.9987 27.1278 36.3594 27.1278ZM36.368 25.892C36.7146 25.892 37.0043 25.7969 37.2373 25.6065C37.4702 25.4134 37.6435 25.1548 37.7572 24.831C37.8737 24.5071 37.9319 24.1463 37.9319 23.7486C37.9319 23.348 37.8737 22.9858 37.7572 22.6619C37.6435 22.3352 37.4702 22.0753 37.2373 21.8821C37.0043 21.6889 36.7146 21.5923 36.368 21.5923C36.0129 21.5923 35.7174 21.6889 35.4816 21.8821C35.2487 22.0753 35.0739 22.3352 34.9575 22.6619C34.8438 22.9858 34.787 23.348 34.787 23.7486C34.787 24.1463 34.8438 24.5071 34.9575 24.831C35.0739 25.1548 35.2487 25.4134 35.4816 25.6065C35.7174 25.7969 36.0129 25.892 36.368 25.892ZM40.3256 28.9006V25.7301H40.8455C40.9847 25.6222 41.1011 25.4759 41.1949 25.2912C41.2886 25.1037 41.3653 24.8835 41.425 24.6307C41.4875 24.375 41.5386 24.0895 41.5784 23.7741C41.6182 23.456 41.6537 23.1136 41.6849 22.7472L41.8724 20.4545H46.6026V25.7301H47.6168V28.9006H46.1253V27H41.8426V28.9006H40.3256ZM42.4307 25.7301H45.1281V21.6989H43.2105L43.1082 22.7472C43.0514 23.4403 42.9761 24.0341 42.8824 24.5284C42.7886 25.0227 42.6381 25.4233 42.4307 25.7301ZM50.7519 27.1321C50.3371 27.1321 49.9636 27.0582 49.6312 26.9105C49.3016 26.7599 49.0403 26.5384 48.8471 26.2457C48.6567 25.9531 48.5616 25.5923 48.5616 25.1634C48.5616 24.794 48.6298 24.4886 48.7661 24.2472C48.9025 24.0057 49.0886 23.8125 49.3244 23.6676C49.5602 23.5227 49.8258 23.4134 50.1212 23.3395C50.4195 23.2628 50.7278 23.2074 51.046 23.1733C51.4295 23.1335 51.7406 23.098 51.9792 23.0668C52.2178 23.0327 52.3911 22.9815 52.4991 22.9134C52.6099 22.8423 52.6653 22.733 52.6653 22.5852V22.5597C52.6653 22.2386 52.5701 21.9901 52.3798 21.8139C52.1894 21.6378 51.9153 21.5497 51.5573 21.5497C51.1795 21.5497 50.8798 21.6321 50.6582 21.7969C50.4394 21.9616 50.2917 22.1562 50.215 22.3807L48.7746 22.1761C48.8883 21.7784 49.0758 21.446 49.3371 21.179C49.5985 20.9091 49.9181 20.7074 50.296 20.5739C50.6738 20.4375 51.0914 20.3693 51.5488 20.3693C51.8641 20.3693 52.1781 20.4062 52.4906 20.4801C52.8031 20.554 53.0886 20.6761 53.3471 20.8466C53.6056 21.0142 53.813 21.2429 53.9692 21.5327C54.1283 21.8224 54.2079 22.1847 54.2079 22.6193V27H52.7249V26.1009H52.6738C52.58 26.2827 52.4479 26.4531 52.2775 26.6122C52.1099 26.7685 51.8982 26.8949 51.6425 26.9915C51.3897 27.0852 51.0928 27.1321 50.7519 27.1321ZM51.1525 25.9986C51.4621 25.9986 51.7306 25.9375 51.9579 25.8153C52.1852 25.6903 52.3599 25.5256 52.482 25.321C52.607 25.1165 52.6695 24.8935 52.6695 24.652V23.8807C52.6212 23.9205 52.5389 23.9574 52.4224 23.9915C52.3087 24.0256 52.1809 24.0554 52.0389 24.081C51.8968 24.1065 51.7562 24.1293 51.617 24.1491C51.4778 24.169 51.357 24.1861 51.2548 24.2003C51.0246 24.2315 50.8187 24.2827 50.6369 24.3537C50.455 24.4247 50.3116 24.5241 50.2065 24.652C50.1014 24.777 50.0488 24.9389 50.0488 25.1378C50.0488 25.4219 50.1525 25.6364 50.3599 25.7812C50.5673 25.9261 50.8315 25.9986 51.1525 25.9986ZM55.4329 27L57.8491 23.6207L55.4542 20.4545H57.2354L59.0977 23.0923H59.4641V20.4545H61.0067V23.0923H61.3647L63.2269 20.4545H65.0082L62.6261 23.6207L65.0295 27H63.2099L61.3477 24.358H61.0067V27H59.4641V24.358H59.1232L57.2525 27H55.4329ZM67.7705 24.9119L70.3912 20.4545H71.9764V27H70.4849V22.5384L67.8727 27H66.2832V20.4545H67.7705V24.9119Z" fill="#171725"/>
</g>
<defs>
<clipPath id="clip0_745_4349">
<rect width="169" height="104" fill="white"/>
</clipPath>
</defs>
</svg>
