<svg width="174" height="46" viewBox="0 0 174 46" fill="none" xmlns="http://www.w3.org/2000/svg">
<rect x="1" y="0.648438" width="171.72" height="44.52" rx="9.54" fill="#EFF1F7" stroke="#D8DCE5" stroke-width="1.13722"/>
<path d="M55.1018 27.959L52.1296 24.0156H51.4611V27.959H49.5052V18.7081H51.4611V22.403H51.8541L54.9257 18.7081H57.3603L53.7512 22.9993L57.5275 27.959H55.1018ZM58.0684 27.959L58.0594 26.4322H58.2897C58.4523 26.4322 58.5924 26.3931 58.7098 26.3148C58.8303 26.2335 58.9296 26.1025 59.0079 25.9218C59.0862 25.7411 59.148 25.5017 59.1931 25.2036C59.2383 24.9025 59.2684 24.5321 59.2835 24.0924L59.3964 21.0208H64.6723V27.959H62.8384V22.534H61.1264L61.018 24.6525C60.9909 25.2337 60.9201 25.7336 60.8057 26.1522C60.6943 26.5707 60.5392 26.914 60.3405 27.1821C60.1417 27.4471 59.9023 27.6428 59.6223 27.7693C59.3422 27.8957 59.017 27.959 58.6466 27.959H58.0684ZM68.0025 25.4204L70.5004 21.0208H72.3976V27.959H70.5637V23.5458L68.0748 27.959H66.1641V21.0208H68.0025V25.4204ZM77.1021 28.0945C76.3884 28.0945 75.7741 27.95 75.2591 27.6609C74.7472 27.3688 74.3527 26.9562 74.0757 26.4232C73.7986 25.8872 73.6601 25.2533 73.6601 24.5215C73.6601 23.8078 73.7986 23.1815 74.0757 22.6424C74.3527 22.1034 74.7427 21.6833 75.2456 21.3822C75.7515 21.081 76.3447 20.9305 77.0253 20.9305C77.483 20.9305 77.9091 21.0042 78.3036 21.1518C78.7011 21.2963 79.0474 21.5147 79.3425 21.8068C79.6407 22.0989 79.8725 22.4663 80.0382 22.9089C80.2038 23.3486 80.2866 23.8635 80.2866 24.4538V24.9823H74.428V23.7898H78.4753C78.4753 23.5127 78.415 23.2673 78.2946 23.0535C78.1741 22.8397 78.007 22.6725 77.7932 22.5521C77.5824 22.4286 77.337 22.3669 77.0569 22.3669C76.7648 22.3669 76.5058 22.4346 76.28 22.5702C76.0571 22.7027 75.8825 22.8818 75.756 23.1077C75.6295 23.3305 75.5648 23.579 75.5618 23.853V24.9868C75.5618 25.3301 75.625 25.6267 75.7515 25.8766C75.881 26.1266 76.0632 26.3193 76.298 26.4548C76.5329 26.5903 76.8115 26.6581 77.1337 26.6581C77.3475 26.6581 77.5432 26.628 77.7209 26.5677C77.8986 26.5075 78.0507 26.4172 78.1771 26.2967C78.3036 26.1763 78.4 26.0287 78.4662 25.854L80.2459 25.9715C80.1556 26.3991 79.9704 26.7725 79.6903 27.0917C79.4133 27.4079 79.0549 27.6548 78.6153 27.8325C78.1786 28.0072 77.6742 28.0945 77.1021 28.0945ZM86.371 23.722V25.2352H82.7484V23.722H86.371ZM83.3808 21.0208V27.959H81.5423V21.0208H83.3808ZM87.5771 21.0208V27.959H85.7522V21.0208H87.5771ZM88.3732 22.534V21.0208H94.661V22.534H92.425V27.959H90.5911V22.534H88.3732ZM97.0335 23.1529H99.1069C100.025 23.1529 100.742 23.3727 101.257 23.8123C101.772 24.249 102.029 24.8332 102.029 25.565C102.029 26.0407 101.913 26.4593 101.682 26.8207C101.45 27.179 101.115 27.4591 100.679 27.6609C100.242 27.8596 99.7182 27.959 99.1069 27.959H95.8275V21.0208H97.6659V26.4458H99.1069C99.4291 26.4458 99.6941 26.3645 99.9019 26.2019C100.11 26.0392 100.215 25.8315 100.218 25.5785C100.215 25.3105 100.11 25.0922 99.9019 24.9235C99.6941 24.7519 99.4291 24.6661 99.1069 24.6661H97.0335V23.1529ZM102.775 27.959V21.0208H104.699V27.959H102.775Z" fill="#202021"/>
<path fill-rule="evenodd" clip-rule="evenodd" d="M26.7486 24.4295L26.8384 24.4295L27.0392 24.4302C28.574 24.4403 32.0814 24.5954 32.0814 26.9727C32.0814 29.3345 28.6962 29.4885 27.0631 29.4985L26.458 29.4985C24.9231 29.4884 21.4149 29.3336 21.4149 26.9592C21.4149 24.5945 24.9231 24.4403 26.458 24.4302L26.6588 24.4295C26.69 24.4295 26.7199 24.4295 26.7486 24.4295ZM26.7486 25.622C24.8597 25.622 22.6074 25.8542 22.6074 26.9592C22.6074 28.0392 24.7252 28.2918 26.5759 28.3061L26.7486 28.3067C28.6375 28.3067 30.8889 28.0754 30.8889 26.9727C30.8889 25.8565 28.6375 25.622 26.7486 25.622ZM33.0717 24.1069C34.998 24.3955 35.4026 25.3002 35.4026 26.0085C35.4026 26.441 35.2325 27.2305 34.0957 27.6637C34.0257 27.69 33.9541 27.7027 33.8834 27.7027C33.6433 27.7027 33.4167 27.5564 33.3261 27.3187C33.2084 27.011 33.3635 26.666 33.6711 26.5491C34.2101 26.344 34.2101 26.1175 34.2101 26.0085C34.2101 25.6603 33.7673 25.4171 32.8944 25.2867C32.5693 25.2374 32.3443 24.9345 32.3928 24.6078C32.4413 24.2818 32.7434 24.0648 33.0717 24.1069ZM21.1036 24.6078C21.1521 24.9345 20.9271 25.2374 20.602 25.2867C19.7291 25.4171 19.2862 25.6603 19.2862 26.0085C19.2862 26.1175 19.2862 26.3432 19.8261 26.5491C20.1337 26.666 20.2887 27.011 20.1711 27.3187C20.0805 27.5564 19.8539 27.7027 19.6138 27.7027C19.543 27.7027 19.4715 27.69 19.4015 27.6637C18.2639 27.2297 18.0938 26.4402 18.0938 26.0085C18.0938 25.301 18.4984 24.3955 20.4255 24.1069C20.7538 24.0656 21.0543 24.2818 21.1036 24.6078ZM26.7486 16.1504C28.752 16.1504 30.3809 17.7801 30.3809 19.7827C30.3809 21.7853 28.752 23.4151 26.7486 23.4151H26.7271C25.7572 23.4119 24.8485 23.0319 24.168 22.345C23.4859 21.6589 23.1131 20.7479 23.117 19.7804C23.117 17.7801 24.746 16.1504 26.7486 16.1504ZM26.7486 17.3429C25.4035 17.3429 24.3095 18.4376 24.3095 19.7827C24.3071 20.4346 24.5568 21.0444 25.0139 21.5047C25.471 21.965 26.08 22.2202 26.7287 22.2226L26.7486 22.8188V22.2226C28.0937 22.2226 29.1884 21.1287 29.1884 19.7827C29.1884 18.4376 28.0937 17.3429 26.7486 17.3429ZM31.6688 16.9291C33.0665 17.1588 34.0817 18.3545 34.0817 19.772C34.0785 21.199 33.0124 22.4233 31.6013 22.6213C31.5734 22.6253 31.5456 22.6269 31.5186 22.6269C31.226 22.6269 30.9708 22.4114 30.9287 22.1133C30.8834 21.7865 31.11 21.4852 31.4367 21.4399C32.2635 21.3239 32.8876 20.6068 32.8892 19.7704C32.8892 18.9412 32.2945 18.24 31.4749 18.1057C31.1505 18.0524 30.9303 17.7456 30.9836 17.4204C31.0376 17.0952 31.3421 16.8774 31.6688 16.9291ZM22.5136 17.4204C22.5669 17.7456 22.3467 18.0524 22.0223 18.1057C21.2027 18.24 20.608 18.9412 20.608 19.772C20.6096 20.6068 21.2337 21.3246 22.0597 21.4399C22.3864 21.4852 22.613 21.7865 22.5677 22.1133C22.5256 22.4114 22.2704 22.6269 21.9778 22.6269C21.9508 22.6269 21.9229 22.6253 21.8951 22.6213C20.484 22.4233 19.4187 21.199 19.4155 19.7736C19.4155 18.3545 20.4307 17.1588 21.8283 16.9291C22.163 16.8766 22.4596 17.0968 22.5136 17.4204Z" fill="#202021"/>
</svg>
