<svg width="16" height="16" viewBox="0 0 16 16" fill="none" xmlns="http://www.w3.org/2000/svg">
  <defs>
    <radialGradient id="paint0_angular_745_4485" cx="0" cy="0" r="1" gradientUnits="userSpaceOnUse" gradientTransform="translate(8 8) rotate(-90) scale(7)">
      <stop stop-color="#0056FE"/>
      <stop offset="1" stop-color="#19BFEA"/>
    </radialGradient>
  </defs>
  <!-- Белый круг -->
  <circle cx="8" cy="8" r="7" fill="#FAFBFC"/>

  <!-- Прогресс-бар -->
  <mask id="path-2-inside-1_745_4485" fill="white">
    <path d="M8 1C9.38447 1 10.7378 1.41054 11.889 2.17971C13.0401 2.94888 13.9373 4.04213 14.4672 5.32122C14.997 6.6003 15.1356 8.00777 14.8655 9.36563C14.5954 10.7235 13.9287 11.9708 12.9497 12.9497L11.9429 11.9429C12.7228 11.1631 13.2538 10.1695 13.469 9.08785C13.6842 8.00619 13.5737 6.88501 13.1517 5.8661C12.7296 4.8472 12.0149 3.97632 11.0979 3.36361C10.1809 2.75089 9.10286 2.42386 8 2.42386V1Z"/>
  </mask>
  <path d="M8 1C9.38447 1 10.7378 1.41054 11.889 2.17971C13.0401 2.94888 13.9373 4.04213 14.4672 5.32122C14.997 6.6003 15.1356 8.00777 14.8655 9.36563C14.5954 10.7235 13.9287 11.9708 12.9497 12.9497L11.9429 11.9429C12.7228 11.1631 13.2538 10.1695 13.469 9.08785C13.6842 8.00619 13.5737 6.88501 13.1517 5.8661C12.7296 4.8472 12.0149 3.97632 11.0979 3.36361C10.1809 2.75089 9.10286 2.42386 8 2.42386V1Z" stroke="#EFF1F7" stroke-width="10" mask="url(#path-2-inside-1_745_4485)"/>
  <path d="M8 1C9.38447 1 10.7378 1.41054 11.889 2.17971C13.0401 2.94888 13.9373 4.04213 14.4672 5.32122C14.997 6.6003 15.1356 8.00777 14.8655 9.36563C14.5954 10.7235 13.9287 11.9708 12.9497 12.9497L11.9429 11.9429C12.7228 11.1631 13.2538 10.1695 13.469 9.08785C13.6842 8.00619 13.5737 6.88501 13.1517 5.8661C12.7296 4.8472 12.0149 3.97632 11.0979 3.36361C10.1809 2.75089 9.10286 2.42386 8 2.42386V1Z" stroke="url(#paint0_angular_745_4485)" stroke-width="10" mask="url(#path-2-inside-1_745_4485)"/>
</svg>
