<svg width="100" height="100" viewBox="0 0 100 100" fill="none" xmlns="http://www.w3.org/2000/svg">
<g opacity="0.8">
<circle cx="50" cy="50" r="50" fill="white"/>
<g clip-path="url(#clip0_6261_1037)">
<path d="M30.4727 49.2C30.4727 40.149 30.4727 35.6235 33.2844 32.8118C36.0962 30 40.6217 30 49.6727 30H51.2727C60.3237 30 64.8491 30 67.6609 32.8118C70.4727 35.6235 70.4727 40.149 70.4727 49.2V50.8C70.4727 59.851 70.4727 64.3764 67.6609 67.1882C64.8491 70 60.3237 70 51.2727 70H49.6727C40.6217 70 36.0962 70 33.2844 67.1882C30.4727 64.3764 30.4727 59.851 30.4727 50.8V49.2Z" fill="#0077FF"/>
<path d="M51.7559 58.817C42.6392 58.817 37.4393 52.567 37.2227 42.167H41.7893C41.9393 49.8003 45.3059 53.0337 47.9726 53.7003V42.167H52.2727V48.7503C54.9061 48.467 57.6724 45.467 58.6057 42.167H62.9058C62.1892 46.2337 59.1892 49.2337 57.0558 50.467C59.1892 51.467 62.606 54.0837 63.906 58.817H59.1725C58.1558 55.6503 55.6227 53.2003 52.2727 52.867V58.817H51.7559Z" fill="white"/>
</g>
</g>
<defs>
<clipPath id="clip0_6261_1037">
<rect width="40" height="40" fill="white" transform="translate(30.4727 30)"/>
</clipPath>
</defs>
</svg>
