<svg width="100" height="100" viewBox="0 0 100 100" fill="none" xmlns="http://www.w3.org/2000/svg">
<g opacity="0.8">
<circle cx="50" cy="50" r="50" fill="white"/>
<path d="M21.712 42.6963H23.2346C24.1619 42.5597 25.1089 42.6798 25.9727 43.0435C27.0564 43.6955 27.8424 44.7452 28.1631 45.9686C28.3902 46.6097 28.3902 46.6097 28.9378 46.3826H29.3652V41.3072H15.0338V42.2021H15.6215C15.8769 42.2003 16.1294 42.2558 16.3605 42.3644C16.5917 42.473 16.7955 42.6321 16.9571 42.8298C17.5047 43.7113 17.5982 44.6997 17.5982 49.8419C17.5982 55.3047 17.478 56.6403 16.9571 57.3215C16.8285 57.4966 16.662 57.6404 16.4701 57.7422C16.2781 57.844 16.0656 57.9011 15.8485 57.9092C15.0338 58.0561 15.0338 58.0428 15.0338 58.4034C14.9887 58.524 14.9887 58.6568 15.0338 58.7774H24.0761C24.1359 58.6594 24.1671 58.529 24.1671 58.3967C24.1671 58.2644 24.1359 58.134 24.0761 58.0161C23.8571 57.9551 23.6339 57.9105 23.4083 57.8825C23.1642 57.8535 22.923 57.8043 22.687 57.7356C22.3491 57.4889 22.0814 57.1583 21.9104 56.7765C21.7394 56.3947 21.671 55.9748 21.712 55.5585C21.5784 54.677 21.5116 53.0608 21.5116 51.7252V50.67H22.0459C22.7115 50.6497 23.3768 50.7216 24.0227 50.8837C24.3321 51.0749 24.5955 51.3321 24.794 51.6369C24.9926 51.9416 25.1214 52.2865 25.1713 52.6468L25.2915 53.0608H26.1062V47.1439H25.3583L25.2381 47.7183C25.1875 48.0867 25.0512 48.4382 24.8401 48.7444C24.629 49.0506 24.349 49.303 24.0227 49.4813C23.7066 49.5754 23.3736 49.5982 23.0476 49.5481H21.5116V48.1056C21.5116 46.6097 21.5918 43.4576 21.6452 42.9634L21.712 42.6963ZM84.22 53.2879C83.5886 52.2718 82.6039 51.5249 81.4552 51.1909C80.5745 50.9157 79.7605 50.4609 79.0644 49.8553C78.9077 49.7038 78.7906 49.5163 78.723 49.3091C78.6555 49.1019 78.6397 48.8813 78.6771 48.6666C78.6781 48.2454 78.8462 47.8419 79.1445 47.5446C79.3467 47.3329 79.6026 47.18 79.8849 47.1024C80.1672 47.0248 80.4653 47.0253 80.7473 47.1039C81.3312 47.2703 81.8592 47.5915 82.2754 48.0336C82.6916 48.4756 82.9804 49.022 83.1114 49.6149C83.3251 50.2159 83.3518 50.2159 83.7391 50.0556L83.9795 49.9621V46.6364L83.8059 46.5563C82.491 46.0944 81.0962 45.9036 79.7055 45.9953C78.5079 46.0256 77.3648 46.5019 76.5 47.3309C76.1077 47.6981 75.8005 48.1465 75.5998 48.6449C75.3991 49.1432 75.3097 49.6794 75.338 50.2159C75.3455 51.0362 75.6711 51.8215 76.2462 52.4064C76.8818 53.0314 77.6616 53.4902 78.5168 53.742C80.587 54.5567 81.1881 55.0776 81.1881 56.026C81.1969 56.4259 81.0696 56.8169 80.8268 57.1348C80.5841 57.4528 80.2405 57.6788 79.8524 57.7756C79.386 57.8781 78.903 57.8781 78.4366 57.7756C77.826 57.5387 77.2808 57.1593 76.8464 56.6691C76.412 56.1789 76.1009 55.5921 75.939 54.9574L75.7654 54.53H75.5249C75.41 54.5386 75.2973 54.5656 75.191 54.6102H75.0575V58.4034H75.2845C76.1869 58.7036 77.1179 58.9095 78.0627 59.0178H79.3983C79.9775 59.0603 80.5598 59.0061 81.1213 58.8575C81.8341 58.726 82.5 58.4102 83.053 57.9416C83.606 57.473 84.0267 56.8678 84.2734 56.1862C84.4328 55.8055 84.5145 55.3969 84.5138 54.9842C84.5664 54.4027 84.4651 53.8177 84.22 53.2879ZM71.6382 46.3826C70.8379 46.0466 69.9755 45.8836 69.1077 45.9043C68.2399 45.925 67.3863 46.129 66.6029 46.5028C65.8665 46.863 65.2138 47.3736 64.687 48.0017C64.1601 48.6298 63.7709 49.3613 63.5442 50.1491C63.2553 51.0085 63.1329 51.9152 63.1836 52.8204C63.1741 53.313 63.2143 53.8052 63.3038 54.2896C63.5195 55.4808 64.0946 56.5773 64.9517 57.4321C65.8089 58.2869 66.9071 58.8588 68.0988 59.0712C68.8748 59.169 69.6601 59.169 70.4361 59.0712C71.2415 58.9293 72.0122 58.6346 72.7067 58.203C73.2813 57.881 73.7675 57.4222 74.1225 56.8674C74.0997 56.7804 74.0596 56.6988 74.0045 56.6277C73.9494 56.5565 73.8805 56.4972 73.802 56.4534C73.6495 56.5086 73.5056 56.585 73.3746 56.6804C72.7102 57.1182 71.9258 57.3377 71.1307 57.3082C70.603 57.3438 70.0739 57.2617 69.5819 57.0676C69.0898 56.8736 68.6471 56.5725 68.2858 56.1862C68.0063 55.9266 67.7756 55.619 67.6046 55.278C67.1895 54.4477 66.9659 53.5349 66.9501 52.6067V52.0858H74.3496V51.8187C74.3659 51.5518 74.3659 51.2842 74.3496 51.0173C74.3469 50.0742 74.0947 49.1486 73.6185 48.3346C73.1422 47.5206 72.459 46.8471 71.6382 46.3826ZM67.9118 51.0039H66.9768V50.2159C67.284 48.1991 68.0454 46.997 68.9803 46.997C69.9152 46.997 70.3159 48.1857 70.4896 50.3628V50.9772H69.6882L67.9118 51.0039ZM48.7053 45.9419C48.2438 45.924 47.785 46.0203 47.3696 46.2224C46.4669 46.6607 45.7378 47.3899 45.2994 48.2926L45.1258 48.6132V45.9419H45.059C44.8987 45.9419 39.9568 46.9302 39.7966 46.997C39.6363 47.0638 39.6897 47.0772 39.6897 47.3176C39.6897 47.558 39.6897 47.5981 39.7966 47.6114L40.3175 47.7183C40.4634 47.7218 40.6065 47.7586 40.7361 47.8257C40.8657 47.8928 40.9783 47.9885 41.0654 48.1056C41.3993 48.5464 41.4661 49.321 41.4661 52.6201C41.5321 54.1052 41.4695 55.5934 41.2791 57.0678C41.2343 57.2901 41.1216 57.493 40.9565 57.6485C40.7914 57.804 40.5821 57.9044 40.3575 57.9359L39.9034 58.0294H39.7298V58.4034C39.6813 58.528 39.6813 58.6662 39.7298 58.7907H47.196V58.4034C47.2219 58.2756 47.2219 58.1439 47.196 58.0161C46.7465 57.9985 46.2994 57.9404 45.8604 57.8424C45.6213 57.7174 45.4257 57.5228 45.2993 57.2844C45.1729 57.046 45.1217 56.7749 45.1525 56.5068C45.0456 55.7321 44.9922 53.4615 45.0189 51.7252C45.0456 49.9889 45.0189 49.882 45.1658 49.7618C45.6128 49.4191 46.1658 49.2442 46.7285 49.2676C47.2589 49.2792 47.7797 49.4117 48.2512 49.6549C48.4146 49.7457 48.5899 49.8131 48.7721 49.8553C48.7721 49.8553 50.1077 46.623 50.1077 46.4761C49.9368 46.2775 49.719 46.1246 49.4742 46.0314C49.2293 45.9381 48.965 45.9073 48.7053 45.9419ZM39.7031 51.5516C39.6565 50.5971 39.3824 49.6676 38.9038 48.8405C38.4252 48.0135 37.7559 47.3127 36.9517 46.7967C35.9959 46.2811 34.9325 45.9967 33.8469 45.9666C32.7613 45.9364 31.6838 46.1613 30.7009 46.623C29.3111 47.3559 28.2618 48.6016 27.7758 50.0957C27.2738 51.7685 27.2738 53.5518 27.7758 55.2246C28.039 56.1388 28.5308 56.9708 29.2049 57.6421C30.0445 58.4613 31.1271 58.9862 32.2903 59.138C33.0369 59.2004 33.7875 59.2004 34.5341 59.138C34.8089 59.0962 35.081 59.0382 35.3489 58.9644C36.436 58.6602 37.4141 58.0528 38.1687 57.2131C38.9232 56.3734 39.423 55.3362 39.6096 54.2228C39.7429 53.3389 39.7743 52.4426 39.7031 51.5516ZM34.1468 58.2298C32.8112 58.6305 31.8094 57.3349 31.4755 54.6102C31.3529 53.1837 31.3529 51.7493 31.4755 50.3228C31.7427 48.1323 32.4238 47.0237 33.479 47.0237C33.6919 47.0105 33.9048 47.0485 34.1 47.1345C34.2952 47.2205 34.467 47.352 34.6009 47.5179C35.4958 48.4128 35.9366 50.1892 35.9366 52.8605C36.0477 54.3723 35.8101 55.8894 35.242 57.2948C34.9912 57.7047 34.6031 58.0123 34.1468 58.163V58.2298ZM58.1883 46.209C57.8115 46.1605 57.4299 46.1605 57.053 46.209C56.3296 46.2084 55.6145 46.3633 54.9561 46.6631L54.542 46.8367V43.9384C54.6144 42.9603 54.6144 41.9781 54.542 41C54.3818 41 49.2796 41.975 49.1995 42.0151C49.1601 42.1137 49.1601 42.2237 49.1995 42.3223C49.1995 42.6028 49.1995 42.5894 49.8005 42.723C49.9693 42.7608 50.1314 42.8239 50.2813 42.91C50.5421 43.1551 50.7156 43.4787 50.7755 43.8316C50.9276 44.848 50.9768 45.8772 50.9225 46.9035V58.6305L51.2831 58.7106C51.8173 58.8308 53.3266 59.0846 53.8208 59.138C54.8076 59.2165 55.7991 59.2165 56.7859 59.138C57.8812 59.0261 58.9253 58.6175 59.8055 57.9561C60.6858 57.2948 61.3689 56.4057 61.7812 55.3848C62.027 54.7296 62.1973 54.0485 62.2887 53.3547C62.3682 52.4149 62.3369 51.469 62.1953 50.5365C62.052 49.4912 61.5906 48.5153 60.8738 47.7412C60.157 46.9671 59.2195 46.4321 58.1883 46.209ZM54.689 58.0027C54.689 57.8291 54.5554 51.979 54.5821 49.6416V47.8118L54.9694 47.7183C55.2308 47.6808 55.4961 47.6808 55.7575 47.7183C56.0465 47.6889 56.3372 47.7545 56.5856 47.9053C57.0844 48.2495 57.4986 48.7024 57.797 49.2299C58.0954 49.7574 58.2703 50.3457 58.3085 50.9505C58.4058 51.9231 58.4058 52.903 58.3085 53.8756C58.2286 55.2892 57.6839 56.6367 56.7592 57.7089C56.4967 57.9582 56.1671 58.1253 55.8109 58.1897C55.5413 58.2366 55.2657 58.2366 54.9962 58.1897C54.7424 58.1897 54.7424 58.1096 54.7424 58.0027H54.689Z" fill="#33629A"/>
</g>
</svg>
