<svg width="236" height="75" viewBox="0 0 236 75" fill="none" xmlns="http://www.w3.org/2000/svg">
<g clip-path="url(#clip0_6261_153)">
<path d="M224.03 75H12.1177C5.64706 75 0.5 69.8529 0.5 63.3824V11.6177C0.5 5.14706 5.64706 0 12.1177 0H224.03C230.5 0 235.647 5.14706 235.647 11.6177V63.3824C235.501 69.8529 230.353 75 224.03 75ZM12.1177 2.50001C7.11766 2.50001 3.00001 6.61764 3.00001 11.6177V63.3824C3.00001 68.3823 7.11766 72.5 12.1177 72.5H224.03C229.03 72.5 233.147 68.3823 233.147 63.3824V11.6177C233.147 6.61764 229.03 2.50001 224.03 2.50001H12.1177Z" fill="#9EAABC"/>
<path d="M90.6472 20.8821C87.706 24.8526 84.6178 28.6762 81.0883 32.4997C77.2648 36.6174 73.1472 40.5879 68.2942 44.4115C64.9119 47.2056 61.2354 49.9998 57.1177 52.7938C52.7059 55.882 48.0001 58.6762 42.706 61.7644C40.059 61.7644 37.5589 61.7644 34.4707 61.7644C41.6766 58.0879 47.559 54.9997 53.1472 51.4702C58.2942 48.235 62.853 44.9997 66.9706 41.7645C71.9707 37.7938 76.2354 33.8232 80.206 29.8527C83.7354 26.0292 86.9707 22.2055 89.9119 18.0879C90.2059 19.1173 90.3531 19.9996 90.6472 20.8821Z" fill="#9EAABC"/>
<path d="M89.0296 15.2955C85.9414 19.4131 82.5591 23.2366 78.8826 27.0601C74.7649 31.1778 70.2061 35.1484 64.912 39.1191C60.0591 42.7954 54.4708 46.4719 48.2943 50.1484C41.3826 54.2661 34.6179 57.6484 25.3531 61.9131C21.2355 62.0602 18.0003 61.7661 13.4414 61.9131C26.2356 56.7661 34.3237 53.3838 43.1473 48.6778C50.9413 44.5602 57.706 40.4425 63.4414 36.3249C68.8825 32.5014 73.5885 28.5307 77.7061 24.4131C81.5296 20.5896 85.059 16.6191 88.1473 12.6484C88.4413 13.5308 88.7355 14.4131 89.0296 15.2955Z" fill="#9EAABC"/>
<path d="M87.852 34.2656C87.9992 36.7657 88.1462 39.2656 88.1462 41.7656C88.1462 44.2657 87.9992 46.7656 87.705 49.4126C87.558 51.3244 87.2639 53.2361 86.9697 55.148C86.6756 57.0598 86.2344 59.8538 85.7933 61.9127C85.058 61.9127 84.4697 61.9127 83.7344 61.9127C84.4697 58.2362 85.058 53.8244 85.3521 50.2951C85.6461 48.0892 85.6461 45.7361 85.7933 43.5304C85.7933 41.3245 85.7933 39.1186 85.6461 36.9127C86.3814 36.1774 87.1167 35.1479 87.852 34.2656Z" fill="#9EAABC"/>
<path d="M83.1463 39.8516C83.2934 43.8222 83.2934 47.7927 82.8523 51.9104C82.5581 54.8516 82.117 58.6751 81.5287 61.7633C80.7934 61.7633 80.0581 61.7633 79.1758 61.7633C79.6169 58.9692 80.0581 55.7339 80.2051 53.0868C80.4992 49.4105 80.6464 45.881 80.4992 42.2045C81.3817 41.6163 82.264 40.7339 83.1463 39.8516Z" fill="#9EAABC"/>
<path d="M92.1177 28.2344C92.1177 28.8227 92.2647 29.411 92.2647 29.9991C92.5588 32.7933 92.7059 35.5874 92.7059 38.3816C92.7059 41.1756 92.5588 43.9697 92.2647 46.7639C92.1177 48.9698 91.6765 51.3227 91.3824 53.6756C90.9412 56.0286 90.5001 59.411 89.9118 61.7639C89.3235 61.7639 88.7353 61.7639 88 61.7639C88.5883 59.411 89.0295 56.3226 89.3236 54.1167C89.6176 51.911 89.9118 49.7051 90.2059 47.6462C90.5001 44.8521 90.6471 42.0579 90.6471 39.2639C90.6471 36.4697 90.5001 33.6756 90.2059 30.8816C90.7941 30.1463 91.3824 29.2638 92.1177 28.2344Z" fill="#9EAABC"/>
<path d="M91.9701 26.4713C89.3231 30.2948 86.3819 34.1183 83.1467 37.7948C79.6172 41.7654 75.7937 45.5889 71.529 49.5594C66.9701 53.6771 61.8231 57.7947 55.7937 61.9124C53.882 61.9124 51.8231 62.0595 49.6172 62.0595C53.7348 59.4125 57.5583 56.9124 61.0878 54.2654C64.323 51.9125 67.4114 49.4124 70.2054 47.0595C74.7642 43.236 78.7349 39.2654 82.2642 35.2947C85.6466 31.6184 88.5878 27.7947 91.382 23.8242C91.529 24.5595 91.8231 25.589 91.9701 26.4713Z" fill="#9EAABC"/>
<path d="M113 35.2947C109.617 35.2947 106.97 34.2652 105.058 32.2065C103.147 30.1476 102.117 27.3535 102.117 23.824C102.117 20.2947 103 17.5006 104.911 15.4417C106.823 13.3829 109.47 12.3535 112.853 12.3535C116.235 12.3535 118.882 13.3829 120.794 15.4417C122.705 17.5006 123.735 20.2947 123.735 23.824C123.735 27.3535 122.853 30.1476 120.941 32.2065C119.029 34.2652 116.382 35.2947 113 35.2947ZM113 15.7359C111.235 15.7359 109.911 16.4712 108.882 17.7946C107.852 19.1182 107.264 21.177 107.264 23.677C107.264 26.1771 107.852 28.2358 108.882 29.5594C109.911 30.8829 111.235 31.6182 113 31.6182C114.764 31.6182 116.088 30.8829 117.117 29.5594C118.147 28.0888 118.735 26.1771 118.735 23.677C118.735 21.177 118.294 19.1182 117.117 17.7946C116.088 16.4712 114.764 15.7359 113 15.7359Z" fill="#9EAABC"/>
<path d="M146.677 34.7058H141.824V16.3235H134.619L134.324 20.4411C134.177 22.2059 134.03 23.8235 133.883 25.4412C133.736 27.0588 133.295 28.5294 132.854 29.8529C132.413 31.1765 131.824 32.3529 131.236 32.9412C130.648 33.6765 130.06 34.1177 129.324 34.4118C128.736 34.7058 128.001 34.853 127.119 34.853C126.677 34.853 125.942 34.853 124.766 34.7058V30.2942H124.913C125.207 30.2942 125.501 30.2942 125.648 30.2942C126.236 30.2942 126.677 30.2942 126.971 30.147C127.266 30 127.707 29.7059 128.001 29.2647C128.295 28.8236 128.589 28.2353 128.883 27.5C129.03 26.7647 129.324 25.8824 129.471 24.7059C129.619 23.5295 129.766 22.2059 129.766 20.7353C129.913 19.2647 129.913 16.4706 130.06 12.5H146.53V34.7058H146.677Z" fill="#9EAABC"/>
<path d="M171.087 34.7048H166.381V19.2635L156.382 34.7048H151.822V12.793H156.529V27.2048L165.94 12.793H171.087V34.7048Z" fill="#9EAABC"/>
<path d="M198.295 34.7048H193.588V19.2635L188.735 29.5577H185.647L180.794 19.2635V34.7048H176.383V12.793H181.823L187.412 24.4106L192.853 12.793H198.295V34.7048Z" fill="#9EAABC"/>
<path d="M222.411 34.7048H217.706V16.3224H208.44V34.7048H203.588V12.793H222.411V34.7048Z" fill="#9EAABC"/>
<path d="M116.382 61.911H113.588V47.058H104.764V61.911H102.117V44.7051H116.382V61.911Z" fill="#9EAABC"/>
<path d="M131.823 61.9107V59.999C130.352 61.0284 129.176 61.6166 128.293 61.9107C127.411 62.2049 126.382 62.3519 125.499 62.3519C124.029 62.3519 122.705 61.9107 121.676 60.8814C120.646 59.852 120.205 58.5284 120.205 57.0578C120.205 54.999 120.94 53.5284 122.411 52.499C123.882 51.4695 127.117 50.8814 131.823 50.7342V50.1461C131.823 48.9696 131.529 48.0872 130.793 47.499C130.058 46.9107 128.882 46.6166 127.117 46.6166C125.499 46.6166 123.735 47.0579 121.823 47.7932H121.676V44.999C123.587 44.4108 125.352 44.2637 127.117 44.2637C129.617 44.2637 131.529 44.7048 132.705 45.7343C133.882 46.6166 134.47 48.0872 134.47 50.1461V61.9107H131.823ZM131.823 57.7931V52.7931C127.999 52.9401 125.646 53.3814 124.47 54.1166C123.44 54.8519 122.852 55.7343 122.852 56.9108C122.852 58.9695 124.029 59.999 126.529 59.999C128.44 59.999 130.058 59.2637 131.823 57.7931Z" fill="#9EAABC"/>
<path d="M142.264 61.0299V68.3827H139.617V44.8534H142.264V46.7652C144.176 45.1474 146.088 44.4121 148 44.4121C150.058 44.4121 151.676 45.1474 152.853 46.7652C154.029 48.3828 154.617 50.4417 154.617 53.2357C154.617 55.8828 153.882 58.0887 152.412 59.8534C150.941 61.618 149.176 62.3533 146.97 62.3533C145.352 62.3533 143.735 61.9122 142.264 61.0299ZM142.264 48.8239V58.824C143.735 59.5593 145.205 59.8534 146.529 59.8534C148.147 59.8534 149.47 59.2651 150.5 58.0887C151.382 56.9122 151.97 55.2946 151.97 53.2357C151.97 48.9711 150.353 46.7652 147.264 46.7652C145.5 46.7652 143.882 47.5005 142.264 48.8239Z" fill="#9EAABC"/>
<path d="M173.734 61.911H170.205L163.146 53.9698H161.382V61.911H158.734V44.7051H161.382V52.2051C162.411 52.2051 163.293 52.0581 163.882 51.6168C164.47 51.3228 164.911 50.7345 165.499 49.8522C165.94 48.9697 166.234 48.2344 166.528 47.6463C166.822 47.058 167.116 46.4698 167.706 46.0285C168.147 45.5874 168.735 45.1462 169.323 44.9992C169.911 44.7051 170.793 44.7051 171.676 44.7051H172.852V47.058H171.529C170.793 47.058 170.058 47.2051 169.617 47.6463C169.176 47.9404 168.735 48.6757 168.441 49.558C167.706 51.1756 166.822 52.3521 165.793 52.9404L173.734 61.911Z" fill="#9EAABC"/>
<path d="M183.728 62.3525C180.935 62.3525 178.581 61.6172 177.111 59.9996C175.493 58.3819 174.758 56.3231 174.758 53.3819C174.758 50.5879 175.493 48.382 176.963 46.6172C178.434 44.9996 180.492 44.1172 182.993 44.1172C185.199 44.1172 186.963 44.8525 188.286 46.1761C189.611 47.4995 190.199 49.4114 190.199 52.0585V53.5291H177.552C177.552 55.5878 178.14 57.2054 179.169 58.2349C180.345 59.4113 181.817 59.8525 183.875 59.8525C185.787 59.8525 187.845 59.1172 189.758 57.7937H189.905V60.7349C187.404 61.9114 185.346 62.3525 183.728 62.3525ZM177.405 51.6172H187.551C187.404 48.2348 185.934 46.4702 182.846 46.4702C181.229 46.4702 180.051 46.9114 179.169 47.7937C178.14 48.6761 177.552 49.9996 177.405 51.6172Z" fill="#9EAABC"/>
<path d="M206.676 47.058H200.5V61.911H197.853V47.058H191.676V44.7051H206.676V47.058Z" fill="#9EAABC"/>
<path d="M219.766 61.9107V59.999C218.294 61.0284 217.118 61.6166 216.236 61.9107C215.354 62.2049 214.324 62.3519 213.442 62.3519C211.972 62.3519 210.647 61.9107 209.618 60.8814C208.589 59.852 208.148 58.5284 208.148 57.0578C208.148 54.999 208.883 53.5284 210.353 52.499C211.825 51.4695 215.059 50.8814 219.766 50.7342V50.1461C219.766 48.9696 219.472 48.0872 218.735 47.499C218 46.9107 216.824 46.6166 215.059 46.6166C213.442 46.6166 211.678 47.0579 209.765 47.7932H209.618V44.999C211.531 44.4108 213.295 44.2637 215.059 44.2637C217.559 44.2637 219.472 44.7048 220.648 45.7343C221.824 46.6166 222.412 48.0872 222.412 50.1461V61.9107H219.766ZM219.766 57.7931V52.7931C215.942 52.9401 213.589 53.3814 212.413 54.1166C211.384 54.8519 210.794 55.7343 210.794 56.9108C210.794 58.9695 211.972 59.999 214.471 59.999C216.236 59.999 218 59.2637 219.766 57.7931Z" fill="#9EAABC"/>
<path d="M222.705 38.5293H102.117V40.2939H222.705V38.5293Z" fill="#9EAABC"/>
</g>
<defs>
<clipPath id="clip0_6261_153">
<rect width="235.5" height="75" fill="white" transform="translate(0.5)"/>
</clipPath>
</defs>
</svg>
